<?xml version="1.0" standalone="no"?>
<!DOCTYPE svg PUBLIC "-//W3C//DTD SVG 20010904//EN"
 "http://www.w3.org/TR/2001/REC-SVG-20010904/DTD/svg10.dtd">
<svg version="1.0" xmlns="http://www.w3.org/2000/svg"
 width="512.000000pt" height="512.000000pt" viewBox="0 0 512.000000 512.000000"
 preserveAspectRatio="xMidYMid meet">

<g transform="translate(0.000000,512.000000) scale(0.100000,-0.100000)"
fill="#000000" stroke="none">
<path d="M0 2560 l0 -2560 2560 0 2560 0 0 2560 0 2560 -2560 0 -2560 0 0
-2560z m2617 1609 c15 -6 39 -20 52 -32 13 -12 114 -204 223 -427 110 -223
201 -406 202 -408 5 -4 154 -27 536 -82 195 -28 367 -56 383 -62 66 -26 109
-118 88 -190 -11 -37 -58 -88 -343 -368 l-330 -325 67 -390 c36 -214 71 -420
77 -456 11 -62 10 -69 -13 -114 -31 -62 -65 -87 -127 -93 -49 -4 -59 0 -354
154 -167 87 -351 184 -410 214 l-108 55 -107 -55 c-60 -30 -240 -124 -402
-209 -198 -104 -307 -155 -335 -158 -80 -9 -156 48 -171 127 -4 20 2 83 14
150 11 63 46 264 77 445 l56 330 -330 325 c-285 280 -332 331 -343 368 -21 72
22 164 88 190 16 7 201 36 413 67 421 61 501 73 505 77 2 2 89 178 195 393
105 214 203 405 217 423 42 55 115 76 180 51z"/>
<path d="M2346 3581 c-173 -348 -213 -422 -235 -430 -14 -6 -217 -37 -451 -71
-234 -33 -438 -64 -453 -68 l-29 -7 89 -85 c392 -376 593 -579 593 -601 0 -13
-34 -226 -76 -472 -42 -246 -74 -450 -71 -453 4 -4 124 58 688 355 75 39 146
71 159 71 13 0 84 -32 159 -71 564 -297 684 -359 688 -355 3 3 -29 207 -71
453 -42 246 -76 459 -76 472 0 22 171 195 583 592 99 94 99 94 70 101 -15 4
-219 35 -453 68 -234 34 -437 65 -451 71 -22 8 -62 82 -235 430 -114 230 -211
419 -214 419 -3 0 -100 -189 -214 -419z"/>
</g>
</svg>
