<svg width="35" height="34" viewBox="0 0 35 34" fill="none" xmlns="http://www.w3.org/2000/svg">
<path d="M17.5066 2.2124C17.9474 2.94268 18.3654 3.55546 18.7032 4.20961C19.72 6.17826 20.3219 8.28548 20.7215 10.4574C21.2211 13.1723 21.3472 15.9123 21.3073 18.6652C21.3002 19.1584 21.2934 19.6532 21.3241 20.1449C21.3414 20.421 21.2268 20.5656 21.0159 20.7084C20.1552 21.2912 19.194 21.6025 18.1752 21.6928C16.6529 21.8278 15.2196 21.5321 13.9317 20.6576C13.7504 20.5345 13.6884 20.4067 13.6937 20.1959C13.7438 18.1979 13.7161 16.1952 13.845 14.2026C14.0684 10.7498 14.7359 7.3877 16.3054 4.26285C16.6415 3.59373 17.0615 2.96677 17.5066 2.2124Z" fill="white"/>
<path d="M15.4982 2.54724C14.1073 4.88837 13.3168 7.3462 12.8702 9.90342C12.5749 11.5942 12.3999 13.3125 12.2842 15.0262C12.1767 16.6165 12.2139 18.217 12.2019 19.8131C12.2002 20.0404 12.1485 20.1813 11.9372 20.284C10.0545 21.1997 8.18045 21.2135 6.30654 20.2576C6.13532 20.1703 6.07803 20.064 6.08279 19.8721C6.11534 18.5603 6.06325 17.2421 6.17386 15.9375C6.4449 12.7408 7.54724 9.85111 9.56481 7.33119C11.1674 5.32963 13.1375 3.78508 15.4982 2.54724Z" fill="white"/>
<path d="M19.6784 2.55066C20.6059 3.16616 21.5655 3.73875 22.4545 4.40559C24.7055 6.09417 26.424 8.22428 27.5631 10.8074C28.2478 12.3604 28.6966 13.9817 28.8071 15.6748C28.8969 17.0516 28.8895 18.4346 28.9367 19.8144C28.9445 20.0441 28.882 20.1823 28.6686 20.2874C26.7981 21.2091 24.9318 21.2022 23.0747 20.2635C22.964 20.2076 22.8629 20.0141 22.8598 19.8821C22.8219 18.2742 22.8498 16.6635 22.7691 15.0582C22.6281 12.2516 22.2324 9.48154 21.3888 6.78761C20.9374 5.34605 20.3537 3.96496 19.5967 2.65701C19.6239 2.62156 19.6512 2.58611 19.6784 2.55066Z" fill="white"/>
<path d="M18.6157 0.454834C19.9555 0.54509 21.1895 0.759239 22.4046 1.1061C25.6889 2.0436 28.4659 3.79883 30.7268 6.342C32.8802 8.76419 34.2514 11.5892 34.7711 14.7966C34.9214 15.7241 34.962 16.6729 34.9989 17.6141C35.0329 18.4828 34.4039 19.2502 33.4271 19.6257C32.5607 19.9588 31.6807 19.9569 30.7919 19.7169C30.5446 19.6501 30.4473 19.5279 30.4417 19.2487C30.4155 17.9499 30.4092 16.6473 30.299 15.3543C30.11 13.1367 29.4433 11.0463 28.3805 9.09251C26.5937 5.80801 23.9794 3.34798 20.7369 1.53338C20.0731 1.16191 19.3805 0.841848 18.6157 0.454834Z" fill="white"/>
<path d="M16.323 0.531669C14.4084 1.33556 12.6524 2.40265 11.0657 3.73826C7.88694 6.41398 5.77432 9.73448 4.94085 13.8421C4.57805 15.6301 4.57362 17.4319 4.5931 19.2386C4.59603 19.5105 4.52158 19.6401 4.2586 19.707C2.94265 20.0418 1.70592 19.9588 0.643876 19.0141C0.133387 18.56 -0.0223896 17.9586 0.00252148 17.2868C0.0768586 15.282 0.43045 13.3382 1.17016 11.4651C2.12175 9.05545 3.542 6.97013 5.42888 5.20038C7.66739 3.10083 10.2787 1.67598 13.2612 0.960856C14.2642 0.720362 15.2938 0.590633 16.3112 0.410278C16.3152 0.450742 16.3191 0.491206 16.323 0.531669Z" fill="white"/>
<path d="M2.99927 21.4736C3.51772 21.3856 4.0019 21.2888 4.49077 21.2335C4.58299 21.223 4.72544 21.3574 4.79155 21.4594C6.19497 23.6249 7.59034 25.7957 8.98823 27.9648C9.98994 29.5192 10.9944 31.0718 11.9946 32.6271C12.2692 33.0539 12.2507 33.3931 11.9531 33.679C11.5814 34.0361 11.0662 33.9627 10.7496 33.4846C10.1704 32.61 9.60394 31.727 9.03523 30.8456C7.06763 27.796 5.1013 24.7455 3.13476 21.6952C3.09085 21.6271 3.05012 21.557 2.99927 21.4736Z" fill="white"/>
<path d="M32.0332 21.464C31.58 22.1718 31.14 22.8631 30.6959 23.5517C28.5705 26.8474 26.4434 30.1421 24.3184 33.438C24.0252 33.8927 23.5735 34.0288 23.1788 33.7724C22.7985 33.5253 22.7391 33.0819 23.0352 32.6229C25.4415 28.8919 27.8507 25.1629 30.2529 21.4293C30.3677 21.2509 30.4601 21.2113 30.6774 21.2614C31.1082 21.3606 31.5537 21.3964 32.0332 21.464Z" fill="white"/>
<path d="M9.28662 22.5162C9.81579 22.4462 10.3154 22.3801 10.8358 22.3113C11.4647 23.8318 12.0972 25.3589 12.7281 26.8868C13.4987 28.753 14.2721 30.6182 15.0333 32.4883C15.1327 32.7324 15.2302 33.0066 15.2158 33.2605C15.1961 33.6065 14.8731 33.8645 14.5543 33.8995C14.2092 33.9374 13.9079 33.7602 13.7526 33.3936C13.3819 32.5184 13.0209 31.6391 12.6597 30.76C11.5481 28.0549 10.4382 25.3492 9.32805 22.6436C9.31516 22.6122 9.30683 22.5789 9.28662 22.5162Z" fill="white"/>
<path d="M24.2045 22.3171C24.7319 22.3844 25.2315 22.4481 25.7501 22.5142C25.2536 23.7299 24.763 24.9369 24.2681 26.1421C23.2957 28.5102 22.3204 30.8771 21.3474 33.245C21.1571 33.7083 20.8705 33.9298 20.4898 33.8995C19.9651 33.8577 19.6564 33.3624 19.8637 32.8391C20.3519 31.6064 20.8575 30.3805 21.3615 29.154C22.2857 26.9047 23.2138 24.6569 24.1414 22.4089C24.1545 22.377 24.181 22.3506 24.2045 22.3171Z" fill="white"/>
</svg>
