<?xml version="1.0" encoding="UTF-8" ?>
<!DOCTYPE svg PUBLIC "-//W3C//DTD SVG 1.1//EN" "http://www.w3.org/Graphics/SVG/1.1/DTD/svg11.dtd">
<svg width="1250pt" height="1100pt" viewBox="0 0 1250 1100" version="1.1" xmlns="http://www.w3.org/2000/svg">
<g id="#172c17ff">
<path fill="#172c17" opacity="1.00" d=" M 592.04 65.05 C 603.37 53.21 614.82 41.38 627.64 31.15 C 651.20 50.96 672.02 73.83 691.01 98.01 C 715.31 129.34 736.18 163.61 750.40 200.71 C 765.18 238.82 772.51 280.26 768.20 321.09 C 781.20 307.34 795.70 294.99 811.47 284.53 C 842.96 263.85 879.17 251.13 916.13 244.52 C 951.83 237.96 988.36 237.39 1024.49 239.91 C 1052.04 242.29 1079.60 246.25 1106.27 253.74 C 1106.84 254.00 1107.99 254.50 1108.57 254.75 C 1104.56 289.60 1096.12 323.89 1084.52 356.98 C 1069.77 398.68 1049.18 438.69 1020.86 472.85 C 1004.56 492.24 985.87 509.80 964.56 523.60 C 939.95 539.51 912.49 550.88 884.04 557.80 C 878.87 549.57 873.31 541.59 867.24 534.00 C 872.19 533.61 876.91 532.04 881.69 530.81 C 905.98 524.29 929.60 514.57 950.56 500.59 C 950.64 500.31 950.80 499.74 950.88 499.46 C 937.58 493.34 923.49 489.07 909.27 485.71 C 904.05 484.63 898.90 483.14 893.57 482.79 C 867.10 479.06 839.93 479.72 813.80 485.47 C 799.90 476.77 785.35 469.06 769.98 463.27 C 794.31 433.95 811.46 398.61 818.64 361.16 C 821.75 344.27 823.36 327.03 822.50 309.86 C 812.99 315.57 804.81 323.22 796.56 330.57 C 761.98 363.67 738.12 406.32 721.14 450.70 C 711.45 449.47 701.70 449.09 691.97 448.35 C 693.88 445.33 695.72 442.23 696.95 438.85 C 704.13 419.84 712.80 401.41 722.69 383.66 C 725.27 378.83 728.75 374.43 730.43 369.16 C 738.06 346.52 742.16 322.70 742.72 298.83 C 728.28 307.07 715.37 317.83 703.45 329.38 C 676.41 355.87 656.49 389.42 645.77 425.70 C 644.78 429.11 643.72 432.49 642.73 435.90 C 640.81 441.63 640.62 447.72 641.22 453.69 C 633.12 455.41 625.14 457.61 617.33 460.33 C 615.41 461.49 614.43 459.20 613.63 457.89 C 614.70 451.19 614.54 444.10 612.62 437.53 C 603.66 401.44 586.12 367.42 561.31 339.66 C 547.07 323.89 530.83 309.76 512.53 298.88 C 512.37 325.00 518.39 350.74 526.56 375.41 C 520.73 373.16 515.32 369.97 509.57 367.55 C 504.62 365.43 499.54 363.68 494.55 361.69 C 487.73 336.78 484.56 310.80 485.89 284.99 C 488.17 243.97 500.87 204.05 519.44 167.59 C 538.54 130.14 563.61 95.93 592.04 65.05 M 544.54 177.28 C 554.06 183.68 563.58 190.15 572.15 197.82 C 586.89 210.55 599.65 225.50 610.28 241.80 C 611.51 243.59 612.27 245.79 614.07 247.12 C 614.26 206.77 614.10 166.41 614.15 126.05 C 614.00 111.01 614.46 95.96 613.93 80.94 C 586.88 109.97 563.05 142.13 544.54 177.28 M 641.14 81.76 C 640.49 91.82 641.64 101.94 641.07 112.03 C 641.24 153.66 641.05 195.30 641.20 236.95 C 641.23 240.36 640.49 243.79 641.29 247.18 C 642.92 244.84 644.41 242.41 645.99 240.03 C 662.42 214.89 684.59 193.73 709.95 177.71 C 708.78 173.90 706.73 170.46 704.83 166.99 C 688.97 138.63 669.48 112.41 647.78 88.27 C 645.63 86.04 643.88 83.32 641.14 81.76 M 715.37 206.38 L 715.44 206.60 C 681.26 230.43 656.05 266.43 644.53 306.40 C 642.73 312.49 640.63 318.59 641.05 325.03 C 641.24 339.03 641.14 353.07 641.20 367.08 C 641.50 366.71 642.10 365.97 642.39 365.59 C 660.62 333.18 686.10 304.78 716.65 283.55 L 716.69 283.01 C 717.90 282.52 719.08 281.93 720.16 281.18 C 726.65 276.63 733.52 272.65 740.54 269.01 C 737.85 245.96 731.10 223.44 721.95 202.16 C 719.78 203.61 717.59 205.01 715.37 206.38 M 532.79 202.29 C 524.26 223.73 517.19 245.97 514.42 268.95 C 556.46 290.97 590.84 326.34 613.96 367.60 C 614.39 352.05 614.08 336.47 614.12 320.92 C 606.45 283.12 586.69 247.78 558.27 221.64 C 550.32 214.55 542.09 207.53 532.79 202.29 M 940.72 267.77 C 941.67 287.34 939.53 307.01 935.14 326.10 C 932.06 339.42 927.08 352.19 921.97 364.82 C 965.36 335.21 1008.87 305.79 1052.28 276.22 C 1054.59 274.54 1057.31 273.32 1059.14 271.07 C 1020.04 264.75 980.10 263.62 940.72 267.77 M 848.42 294.23 C 848.13 298.51 849.21 302.75 849.26 307.03 C 851.39 350.10 842.09 393.75 822.31 432.09 C 835.57 424.00 848.10 414.68 861.09 406.12 C 871.14 396.33 879.36 384.80 886.86 372.99 C 905.29 342.94 914.91 307.49 913.81 272.23 C 891.23 276.85 869.06 283.91 848.42 294.23 M 1067.52 298.29 L 1067.50 298.54 C 1025.26 326.92 983.31 355.73 941.15 384.21 C 939.89 385.08 938.45 385.84 937.78 387.29 C 964.42 385.97 991.42 389.58 1016.62 398.41 C 1022.48 400.44 1028.26 402.70 1033.97 405.14 C 1052.94 370.37 1065.75 332.53 1074.78 294.05 C 1072.04 294.84 1069.90 296.82 1067.52 298.29 M 921.55 415.86 C 906.08 418.25 890.64 421.92 876.32 428.35 C 863.47 437.09 850.44 445.62 837.81 454.67 C 842.54 454.50 847.28 454.31 852.00 453.81 C 881.80 452.85 911.81 456.92 940.10 466.47 C 952.18 470.58 964.09 475.35 975.24 481.60 C 985.84 472.40 995.31 461.96 1004.10 451.02 C 1009.65 443.70 1015.51 436.49 1019.95 428.43 C 1011.67 425.31 1003.45 421.88 994.81 419.91 C 970.96 413.85 945.91 411.93 921.55 415.86 Z" />
</g>
<g id="#8dc740ff">
<path fill="#8dc740" opacity="1.00" d=" M 544.54 177.28 C 563.05 142.13 586.88 109.97 613.93 80.94 C 614.46 95.96 614.00 111.01 614.15 126.05 C 614.10 166.41 614.26 206.77 614.07 247.12 C 612.27 245.79 611.51 243.59 610.28 241.80 C 599.65 225.50 586.89 210.55 572.15 197.82 C 563.58 190.15 554.06 183.68 544.54 177.28 Z" />
<path fill="#8dc740" opacity="1.00" d=" M 641.14 81.76 C 643.88 83.32 645.63 86.04 647.78 88.27 C 669.48 112.41 688.97 138.63 704.83 166.99 C 706.73 170.46 708.78 173.90 709.95 177.71 C 684.59 193.73 662.42 214.89 645.99 240.03 C 644.41 242.41 642.92 244.84 641.29 247.18 C 640.49 243.79 641.23 240.36 641.20 236.95 C 641.05 195.30 641.24 153.66 641.07 112.03 C 641.64 101.94 640.49 91.82 641.14 81.76 Z" />
<path fill="#8dc740" opacity="1.00" d=" M 532.79 202.29 C 542.09 207.53 550.32 214.55 558.27 221.64 C 586.69 247.78 606.45 283.12 614.12 320.92 C 614.08 336.47 614.39 352.05 613.96 367.60 C 590.84 326.34 556.46 290.97 514.42 268.95 C 517.19 245.97 524.26 223.73 532.79 202.29 Z" />
<path fill="#8dc740" opacity="1.00" d=" M 644.53 306.40 C 656.05 266.43 681.26 230.43 715.44 206.60 C 718.97 220.75 719.35 235.51 719.36 250.03 C 719.32 261.09 717.93 272.05 716.69 283.01 L 716.65 283.55 C 686.10 304.78 660.62 333.18 642.39 365.59 C 642.10 365.97 641.50 366.71 641.20 367.08 C 641.14 353.07 641.24 339.03 641.05 325.03 C 640.63 318.59 642.73 312.49 644.53 306.40 Z" />
<path fill="#8dc740" opacity="1.00" d=" M 940.72 267.77 C 980.10 263.62 1020.04 264.75 1059.14 271.07 C 1057.31 273.32 1054.59 274.54 1052.28 276.22 C 1008.87 305.79 965.36 335.21 921.97 364.82 C 927.08 352.19 932.06 339.42 935.14 326.10 C 939.53 307.01 941.67 287.34 940.72 267.77 Z" />
<path fill="#8dc740" opacity="1.00" d=" M 941.15 384.21 C 983.31 355.73 1025.26 326.92 1067.50 298.54 C 1067.36 301.25 1066.29 303.78 1065.30 306.27 C 1053.21 338.94 1037.08 370.18 1016.62 398.41 C 991.42 389.58 964.42 385.97 937.78 387.29 C 938.45 385.84 939.89 385.08 941.15 384.21 Z" />
</g>
<g id="#68913eff">
<path fill="#68913e" opacity="1.00" d=" M 715.37 206.38 C 717.59 205.01 719.78 203.61 721.95 202.16 C 731.10 223.44 737.85 245.96 740.54 269.01 C 733.52 272.65 726.65 276.63 720.16 281.18 C 719.08 281.93 717.90 282.52 716.69 283.01 C 717.93 272.05 719.32 261.09 719.36 250.03 C 719.35 235.51 718.97 220.75 715.44 206.60 L 715.37 206.38 Z" />
<path fill="#68913e" opacity="1.00" d=" M 1067.52 298.29 C 1069.90 296.82 1072.04 294.84 1074.78 294.05 C 1065.75 332.53 1052.94 370.37 1033.97 405.14 C 1028.26 402.70 1022.48 400.44 1016.62 398.41 C 1037.08 370.18 1053.21 338.94 1065.30 306.27 C 1066.29 303.78 1067.36 301.25 1067.50 298.54 L 1067.52 298.29 Z" />
<path fill="#68913e" opacity="1.00" d=" M 703.45 329.38 C 715.37 317.83 728.28 307.07 742.72 298.83 C 742.16 322.70 738.06 346.52 730.43 369.16 C 728.75 374.43 725.27 378.83 722.69 383.66 C 712.80 401.41 704.13 419.84 696.95 438.85 C 695.72 442.23 693.88 445.33 691.97 448.35 C 674.93 448.35 657.85 449.90 641.22 453.69 C 640.62 447.72 640.81 441.63 642.73 435.90 C 642.98 436.16 643.48 436.66 643.72 436.91 C 667.17 406.46 687.57 373.35 701.37 337.39 C 702.29 334.79 703.73 332.23 703.45 329.38 Z" />
<path fill="#68913e" opacity="1.00" d=" M 994.81 419.91 C 1003.45 421.88 1011.67 425.31 1019.95 428.43 C 1015.51 436.49 1009.65 443.70 1004.10 451.02 C 995.31 461.96 985.84 472.40 975.24 481.60 C 964.09 475.35 952.18 470.58 940.10 466.47 C 952.60 460.09 963.93 451.64 974.81 442.82 C 982.55 435.99 990.57 429.32 997.11 421.28 C 996.53 420.94 995.38 420.25 994.81 419.91 Z" />
<path fill="#68913e" opacity="1.00" d=" M 893.57 482.79 C 898.90 483.14 904.05 484.63 909.27 485.71 C 923.49 489.07 937.58 493.34 950.88 499.46 C 950.80 499.74 950.64 500.31 950.56 500.59 C 929.60 514.57 905.98 524.29 881.69 530.81 C 876.91 532.04 872.19 533.61 867.24 534.00 C 857.22 521.15 845.47 509.70 832.90 499.36 C 855.33 496.47 877.88 492.43 899.11 484.46 C 897.24 483.91 895.41 483.34 893.57 482.79 Z" />
</g>
<g id="#8ec740ff">
<path fill="#8ec740" opacity="1.00" d=" M 848.42 294.23 C 869.06 283.91 891.23 276.85 913.81 272.23 C 914.91 307.49 905.29 342.94 886.86 372.99 C 879.36 384.80 871.14 396.33 861.09 406.12 C 848.10 414.68 835.57 424.00 822.31 432.09 C 842.09 393.75 851.39 350.10 849.26 307.03 C 849.21 302.75 848.13 298.51 848.42 294.23 Z" />
<path fill="#8ec740" opacity="1.00" d=" M 512.53 298.88 C 530.83 309.76 547.07 323.89 561.31 339.66 C 586.12 367.42 603.66 401.44 612.62 437.53 C 614.54 444.10 614.70 451.19 613.63 457.89 C 595.93 428.14 570.65 403.10 541.59 384.41 C 536.65 381.28 531.53 378.48 526.56 375.41 C 518.39 350.74 512.37 325.00 512.53 298.88 Z" />
<path fill="#8ec740" opacity="1.00" d=" M 796.56 330.57 C 804.81 323.22 812.99 315.57 822.50 309.86 C 823.36 327.03 821.75 344.27 818.64 361.16 C 811.46 398.61 794.31 433.95 769.98 463.27 C 754.32 457.02 737.79 453.16 721.14 450.70 C 738.12 406.32 761.98 363.67 796.56 330.57 Z" />
<path fill="#8ec740" opacity="1.00" d=" M 645.77 425.70 C 656.49 389.42 676.41 355.87 703.45 329.38 C 703.73 332.23 702.29 334.79 701.37 337.39 C 687.57 373.35 667.17 406.46 643.72 436.91 C 643.48 436.66 642.98 436.16 642.73 435.90 C 643.72 432.49 644.78 429.11 645.77 425.70 Z" />
<path fill="#8ec740" opacity="1.00" d=" M 921.55 415.86 C 945.91 411.93 970.96 413.85 994.81 419.91 C 995.38 420.25 996.53 420.94 997.11 421.28 C 990.57 429.32 982.55 435.99 974.81 442.82 C 963.93 451.64 952.60 460.09 940.10 466.47 C 911.81 456.92 881.80 452.85 852.00 453.81 C 847.28 454.31 842.54 454.50 837.81 454.67 C 850.44 445.62 863.47 437.09 876.32 428.35 C 890.64 421.92 906.08 418.25 921.55 415.86 Z" />
<path fill="#8ec740" opacity="1.00" d=" M 813.80 485.47 C 839.93 479.72 867.10 479.06 893.57 482.79 C 895.41 483.34 897.24 483.91 899.11 484.46 C 877.88 492.43 855.33 496.47 832.90 499.36 C 826.78 494.40 820.42 489.74 813.80 485.47 Z" />
</g>
<g id="#1a194eff">
<path fill="#1a194e" opacity="1.00" d=" M 274.52 329.45 C 280.83 324.62 289.35 323.10 297.00 325.04 C 303.65 326.85 309.47 330.87 314.27 335.73 C 322.54 344.21 328.75 354.47 333.95 365.04 C 337.78 364.11 341.36 362.42 345.09 361.18 C 393.12 344.66 446.65 344.71 494.55 361.69 C 499.54 363.68 504.62 365.43 509.57 367.55 C 515.32 369.97 520.73 373.16 526.56 375.41 C 531.53 378.48 536.65 381.28 541.59 384.41 C 570.65 403.10 595.93 428.14 613.63 457.89 C 614.43 459.20 615.41 461.49 617.33 460.33 C 625.14 457.61 633.12 455.41 641.22 453.69 C 657.85 449.90 674.93 448.35 691.97 448.35 C 701.70 449.09 711.45 449.47 721.14 450.70 C 737.79 453.16 754.32 457.02 769.98 463.27 C 785.35 469.06 799.90 476.77 813.80 485.47 C 820.42 489.74 826.78 494.40 832.90 499.36 C 845.47 509.70 857.22 521.15 867.24 534.00 C 873.31 541.59 878.87 549.57 884.04 557.80 C 913.32 605.07 924.07 663.32 913.91 717.95 C 907.23 754.72 891.29 789.74 867.94 818.92 C 844.02 849.01 812.43 872.96 776.93 887.72 C 748.69 899.52 718.03 905.44 687.45 905.24 C 675.42 946.14 651.53 983.44 619.53 1011.59 C 583.49 1043.65 537.01 1063.77 488.95 1067.93 C 483.02 1068.86 476.97 1068.13 471.04 1068.98 C 459.70 1068.59 448.24 1068.40 436.96 1066.69 C 390.94 1060.39 347.12 1039.45 313.16 1007.78 C 288.12 984.59 268.40 955.68 255.91 923.93 C 233.44 867.19 235.10 801.34 260.68 745.90 C 261.00 744.76 262.11 743.62 261.61 742.40 C 233.99 716.05 213.08 682.73 201.50 646.34 C 190.94 612.80 188.01 576.81 193.57 542.07 C 193.82 540.62 193.78 539.17 193.67 537.73 C 182.33 535.56 171.29 531.58 161.35 525.68 C 153.50 520.84 146.21 514.05 143.24 505.08 C 138.19 492.52 144.27 477.51 154.99 469.92 C 164.06 462.86 175.68 460.82 185.80 455.80 C 188.26 454.63 190.77 452.81 191.30 449.96 C 194.18 436.88 195.15 423.37 199.31 410.58 C 202.30 401.56 207.15 392.69 215.09 387.12 C 221.04 382.70 228.59 381.12 235.87 381.03 C 241.24 381.79 246.65 381.07 251.98 380.40 C 254.68 379.88 257.77 378.81 258.84 376.02 C 261.70 368.63 259.53 360.58 261.20 352.99 C 262.86 344.00 267.15 335.12 274.52 329.45 M 287.31 360.98 C 287.47 368.75 286.97 376.67 284.42 384.06 C 281.60 392.17 275.81 399.43 267.90 403.03 C 258.02 407.89 246.76 408.10 235.98 407.82 C 230.46 407.31 227.02 412.46 225.44 417.04 C 220.97 430.51 220.17 444.84 216.68 458.55 C 214.67 466.45 208.99 472.96 202.21 477.26 C 193.49 483.13 182.89 484.97 173.63 489.74 C 171.67 490.75 169.76 492.04 168.62 493.98 C 167.62 497.17 170.70 499.40 172.82 501.18 C 180.90 507.04 190.72 510.12 200.46 511.74 C 217.21 454.78 257.49 405.24 309.67 376.97 C 307.00 370.32 303.03 364.14 298.62 358.48 C 296.16 355.67 293.69 352.34 289.97 351.23 C 288.37 354.24 287.13 357.51 287.31 360.98 M 324.35 399.40 C 286.89 419.34 256.07 451.45 237.63 489.67 C 218.35 529.48 212.42 575.79 222.02 619.05 C 229.60 655.76 248.11 689.98 274.04 716.97 C 274.49 717.26 275.40 717.85 275.86 718.14 C 308.28 666.59 362.26 629.09 421.98 617.00 C 437.83 613.65 454.01 612.34 470.18 612.05 C 475.48 595.64 481.86 579.52 490.54 564.58 C 508.52 532.78 534.31 505.48 564.86 485.48 C 567.77 483.51 570.75 481.63 573.85 479.98 C 578.75 477.00 583.81 474.29 589.01 471.86 C 590.52 471.48 589.75 469.78 589.14 468.98 C 573.36 444.35 552.27 423.14 527.60 407.40 C 498.25 388.44 463.84 377.65 429.00 375.73 C 392.85 374.02 356.23 382.23 324.35 399.40 M 644.53 480.36 C 606.42 488.83 571.21 509.12 544.11 537.13 C 523.38 558.97 506.97 585.23 497.93 614.03 C 503.92 615.10 509.96 615.94 515.92 617.24 C 526.50 618.99 536.65 622.60 546.81 625.91 C 568.47 634.15 589.13 645.24 607.45 659.50 C 656.60 696.97 689.53 755.14 695.47 816.74 L 695.65 816.72 C 696.85 830.11 697.05 843.59 696.25 857.02 C 695.61 864.10 694.53 871.12 693.84 878.19 C 698.94 878.86 704.00 877.50 709.10 877.53 C 723.32 876.24 737.28 872.93 750.92 868.79 C 789.27 856.43 823.71 832.25 848.37 800.38 C 872.87 769.18 887.57 730.53 890.47 691.00 C 890.65 677.96 891.18 664.83 889.40 651.88 C 885.29 620.54 874.01 590.07 856.09 564.00 C 853.80 560.85 852.03 557.15 848.81 554.83 C 848.05 552.61 846.42 550.84 845.00 549.03 C 822.98 522.41 794.24 501.26 761.93 488.90 C 724.84 474.41 683.32 471.23 644.53 480.36 M 378.96 659.95 C 349.86 674.42 324.34 696.03 305.29 722.36 C 282.79 753.29 269.17 790.77 267.30 829.02 C 266.36 840.49 266.59 852.20 268.76 863.52 C 268.27 867.51 269.39 871.45 269.79 875.41 C 273.25 893.31 278.62 910.93 286.65 927.33 C 311.00 978.71 358.13 1018.80 412.90 1034.19 C 427.88 1038.54 443.38 1041.46 459.01 1041.62 C 463.68 1041.68 468.32 1042.69 473.00 1042.09 C 478.32 1041.44 483.70 1041.80 489.02 1041.09 C 528.83 1037.00 567.30 1020.69 597.88 994.85 C 635.56 963.37 661.32 917.73 667.96 869.02 C 671.75 843.07 670.09 816.43 663.95 790.97 C 662.60 786.90 662.01 782.53 659.93 778.74 C 657.25 767.81 652.28 757.57 647.27 747.54 C 630.71 715.85 605.65 688.65 575.32 669.70 C 544.67 650.28 508.62 639.71 472.38 638.92 C 440.18 638.39 407.78 645.51 378.96 659.95 Z" />
<path fill="#1a194e" opacity="1.00" d=" M 729.55 591.52 C 735.53 585.23 744.34 581.96 752.97 582.52 C 763.07 582.50 772.87 587.52 783.01 585.14 C 793.63 582.98 805.35 580.32 815.54 585.48 C 824.60 589.74 830.06 598.77 833.36 607.86 C 836.48 615.36 837.48 623.88 842.61 630.43 C 848.81 638.83 856.01 647.05 858.33 657.54 C 861.53 669.52 856.86 682.07 849.50 691.55 C 845.51 697.30 840.34 702.44 838.08 709.21 C 836.02 715.20 834.53 721.42 831.71 727.13 C 829.37 732.47 826.15 737.33 822.06 741.48 C 816.00 746.67 807.89 749.13 799.96 748.61 C 790.17 748.50 780.70 743.76 770.86 745.88 C 760.42 748.00 749.04 750.75 738.86 746.13 C 730.84 742.92 725.37 735.64 721.91 728.00 C 717.56 718.53 716.46 707.53 709.70 699.24 C 702.15 689.61 693.83 678.88 694.17 665.98 C 693.53 653.01 701.76 642.06 709.38 632.40 C 714.75 626.01 716.70 617.76 719.28 610.03 C 721.44 603.28 724.68 596.74 729.55 591.52 M 749.44 609.51 C 747.56 611.11 746.68 613.52 745.74 615.74 C 742.82 623.22 741.01 631.12 737.38 638.32 C 733.67 645.89 727.61 651.91 723.16 659.00 C 721.89 661.12 720.66 663.47 720.70 666.00 C 721.36 670.07 723.86 673.47 726.26 676.70 C 730.99 683.12 736.37 689.26 739.17 696.85 C 742.11 703.77 743.72 711.19 746.88 718.02 C 747.81 719.60 748.69 722.09 750.98 721.83 C 758.13 721.99 764.94 719.29 772.04 718.78 C 781.13 717.63 790.00 720.44 798.91 721.71 C 801.02 721.73 804.03 722.59 805.24 720.22 C 809.48 713.40 810.58 705.21 813.77 697.91 C 816.83 689.64 822.53 682.80 827.78 675.86 C 830.31 672.19 833.72 667.85 832.13 663.12 C 829.00 655.12 822.32 649.30 818.04 641.97 C 813.41 634.51 811.24 625.93 808.47 617.69 C 807.29 614.78 806.31 611.33 803.59 609.49 C 798.33 608.79 793.20 610.48 788.07 611.36 C 780.73 612.90 773.07 612.92 765.71 611.47 C 760.33 610.60 754.96 608.69 749.44 609.51 Z" />
<path fill="#1a194e" opacity="1.00" d=" M 380.38 749.58 C 392.06 747.86 403.41 751.94 414.96 752.47 C 427.66 751.56 440.57 746.88 453.25 750.60 C 461.66 752.74 468.37 759.07 472.61 766.45 C 478.07 775.32 479.32 786.15 485.26 794.75 C 491.10 802.26 498.15 809.02 502.18 817.77 C 506.55 827.12 506.35 838.40 501.69 847.61 C 497.84 855.08 492.03 861.25 486.68 867.65 C 481.53 873.76 479.64 881.70 476.81 888.99 C 472.89 899.48 465.66 909.72 454.60 913.37 C 441.26 917.73 427.53 912.69 414.07 911.83 C 401.43 912.95 388.67 917.20 376.03 913.88 C 366.50 911.31 359.10 903.73 354.90 895.01 C 349.97 886.20 349.06 875.43 342.29 867.63 C 335.48 859.56 327.84 851.55 324.81 841.16 C 322.19 832.27 323.74 822.46 328.53 814.59 C 332.83 806.56 339.79 800.47 344.92 793.04 C 349.89 784.66 351.17 774.62 356.49 766.38 C 361.30 757.46 370.21 750.78 380.38 749.58 M 383.28 776.31 C 380.44 777.35 379.22 780.47 378.01 783.01 C 375.07 790.11 372.93 797.56 369.32 804.38 C 364.86 813.14 356.99 819.47 351.82 827.74 C 350.05 830.25 349.97 833.72 351.66 836.30 C 355.73 843.05 361.80 848.30 366.21 854.81 C 371.18 861.81 373.77 870.09 376.73 878.05 C 377.94 881.08 379.09 884.28 381.32 886.74 C 383.56 889.05 387.09 888.45 389.98 888.24 C 395.25 887.39 400.55 886.72 405.81 885.76 C 416.60 884.30 427.41 886.32 438.04 888.10 C 441.63 888.52 446.52 889.35 448.67 885.57 C 452.59 878.95 454.42 871.37 457.49 864.36 C 460.50 856.71 466.07 850.51 471.31 844.32 C 473.95 841.13 476.91 837.99 478.31 834.02 C 479.22 831.14 477.68 828.31 476.08 826.03 C 471.28 819.22 465.04 813.49 460.74 806.32 C 456.05 798.38 453.97 789.28 450.03 781.00 C 448.92 778.55 446.98 775.98 444.02 775.98 C 435.87 775.54 428.07 778.49 419.98 778.82 C 411.26 779.93 402.55 778.08 393.99 776.64 C 390.46 776.13 386.81 775.45 383.28 776.31 Z" />
</g>
<g id="#656bb1ff">
<path fill="#656bb1" opacity="1.00" d=" M 287.31 360.98 C 287.13 357.51 288.37 354.24 289.97 351.23 C 293.69 352.34 296.16 355.67 298.62 358.48 C 303.03 364.14 307.00 370.32 309.67 376.97 C 257.49 405.24 217.21 454.78 200.46 511.74 C 190.72 510.12 180.90 507.04 172.82 501.18 C 170.70 499.40 167.62 497.17 168.62 493.98 C 169.76 492.04 171.67 490.75 173.63 489.74 C 182.89 484.97 193.49 483.13 202.21 477.26 C 208.99 472.96 214.67 466.45 216.68 458.55 C 220.17 444.84 220.97 430.51 225.44 417.04 C 227.02 412.46 230.46 407.31 235.98 407.82 C 246.76 408.10 258.02 407.89 267.90 403.03 C 275.81 399.43 281.60 392.17 284.42 384.06 C 286.97 376.67 287.47 368.75 287.31 360.98 Z" />
<path fill="#656bb1" opacity="1.00" d=" M 324.35 399.40 C 356.23 382.23 392.85 374.02 429.00 375.73 C 463.84 377.65 498.25 388.44 527.60 407.40 C 552.27 423.14 573.36 444.35 589.14 468.98 C 589.75 469.78 590.52 471.48 589.01 471.86 C 583.81 474.29 578.75 477.00 573.85 479.98 C 566.54 466.95 556.52 455.58 545.88 445.16 C 514.73 414.90 472.40 396.67 429.07 394.36 C 417.37 394.22 405.60 393.93 394.01 395.88 C 353.41 401.34 314.99 421.07 286.80 450.77 C 261.80 476.81 244.77 510.44 238.79 546.05 C 232.44 581.62 237.51 618.78 251.76 651.87 C 251.48 644.83 249.33 638.04 248.64 631.05 C 246.33 611.38 247.29 591.40 251.07 571.97 C 258.22 537.56 275.54 505.32 300.38 480.44 C 317.55 463.05 338.28 449.22 360.89 439.97 C 358.81 446.88 358.88 454.74 363.24 460.80 C 371.03 471.84 384.00 477.69 396.59 481.42 C 420.39 487.87 446.02 487.73 469.66 480.64 C 481.74 476.53 494.40 470.60 501.29 459.30 C 504.55 454.05 504.23 447.77 503.62 441.90 C 526.92 451.70 547.53 467.19 564.86 485.48 C 534.31 505.48 508.52 532.78 490.54 564.58 C 481.86 579.52 475.48 595.64 470.18 612.05 C 454.01 612.34 437.83 613.65 421.98 617.00 C 362.26 629.09 308.28 666.59 275.86 718.14 C 275.40 717.85 274.49 717.26 274.04 716.97 C 248.11 689.98 229.60 655.76 222.02 619.05 C 212.42 575.79 218.35 529.48 237.63 489.67 C 256.07 451.45 286.89 419.34 324.35 399.40 M 410.33 516.42 C 406.11 517.23 401.99 518.96 398.87 521.97 C 396.66 524.29 395.63 528.01 397.18 530.97 C 398.78 533.89 401.61 535.99 404.66 537.25 C 412.09 540.34 420.59 540.59 428.32 538.45 C 432.74 537.15 437.26 534.77 439.49 530.54 C 440.04 527.74 440.17 524.29 437.71 522.32 C 430.62 515.42 419.59 514.66 410.33 516.42 Z" />
<path fill="#656bb1" opacity="1.00" d=" M 644.53 480.36 C 683.32 471.23 724.84 474.41 761.93 488.90 C 794.24 501.26 822.98 522.41 845.00 549.03 C 846.42 550.84 848.05 552.61 848.81 554.83 C 852.27 565.42 855.99 575.97 857.98 586.98 C 862.54 608.64 862.99 631.09 859.99 652.99 C 859.84 654.63 859.10 656.11 858.33 657.54 C 856.01 647.05 848.81 638.83 842.61 630.43 C 837.48 623.88 836.48 615.36 833.36 607.86 C 830.06 598.77 824.60 589.74 815.54 585.48 C 805.35 580.32 793.63 582.98 783.01 585.14 C 772.87 587.52 763.07 582.50 752.97 582.52 C 744.34 581.96 735.53 585.23 729.55 591.52 C 724.68 596.74 721.44 603.28 719.28 610.03 C 716.70 617.76 714.75 626.01 709.38 632.40 C 701.76 642.06 693.53 653.01 694.17 665.98 C 693.83 678.88 702.15 689.61 709.70 699.24 C 716.46 707.53 717.56 718.53 721.91 728.00 C 725.37 735.64 730.84 742.92 738.86 746.13 C 749.04 750.75 760.42 748.00 770.86 745.88 C 780.70 743.76 790.17 748.50 799.96 748.61 C 807.89 749.13 816.00 746.67 822.06 741.48 C 821.24 744.78 818.80 747.20 816.64 749.68 C 786.43 785.93 742.43 810.36 695.65 816.72 L 695.47 816.74 C 689.53 755.14 656.60 696.97 607.45 659.50 C 589.13 645.24 568.47 634.15 546.81 625.91 C 547.31 625.89 548.31 625.86 548.82 625.84 C 556.34 607.57 566.52 590.37 579.33 575.31 C 584.97 568.79 590.70 562.19 597.54 556.91 C 600.44 563.73 606.66 568.61 613.84 570.26 C 629.50 574.05 645.82 569.07 659.59 561.54 C 672.10 554.13 684.10 543.50 688.04 528.99 C 689.72 523.56 688.38 517.97 686.59 512.78 C 716.75 506.77 748.39 509.11 777.62 518.50 C 782.97 520.01 787.97 522.51 793.31 524.03 C 788.49 519.84 782.68 517.05 777.21 513.83 C 750.56 499.45 720.34 491.76 690.06 491.62 C 657.69 491.62 625.25 499.88 597.21 516.17 C 558.84 537.97 528.98 574.04 514.37 615.65 C 514.76 616.05 515.53 616.84 515.92 617.24 C 509.96 615.94 503.92 615.10 497.93 614.03 C 506.97 585.23 523.38 558.97 544.11 537.13 C 571.21 509.12 606.42 488.83 644.53 480.36 Z" />
<path fill="#656bb1" opacity="1.00" d=" M 378.96 659.95 C 407.78 645.51 440.18 638.39 472.38 638.92 C 508.62 639.71 544.67 650.28 575.32 669.70 C 605.65 688.65 630.71 715.85 647.27 747.54 C 652.28 757.57 657.25 767.81 659.93 778.74 C 661.99 798.43 662.20 818.43 658.74 837.98 C 650.46 890.74 619.53 939.28 575.70 969.68 C 549.78 987.94 519.38 999.73 487.97 1003.97 C 474.41 1005.99 460.66 1005.53 447.00 1005.24 C 415.90 1003.13 385.29 993.57 358.58 977.49 C 321.09 955.23 291.17 920.41 275.11 879.85 C 272.74 874.50 271.40 868.75 268.76 863.52 C 266.59 852.20 266.36 840.49 267.30 829.02 C 269.17 790.77 282.79 753.29 305.29 722.36 C 324.34 696.03 349.86 674.42 378.96 659.95 M 405.39 670.46 C 375.22 681.59 348.18 701.01 327.90 725.95 C 304.08 754.94 289.84 791.55 287.45 828.96 C 287.46 839.62 286.77 850.37 288.31 860.97 C 289.75 876.03 293.90 890.69 298.72 904.98 C 298.90 899.61 298.16 894.27 297.80 888.93 C 295.62 842.35 312.30 795.18 343.53 760.51 C 369.54 731.12 405.38 710.58 443.93 703.16 C 444.38 710.61 448.06 717.46 453.53 722.45 C 464.56 733.29 479.06 739.84 493.64 744.44 C 512.75 750.37 533.13 752.87 553.00 750.00 C 562.42 748.17 572.49 745.46 579.25 738.18 C 580.79 736.71 581.28 734.30 582.99 733.07 C 584.74 733.88 586.24 735.13 587.79 736.29 C 614.57 756.56 635.88 784.31 647.62 815.84 C 647.86 809.76 645.89 803.91 644.77 798.00 C 636.98 765.50 620.00 735.26 596.18 711.82 C 571.19 686.88 538.72 669.46 504.04 662.74 C 471.28 656.28 436.70 658.75 405.39 670.46 M 380.38 749.58 C 370.21 750.78 361.30 757.46 356.49 766.38 C 351.17 774.62 349.89 784.66 344.92 793.04 C 339.79 800.47 332.83 806.56 328.53 814.59 C 323.74 822.46 322.19 832.27 324.81 841.16 C 327.84 851.55 335.48 859.56 342.29 867.63 C 349.06 875.43 349.97 886.20 354.90 895.01 C 359.10 903.73 366.50 911.31 376.03 913.88 C 388.67 917.20 401.43 912.95 414.07 911.83 C 427.53 912.69 441.26 917.73 454.60 913.37 C 465.66 909.72 472.89 899.48 476.81 888.99 C 479.64 881.70 481.53 873.76 486.68 867.65 C 492.03 861.25 497.84 855.08 501.69 847.61 C 506.35 838.40 506.55 827.12 502.18 817.77 C 498.15 809.02 491.10 802.26 485.26 794.75 C 479.32 786.15 478.07 775.32 472.61 766.45 C 468.37 759.07 461.66 752.74 453.25 750.60 C 440.57 746.88 427.66 751.56 414.96 752.47 C 403.41 751.94 392.06 747.86 380.38 749.58 Z" />
</g>
<g id="#a1a1d0ff">
<path fill="#a1a1d0" opacity="1.00" d=" M 394.01 395.88 C 405.60 393.93 417.37 394.22 429.07 394.36 C 472.40 396.67 514.73 414.90 545.88 445.16 C 556.52 455.58 566.54 466.95 573.85 479.98 C 570.75 481.63 567.77 483.51 564.86 485.48 C 547.53 467.19 526.92 451.70 503.62 441.90 C 504.23 447.77 504.55 454.05 501.29 459.30 C 494.40 470.60 481.74 476.53 469.66 480.64 C 446.02 487.73 420.39 487.87 396.59 481.42 C 384.00 477.69 371.03 471.84 363.24 460.80 C 358.88 454.74 358.81 446.88 360.89 439.97 C 338.28 449.22 317.55 463.05 300.38 480.44 C 275.54 505.32 258.22 537.56 251.07 571.97 C 247.29 591.40 246.33 611.38 248.64 631.05 C 249.33 638.04 251.48 644.83 251.76 651.87 C 237.51 618.78 232.44 581.62 238.79 546.05 C 244.77 510.44 261.80 476.81 286.80 450.77 C 314.99 421.07 353.41 401.34 394.01 395.88 Z" />
<path fill="#a1a1d0" opacity="1.00" d=" M 597.21 516.17 C 625.25 499.88 657.69 491.62 690.06 491.62 C 720.34 491.76 750.56 499.45 777.21 513.83 C 782.68 517.05 788.49 519.84 793.31 524.03 C 787.97 522.51 782.97 520.01 777.62 518.50 C 748.39 509.11 716.75 506.77 686.59 512.78 C 688.38 517.97 689.72 523.56 688.04 528.99 C 684.10 543.50 672.10 554.13 659.59 561.54 C 645.82 569.07 629.50 574.05 613.84 570.26 C 606.66 568.61 600.44 563.73 597.54 556.91 C 590.70 562.19 584.97 568.79 579.33 575.31 C 566.52 590.37 556.34 607.57 548.82 625.84 C 548.31 625.86 547.31 625.89 546.81 625.91 C 536.65 622.60 526.50 618.99 515.92 617.24 C 515.53 616.84 514.76 616.05 514.37 615.65 C 528.98 574.04 558.84 537.97 597.21 516.17 Z" />
<path fill="#a1a1d0" opacity="1.00" d=" M 410.33 516.42 C 419.59 514.66 430.62 515.42 437.71 522.32 C 440.17 524.29 440.04 527.74 439.49 530.54 C 437.26 534.77 432.74 537.15 428.32 538.45 C 420.59 540.59 412.09 540.34 404.66 537.25 C 401.61 535.99 398.78 533.89 397.18 530.97 C 395.63 528.01 396.66 524.29 398.87 521.97 C 401.99 518.96 406.11 517.23 410.33 516.42 Z" />
<path fill="#a1a1d0" opacity="1.00" d=" M 405.39 670.46 C 436.70 658.75 471.28 656.28 504.04 662.74 C 538.72 669.46 571.19 686.88 596.18 711.82 C 620.00 735.26 636.98 765.50 644.77 798.00 C 645.89 803.91 647.86 809.76 647.62 815.84 C 635.88 784.31 614.57 756.56 587.79 736.29 C 586.24 735.13 584.74 733.88 582.99 733.07 C 581.28 734.30 580.79 736.71 579.25 738.18 C 572.49 745.46 562.42 748.17 553.00 750.00 C 533.13 752.87 512.75 750.37 493.64 744.44 C 479.06 739.84 464.56 733.29 453.53 722.45 C 448.06 717.46 444.38 710.61 443.93 703.16 C 405.38 710.58 369.54 731.12 343.53 760.51 C 312.30 795.18 295.62 842.35 297.80 888.93 C 298.16 894.27 298.90 899.61 298.72 904.98 C 293.90 890.69 289.75 876.03 288.31 860.97 C 286.77 850.37 287.46 839.62 287.45 828.96 C 289.84 791.55 304.08 754.94 327.90 725.95 C 348.18 701.01 375.22 681.59 405.39 670.46 Z" />
</g>
<g id="#3c469dff">
<path fill="#3c469d" opacity="1.00" d=" M 848.81 554.83 C 852.03 557.15 853.80 560.85 856.09 564.00 C 874.01 590.07 885.29 620.54 889.40 651.88 C 891.18 664.83 890.65 677.96 890.47 691.00 C 887.57 730.53 872.87 769.18 848.37 800.38 C 823.71 832.25 789.27 856.43 750.92 868.79 C 737.28 872.93 723.32 876.24 709.10 877.53 C 704.00 877.50 698.94 878.86 693.84 878.19 C 694.53 871.12 695.61 864.10 696.25 857.02 C 697.05 843.59 696.85 830.11 695.65 816.72 C 742.43 810.36 786.43 785.93 816.64 749.68 C 818.80 747.20 821.24 744.78 822.06 741.48 C 826.15 737.33 829.37 732.47 831.71 727.13 C 831.99 727.27 832.55 727.56 832.83 727.70 C 838.83 717.48 844.40 706.97 848.71 695.92 C 849.26 694.52 849.39 693.02 849.50 691.55 C 856.86 682.07 861.53 669.52 858.33 657.54 C 859.10 656.11 859.84 654.63 859.99 652.99 C 862.99 631.09 862.54 608.64 857.98 586.98 C 855.99 575.97 852.27 565.42 848.81 554.83 Z" />
<path fill="#3c469d" opacity="1.00" d=" M 749.44 609.51 C 754.96 608.69 760.33 610.60 765.71 611.47 C 773.07 612.92 780.73 612.90 788.07 611.36 C 793.20 610.48 798.33 608.79 803.59 609.49 C 806.31 611.33 807.29 614.78 808.47 617.69 C 811.24 625.93 813.41 634.51 818.04 641.97 C 822.32 649.30 829.00 655.12 832.13 663.12 C 833.72 667.85 830.31 672.19 827.78 675.86 C 822.53 682.80 816.83 689.64 813.77 697.91 C 810.58 705.21 809.48 713.40 805.24 720.22 C 804.03 722.59 801.02 721.73 798.91 721.71 C 790.00 720.44 781.13 717.63 772.04 718.78 C 764.94 719.29 758.13 721.99 750.98 721.83 C 748.69 722.09 747.81 719.60 746.88 718.02 C 743.72 711.19 742.11 703.77 739.17 696.85 C 736.37 689.26 730.99 683.12 726.26 676.70 C 723.86 673.47 721.36 670.07 720.70 666.00 C 720.66 663.47 721.89 661.12 723.16 659.00 C 727.61 651.91 733.67 645.89 737.38 638.32 C 741.01 631.12 742.82 623.22 745.74 615.74 C 746.68 613.52 747.56 611.11 749.44 609.51 Z" />
<path fill="#3c469d" opacity="1.00" d=" M 383.28 776.31 C 386.81 775.45 390.46 776.13 393.99 776.64 C 402.55 778.08 411.26 779.93 419.98 778.82 C 428.07 778.49 435.87 775.54 444.02 775.98 C 446.98 775.98 448.92 778.55 450.03 781.00 C 453.97 789.28 456.05 798.38 460.74 806.32 C 465.04 813.49 471.28 819.22 476.08 826.03 C 477.68 828.31 479.22 831.14 478.31 834.02 C 476.91 837.99 473.95 841.13 471.31 844.32 C 466.07 850.51 460.50 856.71 457.49 864.36 C 454.42 871.37 452.59 878.95 448.67 885.57 C 446.52 889.35 441.63 888.52 438.04 888.10 C 427.41 886.32 416.60 884.30 405.81 885.76 C 400.55 886.72 395.25 887.39 389.98 888.24 C 387.09 888.45 383.56 889.05 381.32 886.74 C 379.09 884.28 377.94 881.08 376.73 878.05 C 373.77 870.09 371.18 861.81 366.21 854.81 C 361.80 848.30 355.73 843.05 351.66 836.30 C 349.97 833.72 350.05 830.25 351.82 827.74 C 356.99 819.47 364.86 813.14 369.32 804.38 C 372.93 797.56 375.07 790.11 378.01 783.01 C 379.22 780.47 380.44 777.35 383.28 776.31 Z" />
<path fill="#3c469d" opacity="1.00" d=" M 659.93 778.74 C 662.01 782.53 662.60 786.90 663.95 790.97 C 670.09 816.43 671.75 843.07 667.96 869.02 C 661.32 917.73 635.56 963.37 597.88 994.85 C 567.30 1020.69 528.83 1037.00 489.02 1041.09 C 483.70 1041.80 478.32 1041.44 473.00 1042.09 C 468.32 1042.69 463.68 1041.68 459.01 1041.62 C 443.38 1041.46 427.88 1038.54 412.90 1034.19 C 358.13 1018.80 311.00 978.71 286.65 927.33 C 278.62 910.93 273.25 893.31 269.79 875.41 C 269.39 871.45 268.27 867.51 268.76 863.52 C 271.40 868.75 272.74 874.50 275.11 879.85 C 291.17 920.41 321.09 955.23 358.58 977.49 C 385.29 993.57 415.90 1003.13 447.00 1005.24 C 460.66 1005.53 474.41 1005.99 487.97 1003.97 C 519.38 999.73 549.78 987.94 575.70 969.68 C 619.53 939.28 650.46 890.74 658.74 837.98 C 662.20 818.43 661.99 798.43 659.93 778.74 Z" />
</g>
<g id="#656cb2ff">
<path fill="#656cb2" opacity="1.00" d=" M 849.50 691.55 C 849.39 693.02 849.26 694.52 848.71 695.92 C 844.40 706.97 838.83 717.48 832.83 727.70 C 832.55 727.56 831.99 727.27 831.71 727.13 C 834.53 721.42 836.02 715.20 838.08 709.21 C 840.34 702.44 845.51 697.30 849.50 691.55 Z" />
</g>
</svg>
