<svg width="295" height="295" viewBox="0 0 295 295" fill="none" xmlns="http://www.w3.org/2000/svg">
<rect width="295" height="295" fill="white"/>
<path fill-rule="evenodd" clip-rule="evenodd" d="M147.5 219.844C187.455 219.844 219.844 187.455 219.844 147.5C219.844 115.352 198.875 88.1022 169.869 78.6807V150.352H169.864C169.867 150.536 169.869 150.721 169.869 150.907C169.869 168.765 155.392 183.241 137.534 183.241C119.676 183.241 105.2 168.765 105.2 150.907C105.2 133.049 119.676 118.572 137.534 118.572C144.342 118.572 150.658 120.676 155.869 124.269V75.635C153.123 75.3188 150.331 75.1562 147.5 75.1562C107.546 75.1562 75.1562 107.546 75.1562 147.5C75.1562 187.455 107.546 219.844 147.5 219.844ZM119.2 150.907C119.2 161.033 127.408 169.241 137.534 169.241C147.66 169.241 155.869 161.033 155.869 150.907C155.869 140.781 147.66 132.572 137.534 132.572C127.408 132.572 119.2 140.781 119.2 150.907ZM192.148 157.755C192.148 157.015 192.418 156.375 192.956 155.837C193.508 155.299 194.161 155.029 194.915 155.029C195.695 155.029 196.342 155.292 196.853 155.817C197.378 156.328 197.641 156.974 197.641 157.755C197.641 158.536 197.378 159.196 196.853 159.734C196.328 160.259 195.682 160.521 194.915 160.521C194.161 160.521 193.508 160.252 192.956 159.714C192.418 159.162 192.148 158.509 192.148 157.755ZM191.895 161.543V182.192H197.895V161.543H191.895ZM199.201 161.543H201.655V155.678H207.155V161.543H209.603V167.543H207.155V173.372C207.155 174.996 208.387 176.312 209.906 176.312V182.191C205.349 182.191 201.655 178.243 201.655 173.372V167.543H199.201V161.543ZM178.665 176.191C175.499 176.191 172.933 173.625 172.933 170.459C172.933 167.293 175.499 164.727 178.665 164.727C181.831 164.727 184.397 167.293 184.397 170.459C184.397 173.625 181.831 176.191 178.665 176.191ZM166.933 170.459C166.933 163.979 172.185 158.727 178.665 158.727C185.145 158.727 190.397 163.979 190.397 170.459C190.397 176.939 185.145 182.191 178.665 182.191C172.185 182.191 166.933 176.939 166.933 170.459Z" fill="#CD1738"/>
</svg>
