<?xml version="1.0" encoding="UTF-8"?>
<svg version="1.1" xmlns="http://www.w3.org/2000/svg" width="512" height="512">
<path d="M0 0 C168.96 0 337.92 0 512 0 C512 168.96 512 337.92 512 512 C343.04 512 174.08 512 0 512 C0 343.04 0 174.08 0 0 Z " fill="#111D29" transform="translate(0,0)"/>
<path d="M0 0 C0.98742187 0.54527344 1.97484375 1.09054688 2.9921875 1.65234375 C10.34188015 6.0089007 16.37774776 11.60273025 22.47607422 17.52294922 C23.85842925 18.86278388 25.25834897 20.18443714 26.66015625 21.50390625 C38.2090596 32.61354862 46.88034097 45.65056994 55.79760742 58.87792969 C64.04792798 71.09146765 72.83097438 82.33134017 83 93 C84.18335938 94.28003906 84.18335938 94.28003906 85.390625 95.5859375 C103.55109857 114.64842134 129.39953068 129.42685397 156 131 C156.71929687 131.05285156 157.43859375 131.10570312 158.1796875 131.16015625 C172.71732223 131.7230613 187.37218315 127.87460011 199.765625 120.3125 C202 119 202 119 204 119 C203.41566351 123.44930498 201.62316089 126.87885712 199.375 130.6875 C199.0138208 131.30326904 198.6526416 131.91903809 198.28051758 132.5534668 C197.19935922 134.37675009 196.10267599 136.18966699 195 138 C194.15888672 139.39605469 194.15888672 139.39605469 193.30078125 140.8203125 C181.22839316 159.46966747 157.90278441 170.21417731 137 175 C112.38848158 180.00127112 86.36688576 171.75863711 65.796875 158.3046875 C54.41587254 150.60656363 44.69402007 141.69402007 35 132 C34.17242187 131.20722656 33.34484375 130.41445313 32.4921875 129.59765625 C25.75558118 123.07219729 19.97853904 116.11839172 14.2890625 108.67382812 C10.96756015 104.36090765 7.49999482 100.1684623 4 96 C3.29488281 95.15824219 2.58976562 94.31648438 1.86328125 93.44921875 C-10.96974512 78.63479154 -28.36784162 65.08333914 -48.58203125 63.58984375 C-61.64999093 63.00517975 -72.74025515 65.40600802 -82.9921875 74.03125 C-87.12881928 78.08740256 -91.15039855 82.45119566 -93 88 C-93.66 88 -94.32 88 -95 88 C-95 89.32 -95 90.64 -95 92 C-95.66 92 -96.32 92 -97 92 C-99.14965553 82.98226264 -100.65900539 74.26702993 -101 65 C-101.03254883 64.27619141 -101.06509766 63.55238281 -101.09863281 62.80664062 C-101.93228731 42.51262718 -96.4410231 23.69667018 -82.984375 8.1015625 C-59.24230032 -17.0426032 -28.46359181 -16.01566037 0 0 Z " fill="#68CEFB" transform="translate(197,201)"/>
<path d="M0 0 C1.79630859 0.67095703 1.79630859 0.67095703 3.62890625 1.35546875 C38.58085072 15.41919614 61.37450708 46.10536108 81.3671875 76.51660156 C88.91980234 88.00362281 96.69938639 98.85019993 106 109 C106.6801416 109.74805908 106.6801416 109.74805908 107.37402344 110.51123047 C121.03431099 125.36392442 138.83207212 137.59694574 159.44140625 139.28125 C170.70742201 139.57804954 180.12247648 137.30459596 190 132 C190.66 132 191.32 132 192 132 C192.63963318 148.38171645 188.17514926 161.00432792 177.41796875 173.52734375 C165.92238223 185.28292738 150.50222552 191.20655639 134.25 191.4375 C114.10158544 191.28124527 95.80034009 183.10064855 80 171 C79.05511719 170.278125 78.11023438 169.55625 77.13671875 168.8125 C59.04886919 154.48549044 45.58260274 136.18731193 33.0625 117 C24.69091182 104.34134852 14.86315855 92.59157959 4 82 C3.15695313 81.071875 3.15695313 81.071875 2.296875 80.125 C-13.28158467 63.47626448 -36.48708524 49.87189794 -59.55859375 48.625 C-79.44301334 48.00029877 -96.59439649 52.76391297 -112.328125 65.421875 C-114.22444626 67.09366817 -114.22444626 67.09366817 -116 70 C-116.66 69.67 -117.32 69.34 -118 69 C-110.54471717 52.59602965 -102.672866 37.8479342 -91 24 C-90.44957031 23.29230469 -89.89914063 22.58460938 -89.33203125 21.85546875 C-84.72181153 16.12828368 -79.2781196 12.72104607 -73 9 C-71.74959323 8.14642891 -70.49955599 7.29231608 -69.25 6.4375 C-49.23417254 -6.00031871 -21.93207999 -8.2661165 0 0 Z " fill="#68CEFB" transform="translate(224,130)"/>
<path d="M0 0 C13.21776309 9.6310892 23.16625367 22.03982157 32.78125 35.12109375 C35.8571311 39.11215778 39.22727705 42.78439368 42.65625 46.47265625 C44.69695207 48.67321331 46.67150118 50.90989797 48.625 53.1875 C72.15752794 80.11309011 104.98758226 99.92211794 141 103 C146.77075789 103.25456493 152.34990224 102.85921245 158.0625 102.0625 C159.38671875 101.88671875 160.7109375 101.7109375 162.03515625 101.53515625 C162.67855957 101.44766113 163.32196289 101.36016602 163.98486328 101.27001953 C167.32032185 100.82308263 170.66022268 100.41328348 174 100 C171.91526553 104.16946894 165.99443573 105.92490896 162 108 C161.40703125 108.31275879 160.8140625 108.62551758 160.203125 108.94775391 C121.81830815 129.13808693 78.70818279 135.11329232 36.84716797 122.34326172 C11.02958932 114.09865017 -10.16899947 100.41450049 -30 82 C-30.59296875 81.46117187 -31.1859375 80.92234375 -31.796875 80.3671875 C-43.0411281 69.71191909 -51.42373455 56.39224618 -59 43 C-59.3913916 42.33170166 -59.7827832 41.66340332 -60.18603516 40.97485352 C-62.85434056 36.13314164 -63.64556859 32.19062562 -63.5 26.6875 C-63.48791504 25.94765869 -63.47583008 25.20781738 -63.46337891 24.44555664 C-63.11254731 14.68074394 -59.92881787 6.03683953 -53 -1 C-36.76443791 -14.7114152 -16.67306833 -11.28209354 0 0 Z " fill="#68CEFB" transform="translate(173,285)"/>
<path d="M0 0 C1.19753906 -0.00128906 2.39507812 -0.00257812 3.62890625 -0.00390625 C4.87285156 -0.00003906 6.11679688 0.00382812 7.3984375 0.0078125 C8.61917969 0.00394531 9.83992188 0.00007813 11.09765625 -0.00390625 C18.37936713 0.00388168 25.53661096 0.31674087 32.7734375 1.1328125 C32.7734375 1.7928125 32.7734375 2.4528125 32.7734375 3.1328125 C33.6603125 3.1946875 34.5471875 3.2565625 35.4609375 3.3203125 C56.3652475 6.455959 75.99069131 22.09484589 90.7734375 36.1328125 C91.73121094 37.03773438 92.68898438 37.94265625 93.67578125 38.875 C101.15178495 46.06900453 107.57459333 53.82724371 113.7734375 62.1328125 C114.24168945 62.75623535 114.70994141 63.3796582 115.19238281 64.02197266 C119.94350836 70.36166472 124.56812135 76.74585269 128.8984375 83.3828125 C138.13274782 97.40388776 149.41592908 111.52949615 166.05859375 116.67578125 C172.22222372 117.71339953 178.54784265 117.3390592 184.7734375 117.1328125 C185.25569081 119.3196341 185.73409333 121.50730505 186.2109375 123.6953125 C186.47777344 124.91347656 186.74460937 126.13164062 187.01953125 127.38671875 C187.73899666 130.96167902 188.29216137 134.51894439 188.7734375 138.1328125 C188.89847656 138.8546875 189.02351562 139.5765625 189.15234375 140.3203125 C189.48100441 143.56496244 189.32228538 145.41463921 187.3046875 148.0546875 C178.15660431 156.54933618 168.03427147 158.63030452 155.94921875 158.41015625 C150.11242118 158.1437024 145.08666564 156.50664972 139.7734375 154.1328125 C138.87367188 153.73191406 137.97390625 153.33101562 137.046875 152.91796875 C128.95184067 148.89378021 122.42183916 143.15728372 115.7734375 137.1328125 C114.71189453 136.19695312 114.71189453 136.19695312 113.62890625 135.2421875 C102.08075673 124.44770668 93.31702414 110.32997568 84.7734375 97.1328125 C76.18769882 83.90567449 67.11839301 71.22750171 56.24609375 59.78125 C54.4765441 57.88590298 52.81480199 56.00070581 51.17578125 54 C33.92038956 33.40576016 5.41735189 17.87196109 -21.2265625 15.1328125 C-27.88569708 14.60475913 -34.55046053 14.33118028 -41.2265625 14.1328125 C-38.22156323 10.84452707 -34.84941647 9.65057809 -30.7265625 8.1953125 C-30.01330811 7.93661377 -29.30005371 7.67791504 -28.56518555 7.41137695 C-27.12716795 6.89041703 -25.68796639 6.3727128 -24.24755859 5.85839844 C-21.5013773 4.87245367 -18.77213042 3.84195044 -16.0390625 2.8203125 C-10.62362617 0.79911816 -5.7903297 0.00606499 0 0 Z " fill="#68CEFB" transform="translate(227.2265625,99.8671875)"/>
<path d="M0 0 C0.95003906 0.41378906 1.90007812 0.82757813 2.87890625 1.25390625 C29.78397064 13.86458139 48.36104645 38.66129129 64.25 62.875 C73.19204081 76.49725824 83.45741603 88.49507536 95 100 C95.5878125 100.62261719 96.175625 101.24523437 96.78125 101.88671875 C114.09024183 120.02182155 136.88705252 132.25187761 161.2890625 137.203125 C165 138 165 138 167 139 C169.204364 139.22950319 171.41392173 139.41075933 173.625 139.5625 C174.81351563 139.64628906 176.00203125 139.73007812 177.2265625 139.81640625 C178.14179688 139.87699219 179.05703125 139.93757812 180 140 C165.55951195 151.49890715 146.6774848 152.57327803 129 151 C97.00227358 145.84716951 68.06520527 117.68875503 49 93 C42.58870223 84.74170695 36.17061422 76.62546661 29 69 C28.3915625 68.32710938 27.783125 67.65421875 27.15625 66.9609375 C12.94920673 51.85090419 -8.07597824 40.25444028 -28.90234375 38.796875 C-41.83210658 38.59718754 -53.52780736 40.96576978 -65 47 C-63.73115644 31.2663398 -57.84913876 16.43060486 -45.61328125 5.95703125 C-43.14468628 4.13949429 -40.65108274 2.53762799 -38 1 C-37.26523438 0.56558594 -36.53046875 0.13117188 -35.7734375 -0.31640625 C-25.38465587 -5.4393965 -10.43560326 -4.60138912 0 0 Z " fill="#2368A4" transform="translate(177,209)"/>
<path d="M0 0 C21.91477255 16.20920704 38.2521099 37.60870357 52.49316406 60.59790039 C70.67542498 89.84297271 95.87544107 117.77335667 130.02734375 127.57421875 C137.82566353 129.0140366 145.77563632 129.09223602 153.6875 129.25 C150.35257038 134.04658826 147.39646398 137.99870352 142.3125 141.0625 C141.43851563 141.60519531 140.56453125 142.14789063 139.6640625 142.70703125 C132.18427568 146.58434856 126.01644057 147.80449648 117.5625 147.75 C116.54639648 147.74500488 115.53029297 147.74000977 114.48339844 147.73486328 C105.99331561 147.53902141 99.36019415 146.03626422 91.6875 142.25 C90.74132812 141.80398438 89.79515625 141.35796875 88.8203125 140.8984375 C72.50901407 132.62726918 58.75635765 119.6218205 47.6875 105.25 C46.91019531 104.27675781 46.13289062 103.30351562 45.33203125 102.30078125 C40.46841008 96.13813249 35.99983123 89.81021203 31.6875 83.25 C8.84961681 48.55280022 -20.5572266 18.96116602 -61.3125 7.25 C-62.64667969 6.86521484 -62.64667969 6.86521484 -64.0078125 6.47265625 C-72.52756605 4.43919591 -81.59621847 4.59006026 -90.3125 4.25 C-90.3125 3.59 -90.3125 2.93 -90.3125 2.25 C-88.23781576 0.70837332 -86.1837774 -0.69053157 -84 -2.0625 C-83.3620752 -2.46549316 -82.72415039 -2.86848633 -82.06689453 -3.28369141 C-55.40123199 -19.83226428 -25.47923264 -18.09180549 0 0 Z " fill="#246CAA" transform="translate(240.3125,156.75)"/>
<path d="M0 0 C17.08925789 5.76666662 29.22426468 20.30878876 39.8125 34.25 C53.70226613 52.52784663 69.34670521 69.50554146 88 83 C88.54076172 83.39622559 89.08152344 83.79245117 89.63867188 84.20068359 C99.77070063 91.58684741 110.39094073 98.20942617 122 103 C122 103.33 122 103.66 122 104 C96.09751714 109.87427645 66.3335313 102.455831 43 91 C42.36078613 90.69191406 41.72157227 90.38382812 41.06298828 90.06640625 C27.35600536 83.39459027 16.08225601 74.44898423 5 64 C4.26394531 63.32839844 3.52789062 62.65679687 2.76953125 61.96484375 C-7.75045079 52.00344482 -24.11402541 33.70346354 -24.8125 18.5 C-24.12755939 12.23015902 -21.66565236 7.17212825 -16.875 3.0625 C-11.39675079 -0.86754835 -6.6285685 -0.86944228 0 0 Z " fill="#215E93" transform="translate(150,292)"/>
<path d="M0 0 C5.69708697 0.54681862 10.63883152 1.65186696 16 3.625 C17.0969519 4.02259521 17.0969519 4.02259521 18.21606445 4.42822266 C59.38266069 19.59975216 94.779064 47.89990821 113.5625 88.25 C118.98314922 100.06837047 118.98314922 100.06837047 120 106 C108.66389247 106.62210346 102.81124476 105.38354379 94.1875 98.125 C85.45215377 89.95322449 78.65689964 80.16662067 72.1484375 70.19140625 C54.77409624 44.38261205 33.56973059 19.58415837 5.8984375 4.69140625 C3.48060353 3.28046001 1.80848394 2.0970718 0 0 Z " fill="#67CCF9" transform="translate(288,100)"/>
<path d="M0 0 C30.40151682 8.21662617 54.48150021 40.81306504 70.87109375 65.859375 C83.42790941 84.38355811 98.02491367 104.59657884 121.25708008 109.54760742 C124.1621764 110.0986751 127.07396458 110.5750571 130 111 C130 112.65 130 114.3 130 116 C123.29819036 119.57429847 116.87693347 120.19114043 109.45703125 118.37890625 C85.17066879 109.6914157 69.6799948 84.71524349 56.20336914 64.24658203 C47.84463153 51.56219518 39.38901995 39.43823379 29.06640625 28.25390625 C27.23259442 26.2536994 25.48962633 24.20656762 23.75 22.125 C20.54799442 18.45167117 17.06492024 15.12741022 13.5 11.8125 C12.96600586 11.31314941 12.43201172 10.81379883 11.88183594 10.29931641 C9.07194226 7.72343766 6.21701271 5.38848766 3.09375 3.19921875 C2.0728125 2.47347656 1.051875 1.74773437 0 1 C0 0.67 0 0.34 0 0 Z " fill="#2A80C0" transform="translate(269,123)"/>
<path d="M0 0 C0.99 0.33 1.98 0.66 3 1 C5.22574335 1.22451458 7.45581519 1.40782878 9.6875 1.5625 C10.86699219 1.64628906 12.04648438 1.73007813 13.26171875 1.81640625 C14.61716797 1.90728516 14.61716797 1.90728516 16 2 C16 2.33 16 2.66 16 3 C9.73 3 3.46 3 -3 3 C-2.01 2.01 -1.02 1.02 0 0 Z " fill="#50A4CF" transform="translate(189,111)"/>
</svg>
