<svg width="30" height="30" viewBox="0 0 30 30" fill="none" xmlns="http://www.w3.org/2000/svg">
<path fill-rule="evenodd" clip-rule="evenodd" d="M29.9998 7.71267C30.0067 8.07372 29.8027 8.40806 29.4716 8.57836L24.1961 11.2916L29.4389 13.754C29.7763 13.9125 29.9929 14.2394 29.9998 14.6005C30.0067 14.9615 29.8027 15.2959 29.4716 15.4662L24.1958 18.1795L29.4388 20.6421C29.7762 20.8005 29.9928 21.1274 29.9997 21.4885C30.0066 21.8495 29.8026 22.1839 29.4715 22.3542L16.4147 29.0693C15.5308 29.5239 14.4691 29.5239 13.5852 29.0693L0.528402 22.3542C0.197275 22.1839 -0.00673452 21.8495 0.000169884 21.4885C0.00707296 21.1274 0.223727 20.8005 0.561139 20.6421L5.80422 18.1795L0.528507 15.4662C0.19738 15.2959 -0.00662928 14.9615 0.00027512 14.6005C0.0071782 14.2394 0.223832 13.9125 0.561244 13.754L5.80403 11.2916L0.528507 8.57836C0.19738 8.40806 -0.00662928 8.07372 0.00027512 7.71267C0.0071782 7.35162 0.223832 7.02472 0.561244 6.86624L13.6835 0.702939C14.5143 0.312724 15.4858 0.312725 16.3166 0.70294L29.4389 6.86624C29.7763 7.02472 29.9929 7.35162 29.9998 7.71267ZM7.97952 19.2982L3.19594 21.545L14.5284 27.3733C14.823 27.5248 15.1769 27.5248 15.4715 27.3733L26.804 21.545L22.0205 19.2983L16.4148 22.1813C15.5309 22.6359 14.4692 22.6359 13.5853 22.1813L7.97952 19.2982ZM16.4148 15.2935L22.0208 12.4103L26.8041 14.657L15.4716 20.4853C15.177 20.6368 14.8231 20.6368 14.5285 20.4853L3.19605 14.657L7.97933 12.4103L13.5853 15.2935C14.4692 15.7481 15.5309 15.7481 16.4148 15.2935ZM26.8041 7.76918L15.4389 2.43116C15.162 2.30109 14.8381 2.30109 14.5612 2.43116L3.19605 7.76918L14.5285 13.5975C14.8231 13.749 15.177 13.749 15.4716 13.5975L26.8041 7.76918Z" fill="white"/>
</svg>
