<?xml version="1.0" encoding="UTF-8"?>
<svg version="1.1" xmlns="http://www.w3.org/2000/svg" width="512" height="512">
<path d="M0 0 C168.96 0 337.92 0 512 0 C512 168.96 512 337.92 512 512 C343.04 512 174.08 512 0 512 C0 343.04 0 174.08 0 0 Z " fill="#201E17" transform="translate(0,0)"/>
<path d="M0 0 C6.49910009 4.67537646 12.23780328 9.70920714 17.85529613 15.40313721 C18.72497021 16.2723732 19.59464428 17.14160919 20.49067211 18.03718567 C22.84049789 20.38872526 25.18352938 22.74664824 27.52361751 25.10785294 C29.98314853 27.5863262 32.45136 30.05612633 34.91860485 32.5269165 C39.57442075 37.19200191 44.22254584 41.8646707 48.86785537 46.54021549 C54.16308597 51.86915012 59.46698837 57.18941847 64.77158296 62.50902939 C75.66949634 73.43817617 86.55664318 84.37798273 97.43659496 95.32501221 C98.56398656 94.36298465 99.69077322 93.40024814 100.81730175 92.43721008 C101.7586173 91.63313768 101.7586173 91.63313768 102.71894932 90.81282139 C104.47551385 89.29130102 106.15396245 87.72327435 107.78815746 86.07110596 C108.32956371 85.52647705 108.87096996 84.98184814 109.42878246 84.42071533 C110.23702465 83.59990479 110.23702465 83.59990479 111.06159496 82.76251221 C111.60815746 82.21143799 112.15471996 81.66036377 112.71784496 81.09259033 C113.79634185 80.00506297 114.87391572 78.91661938 115.95051098 77.82720947 C118.10356943 75.65080588 120.27022119 73.4881574 122.43659496 71.32501221 C123.76610802 69.9956711 125.09552638 68.66623529 126.42487621 67.33673096 C130.42878246 63.33282471 134.43268871 59.32891846 138.43659496 55.32501221 C134.5326257 50.65936018 134.5326257 50.65936018 130.31940746 46.27813721 C126.56668616 42.64216723 124.93062129 39.99681906 124.68659496 34.70001221 C125.04632723 29.29653379 126.41556464 26.88910727 130.43659496 23.32501221 C133.90897683 20.77859884 137.22871503 20.88971428 141.43659496 21.32501221 C146.53330381 24.24393471 150.43952478 28.04999765 154.54987621 32.20782471 C155.2048962 32.86330292 155.85991619 33.51878113 156.53478527 34.19412231 C157.90946426 35.57180756 159.28172708 36.95190751 160.65168285 38.33428955 C162.75455401 40.45551891 164.86541985 42.56853528 166.97761059 44.68048096 C168.31467375 46.02245615 169.65127872 47.36488806 170.98737621 48.70782471 C171.61960598 49.3411673 172.25183575 49.97450989 172.90322399 50.62704468 C173.77499531 51.50838577 173.77499531 51.50838577 174.66437817 52.40753174 C175.1770071 52.92397247 175.68963604 53.44041321 176.21779919 53.97250366 C179.11879941 57.19176948 178.83220935 60.64437383 178.77253246 64.78594971 C178.23109201 68.87823224 176.49200677 70.65152687 173.43659496 73.32501221 C172.26032543 73.841604 171.0840559 74.3581958 169.87214184 74.89044189 C164.05696132 77.72846465 159.94191668 82.323792 155.46784496 86.90313721 C154.54693066 87.8297113 153.62601635 88.7562854 152.67719555 89.7109375 C150.24834897 92.15493738 147.83176587 94.61071141 145.41767406 97.0692749 C142.94439977 99.58372627 140.45952957 102.08666207 137.97565746 104.59063721 C133.11799597 109.49098715 128.27321329 114.4038939 123.43659496 119.32501221 C124.64040944 121.81862792 125.89088218 124.00644303 127.43659496 126.32501221 C127.9868477 130.15867807 127.8347797 131.7670403 125.56200218 134.95185852 C124.23392776 136.28137794 124.23392776 136.28137794 122.87902355 137.63775635 C122.38859139 138.13684289 121.89815922 138.63592943 121.39286548 139.15013981 C119.7465473 140.81804 118.07963562 142.46366693 116.41193676 144.11016846 C115.22657332 145.3020257 114.04249661 146.49516384 112.85961437 147.68948364 C109.64143587 150.93076596 106.40461999 154.15282079 103.16349292 157.37113571 C99.76940008 160.74630917 96.39036848 164.13650432 93.00905895 167.5244751 C87.32220929 173.21766952 81.62316216 178.89843054 75.91681957 184.57208252 C69.33505459 191.11645074 62.77303083 197.68011102 56.22135323 204.25459003 C49.90791976 210.58904219 43.58036443 216.90920774 37.24644947 223.22317505 C34.55747094 225.90420055 31.87349887 228.59009192 29.19352818 231.28012085 C26.02760591 234.45666544 22.84943008 237.62043953 19.66175556 240.7751503 C18.49940927 241.92934921 17.34118917 243.08772217 16.18765545 244.25072861 C9.50410512 250.98307362 3.05670812 256.15714942 -5.56340504 260.32501221 C-6.55340504 260.98501221 -7.54340504 261.64501221 -8.56340504 262.32501221 C-21.04226269 264.77184704 -34.59282202 264.82095599 -45.66106129 258.03985596 C-54.67592089 251.60579115 -62.60581879 243.43209693 -70.42204762 235.62750244 C-71.65577106 234.40122635 -71.65577106 234.40122635 -72.91441822 233.150177 C-75.59832633 230.48071763 -78.27846635 227.80751968 -80.95793629 225.13360596 C-82.36152623 223.73431856 -83.76511646 222.33503145 -85.1687395 220.93577725 C-89.06912635 217.04713473 -92.96742839 213.15641442 -96.86368161 209.26363033 C-101.87760169 204.25420211 -106.8980218 199.25140952 -111.92411596 194.25419658 C-115.83202784 190.36795336 -119.73410509 186.47591358 -123.63186473 182.57948834 C-125.9505762 180.26181938 -128.2723205 177.94734028 -130.59875393 175.63741875 C-133.19023527 173.06303794 -135.77203612 170.47930761 -138.35173512 167.89312744 C-139.11286106 167.14121628 -139.87398701 166.38930511 -140.65817738 165.61460876 C-151.56340504 154.62355472 -151.56340504 154.62355472 -151.56340504 149.32501221 C-152.22340504 149.32501221 -152.88340504 149.32501221 -153.56340504 149.32501221 C-158.54720541 139.2239168 -159.24018447 127.94673689 -156.83293629 117.00469971 C-155.91434214 114.31265646 -154.8636489 111.85278892 -153.56340504 109.32501221 C-153.03746754 108.29053955 -153.03746754 108.29053955 -152.50090504 107.23516846 C-149.60361818 102.15485643 -145.71833867 97.9810792 -141.75871754 93.70782471 C-139.93526458 91.72863199 -138.2070474 89.71658187 -136.50090504 87.63751221 C-134.47459993 85.25661298 -132.34713968 83.19035469 -129.97356129 81.15704346 C-115.67554453 70.20610576 -115.67554453 70.20610576 -106.61028004 55.61407471 C-106.75863564 52.34608676 -106.75863564 52.34608676 -107.30949879 49.23126221 C-107.76916163 43.96989053 -104.70884572 40.30724471 -101.56340504 36.32501221 C-99.03055887 33.47556027 -96.31057735 31.10885946 -93.37590504 28.70001221 C-90.44460158 26.44778886 -90.44460158 26.44778886 -88.56340504 23.32501221 C-87.90340504 23.32501221 -87.24340504 23.32501221 -86.56340504 23.32501221 C-86.18442066 22.44135986 -86.18442066 22.44135986 -85.79778004 21.53985596 C-84.41868878 19.06534728 -82.97702909 17.70311146 -80.81340504 15.88751221 C-80.10055347 15.28680908 -79.38770191 14.68610596 -78.65324879 14.06719971 C-77.96360035 13.49227783 -77.27395191 12.91735596 -76.56340504 12.32501221 C-76.0078191 11.83259033 -75.45223316 11.34016846 -74.87981129 10.83282471 C-71.10632023 7.51999359 -67.94014189 5.28130983 -62.80168629 5.37579346 C-61.83617847 5.46216064 -60.87067066 5.54852783 -59.87590504 5.63751221 C-53.65033356 5.7668945 -50.82383591 3.88132912 -46.02434254 0.14923096 C-33.37819258 -9.22497861 -12.87118219 -8.4103264 0 0 Z " fill="#FAE589" transform="translate(245.56340503692627,125.67498779296875)"/>
<path d="M0 0 C6.49910009 4.67537646 12.23780328 9.70920714 17.85529613 15.40313721 C18.72497021 16.2723732 19.59464428 17.14160919 20.49067211 18.03718567 C22.84049789 20.38872526 25.18352938 22.74664824 27.52361751 25.10785294 C29.98314853 27.5863262 32.45136 30.05612633 34.91860485 32.5269165 C39.57442075 37.19200191 44.22254584 41.8646707 48.86785537 46.54021549 C54.16308597 51.86915012 59.46698837 57.18941847 64.77158296 62.50902939 C75.66949634 73.43817617 86.55664318 84.37798273 97.43659496 95.32501221 C98.56398656 94.36298465 99.69077322 93.40024814 100.81730175 92.43721008 C101.7586173 91.63313768 101.7586173 91.63313768 102.71894932 90.81282139 C104.47551385 89.29130102 106.15396245 87.72327435 107.78815746 86.07110596 C108.32956371 85.52647705 108.87096996 84.98184814 109.42878246 84.42071533 C110.23702465 83.59990479 110.23702465 83.59990479 111.06159496 82.76251221 C111.60815746 82.21143799 112.15471996 81.66036377 112.71784496 81.09259033 C113.79634185 80.00506297 114.87391572 78.91661938 115.95051098 77.82720947 C118.10356943 75.65080588 120.27022119 73.4881574 122.43659496 71.32501221 C123.76610802 69.9956711 125.09552638 68.66623529 126.42487621 67.33673096 C130.42878246 63.33282471 134.43268871 59.32891846 138.43659496 55.32501221 C134.5326257 50.65936018 134.5326257 50.65936018 130.31940746 46.27813721 C126.56668616 42.64216723 124.93062129 39.99681906 124.68659496 34.70001221 C125.04632723 29.29653379 126.41556464 26.88910727 130.43659496 23.32501221 C133.90897683 20.77859884 137.22871503 20.88971428 141.43659496 21.32501221 C146.53330381 24.24393471 150.43952478 28.04999765 154.54987621 32.20782471 C155.2048962 32.86330292 155.85991619 33.51878113 156.53478527 34.19412231 C157.90946426 35.57180756 159.28172708 36.95190751 160.65168285 38.33428955 C162.75455401 40.45551891 164.86541985 42.56853528 166.97761059 44.68048096 C168.31467375 46.02245615 169.65127872 47.36488806 170.98737621 48.70782471 C171.61960598 49.3411673 172.25183575 49.97450989 172.90322399 50.62704468 C173.77499531 51.50838577 173.77499531 51.50838577 174.66437817 52.40753174 C175.1770071 52.92397247 175.68963604 53.44041321 176.21779919 53.97250366 C179.11879941 57.19176948 178.83220935 60.64437383 178.77253246 64.78594971 C178.23109201 68.87823224 176.49200677 70.65152687 173.43659496 73.32501221 C172.26032543 73.841604 171.0840559 74.3581958 169.87214184 74.89044189 C164.05696132 77.72846465 159.94191668 82.323792 155.46784496 86.90313721 C154.54693066 87.8297113 153.62601635 88.7562854 152.67719555 89.7109375 C150.24834897 92.15493738 147.83176587 94.61071141 145.41767406 97.0692749 C142.94439977 99.58372627 140.45952957 102.08666207 137.97565746 104.59063721 C133.11799597 109.49098715 128.27321329 114.4038939 123.43659496 119.32501221 C124.64040944 121.81862792 125.89088218 124.00644303 127.43659496 126.32501221 C127.9868477 130.15867807 127.8347797 131.7670403 125.56200218 134.95185852 C124.23392776 136.28137794 124.23392776 136.28137794 122.87902355 137.63775635 C122.38859139 138.13684289 121.89815922 138.63592943 121.39286548 139.15013981 C119.7465473 140.81804 118.07963562 142.46366693 116.41193676 144.11016846 C115.22657332 145.3020257 114.04249661 146.49516384 112.85961437 147.68948364 C109.64143587 150.93076596 106.40461999 154.15282079 103.16349292 157.37113571 C99.76940008 160.74630917 96.39036848 164.13650432 93.00905895 167.5244751 C87.32220929 173.21766952 81.62316216 178.89843054 75.91681957 184.57208252 C69.33505459 191.11645074 62.77303083 197.68011102 56.22135323 204.25459003 C49.90791976 210.58904219 43.58036443 216.90920774 37.24644947 223.22317505 C34.55747094 225.90420055 31.87349887 228.59009192 29.19352818 231.28012085 C26.02760591 234.45666544 22.84943008 237.62043953 19.66175556 240.7751503 C18.49940927 241.92934921 17.34118917 243.08772217 16.18765545 244.25072861 C9.50410512 250.98307362 3.05670812 256.15714942 -5.56340504 260.32501221 C-6.55340504 260.98501221 -7.54340504 261.64501221 -8.56340504 262.32501221 C-21.04226269 264.77184704 -34.59282202 264.82095599 -45.66106129 258.03985596 C-54.67592089 251.60579115 -62.60581879 243.43209693 -70.42204762 235.62750244 C-71.65577106 234.40122635 -71.65577106 234.40122635 -72.91441822 233.150177 C-75.59832633 230.48071763 -78.27846635 227.80751968 -80.95793629 225.13360596 C-82.36152623 223.73431856 -83.76511646 222.33503145 -85.1687395 220.93577725 C-89.06912635 217.04713473 -92.96742839 213.15641442 -96.86368161 209.26363033 C-101.87760169 204.25420211 -106.8980218 199.25140952 -111.92411596 194.25419658 C-115.83202784 190.36795336 -119.73410509 186.47591358 -123.63186473 182.57948834 C-125.9505762 180.26181938 -128.2723205 177.94734028 -130.59875393 175.63741875 C-133.19023527 173.06303794 -135.77203612 170.47930761 -138.35173512 167.89312744 C-139.11286106 167.14121628 -139.87398701 166.38930511 -140.65817738 165.61460876 C-151.56340504 154.62355472 -151.56340504 154.62355472 -151.56340504 149.32501221 C-152.22340504 149.32501221 -152.88340504 149.32501221 -153.56340504 149.32501221 C-158.54720541 139.2239168 -159.24018447 127.94673689 -156.83293629 117.00469971 C-155.91434214 114.31265646 -154.8636489 111.85278892 -153.56340504 109.32501221 C-153.03746754 108.29053955 -153.03746754 108.29053955 -152.50090504 107.23516846 C-149.60361818 102.15485643 -145.71833867 97.9810792 -141.75871754 93.70782471 C-139.93526458 91.72863199 -138.2070474 89.71658187 -136.50090504 87.63751221 C-134.47459993 85.25661298 -132.34713968 83.19035469 -129.97356129 81.15704346 C-115.67554453 70.20610576 -115.67554453 70.20610576 -106.61028004 55.61407471 C-106.75863564 52.34608676 -106.75863564 52.34608676 -107.30949879 49.23126221 C-107.76916163 43.96989053 -104.70884572 40.30724471 -101.56340504 36.32501221 C-99.03055887 33.47556027 -96.31057735 31.10885946 -93.37590504 28.70001221 C-90.44460158 26.44778886 -90.44460158 26.44778886 -88.56340504 23.32501221 C-87.90340504 23.32501221 -87.24340504 23.32501221 -86.56340504 23.32501221 C-86.18442066 22.44135986 -86.18442066 22.44135986 -85.79778004 21.53985596 C-84.41868878 19.06534728 -82.97702909 17.70311146 -80.81340504 15.88751221 C-80.10055347 15.28680908 -79.38770191 14.68610596 -78.65324879 14.06719971 C-77.96360035 13.49227783 -77.27395191 12.91735596 -76.56340504 12.32501221 C-76.0078191 11.83259033 -75.45223316 11.34016846 -74.87981129 10.83282471 C-71.10632023 7.51999359 -67.94014189 5.28130983 -62.80168629 5.37579346 C-61.83617847 5.46216064 -60.87067066 5.54852783 -59.87590504 5.63751221 C-53.65033356 5.7668945 -50.82383591 3.88132912 -46.02434254 0.14923096 C-33.37819258 -9.22497861 -12.87118219 -8.4103264 0 0 Z M-58.51384449 33.08258057 C-59.7621983 34.31866814 -59.7621983 34.31866814 -61.03577137 35.57972717 C-63.75238411 38.27179221 -66.46507706 40.96775156 -69.17668629 43.66485596 C-70.11007517 44.59292116 -71.04346405 45.52098637 -72.00513744 46.47717476 C-75.92715112 50.37764248 -79.84775896 54.27951432 -83.76468086 58.18509579 C-89.33858257 63.74273712 -94.92084246 69.29167291 -100.51495677 74.82897085 C-104.47307018 78.74826739 -108.42144264 82.67721227 -112.36283177 86.61332613 C-114.70696263 88.9538258 -117.05622083 91.28874097 -119.41355801 93.61594963 C-122.04095839 96.21164459 -124.6520545 98.82276629 -127.25993824 101.43804932 C-128.03041492 102.19212067 -128.80089161 102.94619202 -129.59471607 103.72311401 C-136.32047489 110.52700839 -141.60762238 118.57401508 -141.87590504 128.38751221 C-141.63068312 143.9182339 -129.95397594 153.07548987 -119.69817066 163.36724854 C-118.86275242 164.20923798 -118.02733418 165.05122742 -117.16660023 165.91873169 C-114.43714191 168.66769297 -111.70386257 171.41280627 -108.96965504 174.15704346 C-108.0197811 175.11097506 -107.06993699 176.06493636 -106.12012196 177.01892662 C-101.66164602 181.49636429 -97.20082319 185.97144718 -92.73705339 190.44360715 C-87.61338754 195.57706938 -82.49814063 200.71873618 -77.38975668 205.86740476 C-73.41692026 209.87047752 -69.43636534 213.86577041 -65.45003557 217.85540599 C-63.07901975 220.2287597 -60.71244768 222.60614273 -58.35193348 224.98996925 C-55.72019661 227.64609792 -53.07606246 230.28926681 -50.42863941 232.92974854 C-49.66162205 233.70957596 -48.89460468 234.48940338 -48.10434437 235.29286194 C-40.51214841 242.81297827 -33.24965144 247.36134666 -22.43840504 247.70001221 C-20.85672535 247.77348877 -20.85672535 247.77348877 -19.24309254 247.84844971 C-8.43426076 246.31088765 -1.37713134 238.83857898 5.94489574 231.38433838 C7.05858168 230.26923945 8.17337498 229.15524555 9.2891798 228.04226685 C12.29358883 225.03928355 15.2824054 222.02121408 18.26852179 219.00005507 C21.3998181 215.83735408 24.5454232 212.68894833 27.68949413 209.53895569 C33.63143387 203.58151887 39.56052014 197.61146018 45.48501861 191.63668376 C52.23454507 184.8311349 58.99839348 178.03989653 65.76344228 171.24978292 C79.67041174 157.29064901 93.55942864 143.31377052 107.43659496 129.32501221 C102.34343247 123.17844409 96.81272545 117.53267283 91.18366528 111.87921143 C90.15451162 110.84214059 89.12553499 109.80489406 88.0967207 108.76748657 C84.73976998 105.38452114 81.37755096 102.00681842 78.01471996 98.62969971 C76.85161584 97.46122904 75.68851722 96.29275291 74.525424 95.12427139 C69.68576944 90.26302592 64.84468807 85.40320879 59.99987698 80.54710197 C53.08219696 73.61317902 46.17315065 66.67090252 39.27586579 59.71668994 C34.40969645 54.81174301 29.53390718 49.91649073 24.65095115 45.02825558 C21.74146363 42.11512788 18.83624684 39.1980297 15.94127178 36.27047348 C13.21727515 33.51625514 10.48146789 30.77432729 7.7364645 28.04104996 C6.73647977 27.04128472 5.74069372 26.03729754 4.74969387 25.02862549 C-3.16257035 16.98310781 -11.43342847 10.34636734 -23.12590504 9.95001221 C-38.40613627 10.1522776 -48.41022255 23.03556492 -58.51384449 33.08258057 Z " fill="#F9E179" transform="translate(245.56340503692627,125.67498779296875)"/>
<path d="M0 0 C8.91180866 5.11644986 16.14151729 13.90416291 23.34683037 21.13755703 C24.38255978 22.17356934 25.41851107 23.20935988 26.45466423 24.24494839 C29.23515122 27.0251514 32.01256943 29.8084011 34.78939867 32.59225678 C37.7036917 35.51285048 40.62086442 38.43056514 43.53771782 41.34860134 C49.04658152 46.86055873 54.55289372 52.37505756 60.05826747 57.89050049 C66.33207925 64.17553473 72.60877026 70.45769025 78.88569093 76.73961937 C91.78460898 89.64895731 104.67995181 102.56186113 117.57290459 115.47715664 C112.45350054 121.65797503 106.88770715 127.33093014 101.22817802 133.0147543 C100.18917218 134.06167711 99.15034345 135.10877573 98.11167717 136.15603542 C94.72226205 139.5714678 91.32757626 142.98163506 87.93227959 146.39121914 C86.75803142 147.57083376 85.58378879 148.7504539 84.40955162 149.93007946 C79.5235741 154.83764831 74.63616959 159.74378864 69.74503517 164.6462183 C62.76079274 171.64670386 55.78518255 178.65554421 48.8213346 185.67631972 C43.9084556 190.62797449 38.98595804 195.56993667 34.05629373 200.50488031 C31.11886128 203.44595321 28.18569941 206.39099932 25.26277733 209.34649944 C22.51251488 212.12698032 19.75044338 214.89517683 16.97917557 217.65471745 C15.96951556 218.66415793 14.96405554 219.6778214 13.96337891 220.69616795 C7.27651973 227.49454157 0.7038226 233.44856995 -8.96615791 235.07090664 C-24.72725305 234.59208856 -32.73828552 227.46348941 -43.60946846 216.60118008 C-44.49018013 215.72879192 -45.3708918 214.85640377 -46.2782917 213.95757961 C-48.67255144 211.58316912 -51.0622341 209.20435533 -53.4491365 206.82256126 C-54.94508735 205.33027381 -56.44232333 203.83928777 -57.93998337 202.34871578 C-63.1771388 197.13598451 -68.40861173 191.91761994 -73.63534737 186.6944418 C-78.48826928 181.84515661 -83.35417661 177.00917284 -88.22615403 172.17903972 C-92.42637378 168.01362065 -96.6168134 163.83852583 -100.8000167 159.6560185 C-103.29085193 157.1659723 -105.7854145 154.6799767 -108.29013824 152.20389462 C-111.08515355 149.44013729 -113.85972352 146.65638314 -116.63290596 143.87071133 C-117.45327843 143.06517315 -118.27365089 142.25963497 -119.11888313 141.42968655 C-125.97705564 134.48352359 -131.46510992 126.45504703 -131.73959541 116.41465664 C-131.49509937 100.92990738 -119.89694704 91.8063781 -109.66952705 81.54258633 C-108.84546867 80.71195675 -108.02141029 79.88132717 -107.17238045 79.025527 C-104.48019333 76.31383878 -101.78418741 73.60599669 -99.08725166 70.89903164 C-98.15918646 69.96689091 -97.23112125 69.03475018 -96.27493286 68.07436275 C-91.87358662 63.6540536 -87.46989221 59.23610058 -83.06325155 54.82106948 C-78.00864258 49.75667019 -72.96244919 44.68407297 -67.92313677 39.6044538 C-64.00210333 35.65315528 -60.07332445 31.70966439 -56.13878149 27.7718184 C-53.79960807 25.43030995 -51.46480152 23.08472125 -49.13615799 20.73273373 C-46.53817535 18.11031209 -43.9277468 15.50090472 -41.3140583 12.89414883 C-40.55998695 12.12726742 -39.8059156 11.36038601 -39.02899361 10.57026577 C-28.16812051 -0.1864931 -15.03828752 -7.08993442 0 0 Z M-75.06772041 67.62559414 C-89.00314996 86.60661025 -92.90007202 107.57651566 -90.15463448 130.77989101 C-87.85386157 144.29774654 -80.623069 158.35369216 -71.42709541 168.47715664 C-70.78514229 169.2106332 -70.14318916 169.94410976 -69.48178291 170.69981289 C-56.45453348 184.71251847 -37.48815404 193.91651235 -18.35678291 194.76231289 C-8.68402643 195.00532517 0.36669926 194.73714436 9.57290459 191.47715664 C10.64798271 191.11364101 11.72306084 190.75012539 12.83071709 190.37559414 C33.12828919 183.07600324 49.07859964 169.41984603 58.44790459 149.91465664 C66.71763981 130.06142704 69.17344866 107.47640325 60.87368584 87.18809414 C57.16397973 78.64379123 52.81163062 71.44985044 46.57290459 64.47715664 C45.93095146 63.64571133 45.28899834 62.81426601 44.62759209 61.95762539 C33.88847963 48.9931075 15.16341947 40.05276347 -1.43100166 37.73496914 C-30.45637396 35.2373491 -56.51418199 44.5973788 -75.06772041 67.62559414 Z " fill="#7E744C" transform="translate(235.427095413208,138.52284336090088)"/>
<path d="M0 0 C1.10021484 0.47566406 1.10021484 0.47566406 2.22265625 0.9609375 C11.51587938 5.45611575 18.15195658 13.54022659 22 23 C24.67407142 33.29334343 24.37831132 45.77523659 19.671875 55.3203125 C13.37364823 65.41513391 4.62770948 72.92329976 -7 76 C-19.7035283 77.33145167 -30.23726836 76.33096325 -40.75 68.75 C-48.84651421 62.02432418 -53.97221936 53.38526905 -56 43 C-57.11023766 29.80403238 -54.58115882 19.28402987 -45.94140625 8.96484375 C-42.6492816 5.63297514 -39.10159328 3.23414601 -35 1 C-34.26265625 0.58621094 -33.5253125 0.17242187 -32.765625 -0.25390625 C-22.92647905 -4.99188425 -9.81210215 -4.70521858 0 0 Z " fill="#827B61" transform="translate(239,218)"/>
<path d="M0 0 C9.32174241 7.46482161 17.22030212 19.82743988 19.6484375 31.4453125 C21.61027697 49.62249645 18.97167904 65.64176728 7.6484375 80.4453125 C-0.6789599 90.66347163 -13.85744897 98.3087729 -26.99804688 99.73193359 C-45.55184105 100.985483 -59.38644218 97.69266802 -73.71875 85.41796875 C-85.14876663 74.77689267 -91.19447179 60.8974929 -91.77124023 45.30249023 C-91.91116068 29.24997376 -86.74759917 16.36907985 -75.69921875 4.73046875 C-53.97081917 -16.41947094 -24.54764493 -16.22917389 0 0 Z M-66.3515625 17.4453125 C-73.94027863 28.15962229 -76.40169428 37.37117186 -75.3515625 50.4453125 C-73.103958 61.32576154 -67.68077594 71.1590261 -58.3515625 77.4453125 C-46.99587906 83.83288444 -35.6296404 85.52628183 -22.78125 82.64453125 C-11.63332409 78.40948368 -3.39544575 70.16356441 1.6484375 59.4453125 C3.72251171 54.42762094 3.99996565 49.98022628 3.9609375 44.6328125 C3.95529785 43.83109619 3.9496582 43.02937988 3.94384766 42.20336914 C3.72311372 31.46717631 0.2121759 23.40389685 -7.16796875 15.5 C-16.91044501 6.40702216 -27.12877151 3.82500061 -40.20703125 4.109375 C-50.3293587 4.67082429 -59.47088122 10.20811924 -66.3515625 17.4453125 Z " fill="#FDFDFC" transform="translate(258.3515625,210.5546875)"/>
<path d="M0 0 C5.09670885 2.91892251 9.00292982 6.72498544 13.11328125 10.8828125 C13.76830124 11.53829071 14.42332123 12.19376892 15.09819031 12.86911011 C16.47286929 14.24679535 17.84513212 15.6268953 19.21508789 17.00927734 C21.31795905 19.1305067 23.42882488 21.24352307 25.54101562 23.35546875 C26.87807879 24.69744395 28.21468376 26.03987585 29.55078125 27.3828125 C30.18301102 28.01615509 30.81524078 28.64949768 31.46662903 29.30203247 C32.04780991 29.8895932 32.62899078 30.47715393 33.2277832 31.08251953 C33.74041214 31.59896027 34.25304108 32.115401 34.78120422 32.64749146 C37.68082194 35.8652231 37.38537204 39.3145098 37.35546875 43.453125 C36.77884373 47.58454822 35.020496 49.19023628 32 52 C29 54 29 54 25.92944336 54.53857422 C20.06077558 56.1400885 16.23287359 61.15884474 12.12890625 65.3828125 C10.74541237 66.77691849 10.74541237 66.77691849 9.33396912 68.19918823 C6.89462929 70.65752189 4.47068664 73.13049879 2.04974365 75.60693359 C-0.42834035 78.13637527 -2.92082893 80.65153545 -5.41210938 83.16796875 C-10.2888571 88.09816927 -15.14947248 93.0440044 -20 98 C-23.8488174 94.7498913 -27.63349881 91.49349707 -31.18359375 87.9140625 C-31.88291016 87.21152344 -32.58222656 86.50898438 -33.30273438 85.78515625 C-34.00720703 85.07230469 -34.71167969 84.35945313 -35.4375 83.625 C-36.16904297 82.88894531 -36.90058594 82.15289062 -37.65429688 81.39453125 C-39.43852723 79.59863926 -41.22036124 77.80044015 -43 76 C-41.56698626 72.71990961 -39.80531117 70.57023114 -37.26171875 68.06640625 C-36.52373047 67.33486328 -35.78574219 66.60332031 -35.02539062 65.84960938 C-34.25388672 65.09486328 -33.48238281 64.34011719 -32.6875 63.5625 C-31.92759766 62.81162109 -31.16769531 62.06074219 -30.38476562 61.28710938 C-28.90562359 59.82595864 -27.42463339 58.36667606 -25.94165039 56.90942383 C-23.61371942 54.62013071 -21.30505055 52.312322 -19 50 C-17.67074567 48.67040019 -16.34129969 47.34099196 -15.01171875 46.01171875 C-14.30595703 45.30595703 -13.60019531 44.60019531 -12.87304688 43.87304688 C-9.58203125 40.58203125 -6.29101562 37.29101562 -3 34 C-6.90396926 29.33434797 -6.90396926 29.33434797 -11.1171875 24.953125 C-14.8699088 21.31715503 -16.50597367 18.67180685 -16.75 13.375 C-16.39026773 7.97152158 -15.02103033 5.56409506 -11 2 C-7.52761813 -0.54641337 -4.20787993 -0.43529792 0 0 Z " fill="#FAF6E7" transform="translate(387,147)"/>
<path d="M0 0 C12.57200179 10.00194413 22.53670577 24.44612967 24.75 40.75 C25.96311838 60.3189916 21.64352834 77.61300616 8.91015625 92.96875 C-2.20681788 104.79048119 -17.94219545 112.46531794 -34.12792969 113.08422852 C-52.03622542 113.418458 -66.96815253 107.88879257 -80.67578125 96.234375 C-93.05127831 84.29079968 -99.17650738 69.28907734 -99.65429688 52.30810547 C-99.75755151 42.79804993 -99.3995552 34.47505812 -95.25 25.75 C-94.92257813 24.92113281 -94.59515625 24.09226563 -94.2578125 23.23828125 C-88.09492495 8.91069231 -74.30459282 -2.23923074 -60.25 -8.25 C-39.95796728 -16.10498041 -17.58030596 -12.6772558 0 0 Z M-79.92578125 12.88671875 C-90.60460543 26.04231224 -94.96732428 40.87242857 -93.25 57.75 C-90.45111722 74.52663665 -82.29891133 87.47192157 -68.7421875 97.62890625 C-66.30317466 99.19348201 -63.86457511 100.50286371 -61.25 101.75 C-60.43015625 102.16121094 -59.6103125 102.57242188 -58.765625 102.99609375 C-46.51021072 108.11432312 -29.89124023 107.926312 -17.5 103.25 C-3.39597226 97.36503225 6.74091561 87.653894 13.42578125 74.03515625 C16.76185448 65.75893918 18.30916973 58.3796186 18.25 49.4375 C18.24141968 47.92410034 18.24141968 47.92410034 18.23266602 46.38012695 C17.9299835 33.70516939 13.53847981 24.6989206 5.75 14.75 C4.986875 13.698125 4.22375 12.64625 3.4375 11.5625 C-6.94073512 0.70155627 -20.81352632 -5.06120211 -35.63793945 -5.58447266 C-52.98080442 -5.88203499 -67.90800233 0.13355239 -79.92578125 12.88671875 Z " fill="#968D6A" transform="translate(260.25,204.25)"/>
<path d="M0 0 C1.46373047 0.02707031 1.46373047 0.02707031 2.95703125 0.0546875 C3.69308594 0.07789063 4.42914063 0.10109375 5.1875 0.125 C4.67489545 4.3164903 2.40832516 6.26673744 -0.51586914 9.16894531 C-1.0036937 9.65720795 -1.49151825 10.14547058 -1.99412537 10.64852905 C-3.60495891 12.25727606 -5.22614993 13.85514197 -6.84765625 15.453125 C-7.96789228 16.56776461 -9.08746689 17.68306934 -10.20640564 18.79901123 C-13.15078118 21.73194172 -16.10405494 24.65575096 -19.05926514 27.57775879 C-22.07422743 30.56201304 -25.08069722 33.55479589 -28.08789062 36.546875 C-33.9878099 42.4146361 -39.89715573 48.27278951 -45.8125 54.125 C-46.4725 53.795 -47.1325 53.465 -47.8125 53.125 C-48.65459316 44.04910708 -47.43101886 38.35834257 -41.8125 31.125 C-39.27965384 28.27554807 -36.55967231 25.90884725 -33.625 23.5 C-30.69369654 21.24777665 -30.69369654 21.24777665 -28.8125 18.125 C-28.1525 18.125 -27.4925 18.125 -26.8125 18.125 C-26.55984375 17.53589844 -26.3071875 16.94679687 -26.046875 16.33984375 C-24.66778374 13.86533507 -23.22612405 12.50309925 -21.0625 10.6875 C-20.34964844 10.08679688 -19.63679688 9.48609375 -18.90234375 8.8671875 C-18.21269531 8.29226562 -17.52304688 7.71734375 -16.8125 7.125 C-16.25691406 6.63257813 -15.70132813 6.14015625 -15.12890625 5.6328125 C-10.26984746 1.36693751 -6.4539254 -0.15551627 0 0 Z " fill="#F7EDC8" transform="translate(185.8125,130.875)"/>
<path d="M0 0 C0.66 0.33 1.32 0.66 2 1 C-8.56 11.56 -19.12 22.12 -30 33 C-30.66 32.67 -31.32 32.34 -32 32 C-30.60919892 30.41224451 -29.21211596 28.82999061 -27.8125 27.25 C-27.03519531 26.36828125 -26.25789062 25.4865625 -25.45703125 24.578125 C-23.11454332 22.12018854 -20.64557418 20.11645935 -18 18 C-17.34 17.01 -16.68 16.02 -16 15 C-15.34 15 -14.68 15 -14 15 C-13.74992187 14.4121875 -13.49984375 13.824375 -13.2421875 13.21875 C-11.83573115 10.70658898 -10.33359008 9.33354648 -8.125 7.5 C-5.28915088 5.10241847 -2.57491762 2.68220585 0 0 Z " fill="#D7CFB0" transform="translate(173,134)"/>
</svg>
