<svg width="29" height="36" viewBox="0 0 29 36" fill="none" xmlns="http://www.w3.org/2000/svg">
<path d="M20.963 29.2616C20.963 30.4972 20.626 31.6322 20.0171 32.5958C25.113 31.8569 29 27.4822 29 22.1794V21.8424L20.6083 27.1718C20.8418 27.828 20.963 28.5286 20.963 29.2616Z" fill="white"/>
<path d="M19.7334 25.5165L28.9971 19.6255V17.5179L18.4683 24.2159C18.956 24.5913 19.3757 25.0318 19.7334 25.5165Z" fill="white"/>
<path d="M28.9971 13.5187V0.273438L19.2102 19.7467L28.9971 13.5187Z" fill="white"/>
<path d="M17.3184 23.5036C17.4129 23.5509 17.5046 23.5982 17.5992 23.6544L28.997 16.4155V14.3552L18.5923 20.9675L17.3184 23.5066V23.5036Z" fill="white"/>
<path d="M8.44786 27.3136L0 21.9458V22.1793C0 27.5176 3.96086 31.9218 9.0952 32.6135C8.46855 31.6588 8.14045 30.4971 8.14045 29.2616C8.14045 28.5876 8.24391 27.9314 8.45082 27.3136H8.44786Z" fill="white"/>
<path d="M0 19.7171L9.27255 25.617C9.62725 25.1204 10.0411 24.68 10.5081 24.3046L0 17.6155V19.7142V19.7171Z" fill="white"/>
<path d="M0 14.4557V16.5071L11.3623 23.7282C11.4658 23.6632 11.5781 23.6071 11.6904 23.5509L10.4638 21.1064L0 14.4557Z" fill="white"/>
<path d="M0 13.6221L9.84303 19.8856L0 0.273438V13.6221Z" fill="white"/>
<path d="M14.4186 35.3832C15.4961 35.3832 16.3695 34.5097 16.3695 33.4323C16.3695 32.3549 15.4961 31.4814 14.4186 31.4814C13.3412 31.4814 12.4678 32.3549 12.4678 33.4323C12.4678 34.5097 13.3412 35.3832 14.4186 35.3832Z" fill="white"/>
</svg>
