<svg width="36" height="37" viewBox="0 0 36 37" fill="none" xmlns="http://www.w3.org/2000/svg">
<path d="M26.7807 18.2725C28.9126 15.8519 30.7484 13.5076 32.2066 11.3667C33.3851 9.63615 34.3203 8.03999 34.9704 6.62541C35.6168 5.2072 35.9946 3.98512 36 2.91011C36 2.54875 35.9546 2.19828 35.842 1.86779C35.7313 1.5373 35.5497 1.22678 35.2973 0.976186C35.0467 0.723777 34.7361 0.542188 34.4056 0.431419C34.0752 0.32065 33.7265 0.273438 33.3633 0.273438C32.2883 0.278885 31.0662 0.656598 29.648 1.30305C26.4938 2.75577 22.3754 5.63939 18.0009 9.49271C15.5803 7.36085 13.236 5.52499 11.0951 4.06683C9.36454 2.88832 7.76837 1.95314 6.35379 1.30305C4.93558 0.656598 3.7135 0.278885 2.63849 0.273438C2.27713 0.273438 1.92667 0.318834 1.59617 0.431419C1.26568 0.542188 0.955157 0.723779 0.702748 0.978003C0.45034 1.2286 0.268751 1.53912 0.157981 1.86961C0.0472122 2.2001 0.00181589 2.54875 0 2.91193C0.00544767 3.98694 0.383161 5.20902 1.02962 6.62723C2.48233 9.78143 5.36596 13.8999 9.21927 18.2743C7.08742 20.6949 5.25155 23.0392 3.79339 25.1802C2.61488 26.9107 1.67971 28.5069 1.02962 29.9215C0.383161 31.3397 0.00544767 32.5618 0 33.6368C0 33.9981 0.0453963 34.3486 0.157981 34.6791C0.268751 35.0096 0.45034 35.3201 0.702748 35.5707C0.955157 35.8231 1.26568 36.0047 1.59617 36.1155C1.92667 36.2262 2.27531 36.2716 2.63849 36.2716C3.7135 36.2662 4.93558 35.8885 6.35379 35.242C9.50799 33.7893 13.6264 30.9057 18.0009 27.0523C20.4215 29.1842 22.7658 31.0182 24.9067 32.4782C26.6373 33.6567 28.2334 34.5919 29.648 35.242C31.0662 35.8885 32.2883 36.2662 33.3633 36.2716C33.7247 36.2716 34.0752 36.2262 34.4056 36.1136C34.7343 36.0029 35.0467 35.8213 35.2973 35.5689C35.5497 35.3165 35.7313 35.0059 35.842 34.6754C35.9528 34.3449 35.9982 33.9963 36 33.6331C35.9946 32.5581 35.6168 31.336 34.9704 29.9178C33.5177 26.7636 30.634 22.6452 26.7807 18.2707V18.2725ZM25.8183 5.40332C27.4926 4.26113 29.0252 3.36953 30.3235 2.77392C31.6183 2.17468 32.6951 1.88595 33.3633 1.8914C33.5867 1.8914 33.7628 1.92046 33.8863 1.96404C34.0116 2.00762 34.0897 2.05846 34.1514 2.1202C34.2132 2.18376 34.264 2.26002 34.3076 2.38532C34.3494 2.51061 34.3802 2.68494 34.3802 2.91011C34.3857 3.57836 34.0969 4.65518 33.4977 5.94991C32.1775 8.83535 29.412 12.814 25.6912 17.0595C24.6906 15.9627 23.6338 14.855 22.5261 13.7473C21.4184 12.6396 20.3107 11.5846 19.2139 10.5822C21.5401 8.543 23.7845 6.78885 25.8165 5.40514L25.8183 5.40332ZM21.3839 21.6537C20.2526 22.7868 19.1195 23.8636 18.0009 24.8787C16.8823 23.8618 15.751 22.785 14.6197 21.6537C13.4866 20.5224 12.4116 19.3893 11.3947 18.2707C12.4116 17.1521 13.4884 16.0208 14.6197 14.8895C15.751 13.7564 16.8841 12.6796 18.0027 11.6627C19.1213 12.6796 20.2526 13.7564 21.3839 14.8895C22.517 16.0208 23.592 17.1539 24.6089 18.2725C23.592 19.3911 22.5152 20.5224 21.3839 21.6537ZM5.13352 10.4533C3.99133 8.77907 3.09973 7.24645 2.50412 5.94809C1.90487 4.65336 1.61615 3.57654 1.6216 2.90829C1.6216 2.68312 1.65064 2.5088 1.69422 2.38532C1.7378 2.26002 1.78866 2.18194 1.8504 2.1202C1.91396 2.05846 1.99022 2.00762 2.11552 1.96404C2.24081 1.92228 2.41514 1.8914 2.63849 1.8914C3.30674 1.88595 4.38356 2.17468 5.67829 2.77392C8.56374 4.09407 12.5405 6.85967 16.7879 10.5804C15.6911 11.581 14.5834 12.6378 13.4739 13.7455C12.3662 14.8532 11.3112 15.9609 10.3106 17.0577C8.27138 14.7316 6.51723 12.4871 5.13352 10.4533ZM10.1853 31.1381C8.51107 32.2803 6.97847 33.1719 5.68011 33.7675C4.38538 34.3667 3.30856 34.6555 2.64031 34.65C2.41514 34.65 2.24081 34.621 2.11552 34.5774C1.99022 34.5338 1.91214 34.483 1.8504 34.4212C1.78866 34.3595 1.7378 34.2814 1.69422 34.1561C1.65245 34.0308 1.6216 33.8565 1.6216 33.6331C1.61615 32.9649 1.90487 31.8881 2.50412 30.5933C3.82427 27.7079 6.58987 23.7311 10.3106 19.4837C11.3112 20.5805 12.368 21.6882 13.4757 22.7977C14.5834 23.9054 15.6911 24.9604 16.7879 25.961C14.4618 28.0002 12.2173 29.7526 10.1853 31.1381ZM34.3112 34.1561C34.2677 34.2814 34.2168 34.3595 34.1551 34.4212C34.0933 34.483 34.0152 34.5338 33.8899 34.5774C33.7646 34.6192 33.5903 34.65 33.3651 34.65C32.6969 34.6555 31.6201 34.3667 30.3253 33.7675C27.4399 32.4473 23.4613 29.6817 19.2157 25.961C20.3125 24.9604 21.4202 23.9036 22.5297 22.7959C23.6374 21.6882 24.6925 20.5805 25.693 19.4837C27.7323 21.8099 29.4864 24.0543 30.8701 26.0863C32.0123 27.7605 32.9039 29.2931 33.4995 30.5915C34.0988 31.8862 34.3875 32.9631 34.382 33.6313C34.382 33.8565 34.353 34.0308 34.3094 34.1561H34.3112Z" fill="white"/>
<path d="M25.822 13.7111C27.6216 13.7111 29.0815 12.2511 29.0815 10.4516C29.0815 8.652 27.6216 7.19202 25.822 7.19202C24.0225 7.19202 22.5625 8.652 22.5625 10.4516C22.5625 12.2511 24.0225 13.7111 25.822 13.7111Z" fill="white"/>
<path d="M10.0344 22.9792C8.23487 22.9792 6.7749 24.4392 6.7749 26.2388C6.7749 28.0383 8.23487 29.4983 10.0344 29.4983C11.834 29.4983 13.2939 28.0383 13.2939 26.2388C13.2939 24.4392 11.834 22.9792 10.0344 22.9792Z" fill="white"/>
<path d="M25.822 22.9792C24.0225 22.9792 22.5625 24.4392 22.5625 26.2388C22.5625 28.0383 24.0225 29.4983 25.822 29.4983C27.6216 29.4983 29.0815 28.0383 29.0815 26.2388C29.0815 24.4392 27.6216 22.9792 25.822 22.9792Z" fill="white"/>
<path d="M10.0344 7.19385C8.23487 7.19385 6.7749 8.65384 6.7749 10.4534C6.7749 12.2529 8.23487 13.7129 10.0344 13.7129C11.834 13.7129 13.2939 12.2529 13.2939 10.4534C13.2939 8.65384 11.834 7.19385 10.0344 7.19385Z" fill="white"/>
</svg>
