<?xml version="1.0" standalone="no"?>
<!DOCTYPE svg PUBLIC "-//W3C//DTD SVG 20010904//EN"
 "http://www.w3.org/TR/2001/REC-SVG-20010904/DTD/svg10.dtd">
<svg version="1.0" xmlns="http://www.w3.org/2000/svg"
 width="512.000000pt" height="512.000000pt" viewBox="0 0 512.000000 512.000000"
 preserveAspectRatio="xMidYMid meet">

<g transform="translate(0.000000,512.000000) scale(0.100000,-0.100000)"
fill="#000000" stroke="none">
<path d="M0 2560 l0 -2560 2560 0 2560 0 0 2560 0 2560 -2560 0 -2560 0 0
-2560z m3223 1345 c83 -21 133 -50 197 -111 94 -89 140 -200 140 -336 l0 -68
-735 0 -735 0 0 -726 0 -726 -29 -29 -29 -29 -207 0 -207 0 -29 29 -29 29 0
794 c0 852 0 850 51 950 30 58 119 150 178 181 101 55 105 56 766 56 511 1
620 -1 668 -14z m308 -694 l29 -29 0 -794 c0 -864 1 -854 -57 -960 -31 -58
-123 -147 -181 -177 -98 -50 -114 -51 -762 -51 -648 0 -664 1 -762 51 -58 30
-150 119 -181 177 -36 66 -57 153 -57 234 l0 68 735 0 735 0 0 726 0 726 29
29 29 29 207 0 207 0 29 -29z"/>
<path d="M1936 3749 c-53 -13 -98 -42 -144 -94 -74 -84 -72 -58 -72 -881 l0
-735 103 3 c72 2 102 7 103 16 1 6 2 347 3 757 l1 745 725 0 c620 0 725 2 725
14 0 22 -61 97 -107 132 -24 18 -65 37 -93 43 -63 14 -1186 13 -1244 0z"/>
<path d="M3196 3071 c-3 -4 -5 -307 -3 -672 l2 -664 53 -3 c28 -2 52 -6 52
-10 0 -4 -61 -68 -135 -142 l-135 -135 0 58 0 57 -645 0 c-551 0 -645 -2 -645
-14 0 -22 61 -97 108 -132 24 -19 63 -37 95 -44 37 -7 240 -10 648 -8 l594 3
47 23 c26 13 67 45 91 72 80 89 77 56 77 886 l0 734 -99 0 c-55 0 -102 -4
-105 -9z"/>
</g>
</svg>
