<?xml version="1.0" encoding="UTF-8"?>
<svg version="1.1" xmlns="http://www.w3.org/2000/svg" width="512" height="512">
<path d="M0 0 C168.96 0 337.92 0 512 0 C512 168.96 512 337.92 512 512 C343.04 512 174.08 512 0 512 C0 343.04 0 174.08 0 0 Z " fill="#111D2A" transform="translate(0,0)"/>
<path d="M0 0 C1.41187843 -0.01429802 1.41187843 -0.01429802 2.85227966 -0.02888489 C3.85759232 -0.02797348 4.86290497 -0.02706207 5.89868164 -0.02612305 C6.94278702 -0.03040817 7.9868924 -0.0346933 9.06263733 -0.03910828 C11.26733679 -0.04484263 13.47205517 -0.04535844 15.67675781 -0.04101562 C19.04337951 -0.0378563 22.40912167 -0.06132449 25.77563477 -0.08666992 C27.92081595 -0.08894311 30.06599949 -0.08964632 32.21118164 -0.08862305 C33.71611427 -0.10243767 33.71611427 -0.10243767 35.25144958 -0.11653137 C41.50155728 -0.07530898 45.68755835 0.75966775 50.84399414 4.53637695 C55.85334403 9.86702625 57.39583388 16.49572132 59.30102539 23.36645508 C60.31049851 26.94527764 61.37218239 30.5079519 62.43383789 34.0715332 C63.05905068 36.18134756 63.68310853 38.29149873 64.30648804 40.40185547 C64.72365315 41.81344303 65.14180015 43.22474079 65.5609436 44.63574219 C66.15568529 46.64399616 66.74298101 48.65428566 67.32836914 50.6652832 C67.67359619 51.84123047 68.01882324 53.01717773 68.37451172 54.22875977 C69.12133789 57.2746582 69.12133789 57.2746582 69.12133789 61.2746582 C70.32145508 60.77538818 71.52157227 60.27611816 72.75805664 59.76171875 C77.23778252 57.89850484 81.71826665 56.03712032 86.19897461 54.17626953 C88.13309924 53.37272719 90.06702166 52.56869795 92.00073242 51.76416016 C94.79039524 50.60359719 97.58079585 49.44482401 100.37133789 48.28637695 C101.22687256 47.93000656 102.08240723 47.57363617 102.96386719 47.20646667 C120.88362138 39.77580149 120.88362138 39.77580149 129.12133789 41.2746582 C132.21830391 42.87225837 134.61673937 44.87024362 137.12133789 47.2746582 C138.35883789 48.3884082 138.35883789 48.3884082 139.62133789 49.5246582 C141.12133789 51.2746582 141.12133789 51.2746582 141.12133789 53.2746582 C141.78133789 53.2746582 142.44133789 53.2746582 143.12133789 53.2746582 C144.06775095 54.65028354 145.00518969 56.0328521 145.89916992 57.44311523 C148.20020237 60.89144632 150.91774639 64.02171967 153.55883789 67.2121582 C155.76743084 69.88331032 157.95779981 72.56685929 160.12133789 75.2746582 C160.61698242 75.88728516 161.11262695 76.49991211 161.62329102 77.13110352 C164.48154316 80.84764678 165.81007488 83.44586872 165.74633789 88.1496582 C165.75922852 89.09583008 165.77211914 90.04200195 165.78540039 91.0168457 C164.17023152 98.94067416 158.65974821 105.57613672 153.93383789 111.9621582 C152.78509678 113.53355088 151.63666291 115.1051682 150.48852539 116.67700195 C149.92230469 117.44898926 149.35608398 118.22097656 148.77270508 119.01635742 C146.34514034 122.33613474 143.94882084 125.677769 141.55883789 129.0246582 C140.79442383 130.09200195 140.03000977 131.1593457 139.24243164 132.2590332 C137.15008084 135.23379346 135.12490287 138.23977973 133.12133789 141.2746582 C133.82983887 141.5439917 134.53833984 141.8133252 135.26831055 142.09082031 C138.21059887 143.31169624 140.96258254 144.71102575 143.76977539 146.21606445 C144.85097656 146.79541748 145.93217773 147.37477051 147.04614258 147.97167969 C180.70546689 166.17086572 180.70546689 166.17086572 186.55883789 175.5871582 C188.04376752 182.68182198 185.8737823 189.84149389 183.84008789 196.6340332 C183.05977607 199.50083099 182.60030487 202.34279974 182.12133789 205.2746582 C177.45367097 227.1486267 177.45367097 227.1486267 170.49633789 233.7746582 C160.48222122 238.22537672 148.77754208 237.83557978 137.99633789 238.3371582 C135.59485361 238.45371864 133.19350378 238.57240384 130.79226685 238.69395447 C129.31087937 238.76845655 127.82933657 238.83996295 126.34762573 238.9077301 C121.24439771 239.1575424 116.19328819 239.66161152 111.12133789 240.2746582 C111.43941406 242.05743164 111.43941406 242.05743164 111.76391602 243.8762207 C112.56043519 248.36182106 113.33873419 252.85043613 114.11206055 257.34008789 C114.44675386 259.26866582 114.78613319 261.19643747 115.13061523 263.12329102 C120.81920617 294.99930204 120.81920617 294.99930204 115.62133789 302.9621582 C110.02948055 309.47045882 100.96525297 312.93221596 93.37133789 316.4621582 C91.52227492 317.33042498 89.67331266 318.19890629 87.82446289 319.06762695 C87.01654297 319.4442749 86.20862305 319.82092285 85.3762207 320.20898438 C81.28471597 322.13372467 81.28471597 322.13372467 77.36743164 324.38012695 C71.57934116 327.84298022 66.61544203 327.79028374 60.12133789 326.2746582 C50.95549872 321.97232553 43.96100054 312.20178463 37.76977539 304.43481445 C32.2718658 297.72471516 26.10458761 291.54908091 20.12133789 285.2746582 C12.29978494 291.86599767 4.54316471 298.51632256 -0.87866211 307.2746582 C-3.00366211 309.6496582 -3.00366211 309.6496582 -4.87866211 311.2746582 C-5.53866211 311.2746582 -6.19866211 311.2746582 -6.87866211 311.2746582 C-7.1300293 311.85086914 -7.38139648 312.42708008 -7.64038086 313.02075195 C-9.03822245 315.56508823 -10.63267232 317.29441212 -12.69116211 319.3371582 C-13.35760742 320.00875977 -14.02405273 320.68036133 -14.71069336 321.37231445 C-19.85794157 325.88890883 -23.76057295 326.9363546 -30.51196289 326.75561523 C-36.80486238 325.85662959 -42.17881161 323.03237793 -47.81616211 320.2121582 C-49.57476562 319.37007813 -49.57476562 319.37007813 -51.36889648 318.51098633 C-54.89485522 316.80738948 -58.38926995 315.05183078 -61.87866211 313.2746582 C-62.47801575 312.97489075 -63.07736938 312.67512329 -63.69488525 312.36627197 C-65.47222285 311.47476741 -67.24004057 310.56436345 -69.00756836 309.65356445 C-70.04083252 309.12448486 -71.07409668 308.59540527 -72.13867188 308.05029297 C-76.15462245 305.44777951 -78.31811613 302.58259882 -80.19116211 298.2121582 C-82.1349211 287.07972033 -78.78346287 274.97498755 -76.86743164 263.9621582 C-76.373869 261.12207749 -75.88939943 258.28054811 -75.40600586 255.4387207 C-75.09533606 253.63133818 -74.78415713 251.82404308 -74.47241211 250.0168457 C-74.32759399 249.16798798 -74.18277588 248.31913025 -74.03356934 247.44454956 C-72.99434434 241.50602266 -72.99434434 241.50602266 -71.87866211 239.2746582 C-72.87494629 239.25483887 -73.87123047 239.23501953 -74.89770508 239.21459961 C-125.51695188 238.17196165 -125.51695188 238.17196165 -133.87866211 232.2746582 C-138.00537835 227.26763891 -139.92855677 221.7723185 -141.33569336 215.5324707 C-141.52838303 214.72405731 -141.72107269 213.91564392 -141.91960144 213.08273315 C-142.32054358 211.38519001 -142.71428792 209.68593184 -143.10107422 207.98510742 C-143.68910749 205.40866042 -144.30450461 202.83989454 -144.92358398 200.27075195 C-150.09583589 178.35640516 -150.09583589 178.35640516 -144.87866211 169.2746582 C-143.88866211 168.9446582 -142.89866211 168.6146582 -141.87866211 168.2746582 C-141.87866211 167.6146582 -141.87866211 166.9546582 -141.87866211 166.2746582 C-141.25717285 165.936521 -140.63568359 165.59838379 -139.99536133 165.25 C-132.62975184 161.23793123 -125.27817075 157.20083577 -117.93334961 153.15087891 C-116.63638173 152.43593849 -115.33917733 151.72142697 -114.04174805 151.00732422 C-112.13531907 149.95802533 -110.22957184 148.90749793 -108.32397461 147.85668945 C-107.20522949 147.24027588 -106.08648437 146.6238623 -104.93383789 145.98876953 C-102.9655328 144.88444877 -101.01850266 143.74085737 -99.10083008 142.55078125 C-96.87866211 141.2746582 -96.87866211 141.2746582 -94.87866211 141.2746582 C-101.03482083 132.17392895 -107.19941337 123.09483087 -113.75366211 114.2746582 C-115.46736803 111.94522378 -117.17371141 109.61050347 -118.87866211 107.2746582 C-119.5940918 106.30141602 -120.30952148 105.32817383 -121.04663086 104.32543945 C-125.53405135 97.83949767 -127.20758411 92.12216221 -127.87866211 84.2746582 C-127.21866211 84.2746582 -126.55866211 84.2746582 -125.87866211 84.2746582 C-125.78584961 83.72036133 -125.69303711 83.16606445 -125.59741211 82.5949707 C-124.68681585 79.65532843 -123.18766801 77.63333433 -121.37866211 75.1496582 C-118.93383868 71.82996366 -118.93383868 71.82996366 -116.87866211 68.2746582 C-116.21866211 68.2746582 -115.55866211 68.2746582 -114.87866211 68.2746582 C-114.81678711 67.7177832 -114.75491211 67.1609082 -114.69116211 66.5871582 C-113.54671405 63.32988294 -111.35244127 61.6247484 -108.87866211 59.2746582 C-108.38366211 58.2846582 -108.38366211 58.2846582 -107.87866211 57.2746582 C-107.21866211 57.2746582 -106.55866211 57.2746582 -105.87866211 57.2746582 C-105.60538086 56.6971582 -105.33209961 56.1196582 -105.05053711 55.5246582 C-102.00151702 49.67053964 -98.00053111 43.99548887 -91.87866211 41.2746582 C-85.03651547 40.06534857 -79.44340461 41.19346345 -73.08959961 43.8527832 C-72.44925278 44.11757477 -71.80890594 44.38236633 -71.14915466 44.65518188 C-69.77262872 45.22506741 -68.39763984 45.79867739 -67.02407837 46.37567139 C-64.84674857 47.28803083 -62.66400048 48.1860032 -60.47900391 49.07983398 C-55.96272595 50.92760177 -51.45167471 52.7878701 -46.94116211 54.6496582 C-45.37153027 55.29686546 -43.80186895 55.94400122 -42.23217773 56.59106445 C-38.44733385 58.1514425 -34.66288438 59.71277326 -30.87866211 61.2746582 C-30.70427612 59.81068604 -30.70427612 59.81068604 -30.52636719 58.31713867 C-29.9007355 53.96031691 -28.74225594 49.81574026 -27.51538086 45.5949707 C-27.16549858 44.37667068 -27.16549858 44.37667068 -26.80854797 43.13375854 C-26.31582976 41.42368883 -25.8206856 39.71431642 -25.32324219 38.00561523 C-24.57108611 35.41660719 -23.83088195 32.82438538 -23.09155273 30.23168945 C-22.60855174 28.56090737 -22.12485027 26.89032759 -21.64038086 25.2199707 C-21.3151368 24.07578171 -21.3151368 24.07578171 -20.98332214 22.90847778 C-18.70658049 15.15977923 -16.35358838 7.48618422 -9.87866211 2.2746582 C-6.47142236 0.66634427 -3.75573261 0.02101254 0 0 Z " fill="#56B6F4" transform="translate(236.878662109375,92.725341796875)"/>
<path d="M0 0 C2.88247576 2.34201156 2.97497895 3.79983163 3.4375 7.5 C3 11 3 11 1.5625 13.25 C-0.94558808 14.96284064 -2.29786953 15.33813521 -5.171875 16.0078125 C-11.37478456 18.0290764 -14.1733032 22.4550045 -17.8125 27.625 C-18.49320557 28.55691162 -19.17391113 29.48882324 -19.87524414 30.44897461 C-21.93792563 33.28476931 -23.96924624 36.14129287 -26 39 C-27.21946319 40.67715781 -28.44071126 42.35301984 -29.6640625 44.02734375 C-30.75702399 45.53775031 -31.84827375 47.04939756 -32.9375 48.5625 C-33.43934814 49.25746582 -33.94119629 49.95243164 -34.45825195 50.66845703 C-34.91417725 51.31540527 -35.37010254 51.96235352 -35.83984375 52.62890625 C-36.43333618 53.4653064 -36.43333618 53.4653064 -37.03881836 54.31860352 C-38.13947156 56.24397781 -38.72145442 57.79630255 -39 60 C-35.37697532 64.59902316 -30.65361974 67.25024711 -25.625 70.125 C-24.53058594 70.76888672 -24.53058594 70.76888672 -23.4140625 71.42578125 C-19.69515627 73.58407504 -16.01613144 75.45727526 -12.03271484 77.09228516 C29.24534932 95.52512716 29.24534932 95.52512716 38.4375 110.3125 C39.92242963 117.40716378 37.7524444 124.56683569 35.71875 131.359375 C34.93843818 134.22617279 34.47896698 137.06814153 34 140 C29.33233308 161.87396849 29.33233308 161.87396849 22.375 168.5 C12.36088333 172.95071852 0.65620419 172.56092158 -10.125 173.0625 C-12.52648428 173.17906044 -14.92783411 173.29774563 -17.32907104 173.41929626 C-18.81045852 173.49379834 -20.29200132 173.56530474 -21.77371216 173.6330719 C-26.87694018 173.8828842 -31.9280497 174.38695332 -37 175 C-36.78794922 176.18851563 -36.57589844 177.37703125 -36.35742188 178.6015625 C-35.5609027 183.08716285 -34.7826037 187.57577793 -34.00927734 192.06542969 C-33.67458404 193.99400762 -33.3352047 195.92177927 -32.99072266 197.84863281 C-27.30213172 229.72464384 -27.30213172 229.72464384 -32.5 237.6875 C-38.09185734 244.19580062 -47.15608492 247.65755776 -54.75 251.1875 C-56.59906297 252.05576678 -58.44802523 252.92424809 -60.296875 253.79296875 C-61.10479492 254.1696167 -61.91271484 254.54626465 -62.74511719 254.93432617 C-66.83662192 256.85906647 -66.83662192 256.85906647 -70.75390625 259.10546875 C-76.54199673 262.56832202 -81.50589586 262.51562554 -88 261 C-97.16583917 256.69766733 -104.16033735 246.92712643 -110.3515625 239.16015625 C-115.84947209 232.45005696 -122.01675028 226.2744227 -128 220 C-135.82155295 226.59133946 -143.57817318 233.24166436 -149 242 C-151.125 244.375 -151.125 244.375 -153 246 C-153.66 246 -154.32 246 -155 246 C-155.25136719 246.57621094 -155.50273437 247.15242187 -155.76171875 247.74609375 C-157.15956034 250.29043002 -158.75401021 252.01975392 -160.8125 254.0625 C-161.47894531 254.73410156 -162.14539063 255.40570313 -162.83203125 256.09765625 C-167.96603916 260.60263256 -171.8590712 261.66486046 -178.59375 261.48535156 C-184.37515429 260.66156775 -189.44725044 258.3151192 -194.6484375 255.77539062 C-196.51301072 254.86867306 -198.39410679 254.00702905 -200.28125 253.1484375 C-206.40896951 250.2588012 -210.63699998 248.1915305 -214 242 C-214 238.38973663 -213.4443746 236.63237923 -211.375 233.6875 C-209 232 -209 232 -205.8125 231.875 C-200.1849889 230.58344007 -197.91619416 226.99654328 -194.35107422 222.63183594 C-192.87025185 220.84328937 -191.34886863 219.09604363 -189.81640625 217.3515625 C-184.41851901 211.20577995 -179.14447759 204.99832697 -174.07421875 198.578125 C-170.02777912 193.54865201 -165.81597187 188.66268294 -161.56884766 183.80224609 C-160.52863274 182.60727775 -159.49436019 181.40710875 -158.46630859 180.20166016 C-144.60812715 163.9795147 -144.60812715 163.9795147 -133.48046875 162.546875 C-121.36265939 162.18553457 -114.1282766 165.6229095 -105.2578125 173.55859375 C-100.89003214 177.75528594 -97.14816741 182.42293493 -93.3515625 187.1328125 C-89.72555611 191.55389005 -85.98607352 195.89825917 -82 200 C-81.67 200 -81.34 200 -81 200 C-81.27263672 198.68733154 -81.27263672 198.68733154 -81.55078125 197.34814453 C-90.35732682 154.39365398 -90.35732682 154.39365398 -83 142 C-77.94685527 134.40640063 -70.8688965 129.91584737 -62 128 C-58.78731932 127.63294367 -55.57781737 127.49263028 -52.34765625 127.3671875 C-51.44752304 127.32562531 -50.54738983 127.28406311 -49.61997986 127.24124146 C-46.76777245 127.11133302 -43.91522276 126.99299056 -41.0625 126.875 C-39.1191064 126.78852619 -37.17574637 126.70129443 -35.23242188 126.61328125 C-30.48862465 126.40008327 -25.74448598 126.19725087 -21 126 C-33.05046169 119.11852594 -33.05046169 119.11852594 -45.4375 112.875 C-55.73220026 107.83062199 -64.34656331 102.03651974 -68.80859375 91 C-71.8081247 80.73953552 -69.6614136 72.32282719 -65 63 C-64.34 63 -63.68 63 -63 63 C-62.62875 61.93072266 -62.62875 61.93072266 -62.25 60.83984375 C-60.85341419 57.66697536 -59.12588958 55.29958283 -57 52.5625 C-53.39072561 47.84990271 -49.87629722 43.08843716 -46.4375 38.25 C-45.99599609 37.62939697 -45.55449219 37.00879395 -45.09960938 36.36938477 C-44.06520448 34.91377645 -43.03241521 33.45702021 -42 32 C-53.45463697 36.62721046 -53.45463697 36.62721046 -64.75 41.625 C-66.49848541 42.42000621 -68.24853344 43.21158323 -70 44 C-71.02351562 44.46792969 -72.04703125 44.93585938 -73.1015625 45.41796875 C-81.90602922 49.16879765 -89.9270557 51.01454726 -99.23828125 47.92578125 C-107.9334216 43.97344473 -114.09778479 38.17869683 -118.08984375 29.46875 C-120.96067901 21.68176337 -123.69929904 13.36118413 -123 5 C-120.4375 2 -120.4375 2 -117 0 C-112.93732438 -0.07004613 -110.90316035 0.17653027 -107.875 2.9375 C-107.25625 3.618125 -106.6375 4.29875 -106 5 C-104.34183216 5.68753301 -102.67540664 6.35561283 -101 7 C-99.1875 8.1875 -99.1875 8.1875 -98 10 C-97.41028947 14.46495113 -97.71619063 16.51220265 -100 20.4375 C-100.99 21.7059375 -100.99 21.7059375 -102 23 C-99.49049157 27.18251405 -97.58584227 30.12397362 -93 32 C-87.05386355 32.41037263 -83.53646009 31.7449891 -78.1328125 28.9921875 C-76.81924044 28.34228213 -75.50440383 27.69492792 -74.18847656 27.04980469 C-73.50547485 26.7113855 -72.82247314 26.37296631 -72.11877441 26.02429199 C-68.52005568 24.28454152 -64.85145251 22.71101357 -61.1796875 21.1328125 C-60.42672897 20.80763138 -59.67377045 20.48245026 -58.897995 20.14741516 C-56.55791108 19.13780568 -54.21653497 18.13123897 -51.875 17.125 C-50.23960461 16.42063106 -48.60426983 15.71612141 -46.96899414 15.01147461 C-43.76875429 13.63289044 -40.56793647 12.25566088 -37.36669922 10.87939453 C-33.59708572 9.25814452 -29.83108976 7.62875731 -26.06640625 5.99609375 C-24.19014686 5.18479708 -22.31384912 4.37358911 -20.4375 3.5625 C-19.6129834 3.20365723 -18.7884668 2.84481445 -17.93896484 2.47509766 C-11.56169584 -0.27103529 -6.81982189 -1.8388904 0 0 Z " fill="#5ABAF6" transform="translate(385,158)"/>
<path d="M0 0 C2.35262763 3.52894145 3.1447351 6.97862918 4.13671875 11.03515625 C4.55313856 12.66624512 4.9704872 14.29709709 5.38867188 15.92773438 C6.03846814 18.48372983 6.68215019 21.04064915 7.30932617 23.60229492 C10.52208559 36.65753879 13.75245297 47.36975419 25.7890625 54.84375 C33.24167673 58.74123024 40.64813943 59.37452157 48.859375 57.265625 C52.30643751 55.97996385 55.64986471 54.51494551 59 53 C62.22519876 51.56752292 65.45241947 50.13971117 68.68066406 48.71411133 C70.95973151 47.70397461 73.23520845 46.68569412 75.50683594 45.65893555 C76.5590332 45.1875415 77.61123047 44.71614746 78.6953125 44.23046875 C79.64422363 43.80145264 80.59313477 43.37243652 81.57080078 42.93041992 C84 42 84 42 87 42 C85.49938145 45.25634226 83.6338125 47.99785117 81.5 50.875 C80.79746094 51.83019531 80.09492188 52.78539062 79.37109375 53.76953125 C78.80237549 54.54224365 78.80237549 54.54224365 78.22216797 55.33056641 C75.98067235 58.39236166 73.77113264 61.47695722 71.5625 64.5625 C71.12550781 65.17013184 70.68851563 65.77776367 70.23828125 66.40380859 C67.94197523 69.59219804 67.94197523 69.59219804 66 73 C65.34 73 64.68 73 64 73 C63.566875 74.299375 63.566875 74.299375 63.125 75.625 C62.43718442 77.68844675 61.69855062 79.73687627 60.875 81.75 C58.32826412 91.20930468 60.48833463 99.69036882 65.0625 108.125 C71.39461079 117.38682085 83.2338338 121.88996748 93 126.75 C95.60877715 128.04836295 98.21210248 129.3568241 100.8125 130.671875 C101.95332031 131.2400293 103.09414063 131.80818359 104.26953125 132.39355469 C107 134 107 134 109 137 C107.77482666 137.04487549 106.54965332 137.08975098 105.28735352 137.13598633 C100.70766785 137.30724555 96.12883324 137.49594024 91.55004883 137.68969727 C89.57465052 137.77089571 87.59905624 137.84747175 85.62329102 137.91918945 C82.77034493 138.02357431 79.91853574 138.14500137 77.06640625 138.26953125 C76.19415909 138.29779495 75.32191193 138.32605865 74.42323303 138.35517883 C64.1422687 138.84237197 56.51790854 141.91988131 49 149 C44.48924912 154.78301394 42.56894063 160.00564424 42.5 167.3125 C42.49282959 168.05508057 42.48565918 168.79766113 42.47827148 169.56274414 C42.67598052 179.60262523 44.9280437 189.4663627 46.953125 199.26879883 C47.09274155 199.95420746 47.23235809 200.63961609 47.37620544 201.34579468 C47.7636001 203.2347357 48.16282672 205.12123889 48.56274414 207.00756836 C49 210 49 210 48 213 C46.78083065 211.57763576 45.56170681 210.15523249 44.34277344 208.73266602 C43.2686518 207.47990827 42.19376473 206.22780645 41.11816406 204.97631836 C38.33163261 201.73197646 35.55721252 198.47904779 32.8125 195.19921875 C20.63087916 180.25943927 20.63087916 180.25943927 3.03125 173.69140625 C-6.8750451 173.32978265 -13.24477119 175.28797967 -20.91796875 181.5703125 C-25.21956938 185.6455131 -28.80565759 190.39760923 -32.51953125 195 C-35.25021477 198.30262195 -38.06083483 201.51208965 -40.9375 204.6875 C-41.41026367 205.21690186 -41.88302734 205.74630371 -42.37011719 206.29174805 C-43.53763086 207.56800073 -44.76429961 208.78964731 -46 210 C-46.66 210 -47.32 210 -48 210 C-47.70721146 203.74896465 -46.78147061 197.73989103 -45.49658203 191.62719727 C-40.98276779 170.82072907 -40.98276779 170.82072907 -47.171875 151.19921875 C-52.71831342 144.52690073 -60.52546189 139.84681217 -69.20800781 138.71121216 C-75.50115469 138.14794346 -81.81211207 137.95740494 -88.125 137.75 C-90.054753 137.67350996 -91.98444247 137.59539919 -93.9140625 137.515625 C-98.60885018 137.32503488 -103.30395644 137.15647118 -108 137 C-104.42770805 133.1012309 -100.85374399 130.54952412 -96.125 128.15234375 C-95.47805176 127.81376846 -94.83110352 127.47519318 -94.16455078 127.12635803 C-92.11417234 126.05453136 -90.05774182 124.99511167 -88 123.9375 C-85.94302577 122.87497141 -83.88763478 121.80968049 -81.83544922 120.7379303 C-80.56398502 120.07439976 -79.28971271 119.41621204 -78.01220703 118.76438904 C-68.98050385 114.06548974 -64.85584157 108.10111608 -60.625 99.0625 C-58.59814181 89.13089484 -60.27706866 80.96278403 -65.78515625 72.51953125 C-66.86817154 70.94399515 -67.96099406 69.37516465 -69.0625 67.8125 C-69.91944458 66.575 -69.91944458 66.575 -70.79370117 65.3125 C-75.06974301 59.18634509 -79.56596415 53.27156092 -84.26953125 47.46875 C-86 45 -86 45 -86 42 C-78.10047832 44.42670591 -70.70464124 47.709224 -63.1875 51.125 C-60.78689119 52.21488593 -58.38427948 53.29996694 -55.98046875 54.3828125 C-54.92754639 54.86121582 -53.87462402 55.33961914 -52.78979492 55.83251953 C-45.44729502 58.90522755 -37.2883704 59.41764311 -29.69140625 56.90625 C-20.09763082 52.40280485 -15.13710481 46.56930331 -11 37 C-10.03106891 34.05514397 -9.28582689 31.07594274 -8.5625 28.0625 C-8.14396266 26.39922604 -7.72333988 24.73647565 -7.30078125 23.07421875 C-7.0888916 22.23681152 -6.87700195 21.3994043 -6.65869141 20.53662109 C-5.60008578 16.45993004 -4.43603154 12.41618024 -3.25 8.375 C-2.93397827 7.28264038 -2.93397827 7.28264038 -2.61157227 6.16821289 C-1.12293033 1.12293033 -1.12293033 1.12293033 0 0 Z " fill="#1C5186" transform="translate(256,148)"/>
<path d="M0 0 C2.88247576 2.34201156 2.97497895 3.79983163 3.4375 7.5 C3 11 3 11 1.5625 13.25 C-0.94558808 14.96284064 -2.29786953 15.33813521 -5.171875 16.0078125 C-11.37478456 18.0290764 -14.1733032 22.4550045 -17.8125 27.625 C-18.49320557 28.55691162 -19.17391113 29.48882324 -19.87524414 30.44897461 C-21.93792563 33.28476931 -23.96924624 36.14129287 -26 39 C-27.21946319 40.67715781 -28.44071126 42.35301984 -29.6640625 44.02734375 C-30.75702399 45.53775031 -31.84827375 47.04939756 -32.9375 48.5625 C-33.43934814 49.25746582 -33.94119629 49.95243164 -34.45825195 50.66845703 C-34.91417725 51.31540527 -35.37010254 51.96235352 -35.83984375 52.62890625 C-36.43333618 53.4653064 -36.43333618 53.4653064 -37.03881836 54.31860352 C-38.13947156 56.24397781 -38.72145442 57.79630255 -39 60 C-35.37697532 64.59902316 -30.65361974 67.25024711 -25.625 70.125 C-24.89539063 70.55425781 -24.16578125 70.98351562 -23.4140625 71.42578125 C-19.69515627 73.58407504 -16.01613144 75.45727526 -12.03271484 77.09228516 C29.24534932 95.52512716 29.24534932 95.52512716 38.4375 110.3125 C39.93775621 117.48039078 37.6890573 124.66833214 35.6875 131.5390625 C34.92536267 134.08749427 34.92536267 134.08749427 34.5 137.125 C33.59674825 142.31869757 32.24019608 147.1839986 29.25 151.5625 C25.93939152 153.67761098 23.84750804 153.60750127 20 153 C17.0625 150.75 17.0625 150.75 15 148 C15 146.68 15 145.36 15 144 C13.92347168 143.58681519 13.92347168 143.58681519 12.82519531 143.1652832 C10.0584532 142.02410967 7.44803241 140.7424483 4.796875 139.35546875 C3.81589844 138.84306641 2.83492188 138.33066406 1.82421875 137.80273438 C0.30248047 137.00319336 0.30248047 137.00319336 -1.25 136.1875 C-2.74853516 135.40536133 -2.74853516 135.40536133 -4.27734375 134.60742188 C-9.54710329 131.84854777 -14.78052522 129.0374099 -19.97119141 126.13256836 C-22.98419131 124.45058201 -26.02048074 122.81654075 -29.0625 121.1875 C-29.69172363 120.84984619 -30.32094727 120.51219238 -30.96923828 120.16430664 C-35.03831199 117.99630818 -39.14994743 115.94464659 -43.30297852 113.94287109 C-54.31956631 108.59748302 -63.99840737 102.89765907 -68.80859375 91 C-71.8081247 80.73953552 -69.6614136 72.32282719 -65 63 C-64.34 63 -63.68 63 -63 63 C-62.7525 62.28714844 -62.505 61.57429688 -62.25 60.83984375 C-60.85341419 57.66697536 -59.12588958 55.29958283 -57 52.5625 C-53.39072561 47.84990271 -49.87629722 43.08843716 -46.4375 38.25 C-45.99599609 37.62939697 -45.55449219 37.00879395 -45.09960938 36.36938477 C-44.06520448 34.91377645 -43.03241521 33.45702021 -42 32 C-53.45463697 36.62721046 -53.45463697 36.62721046 -64.75 41.625 C-66.49848541 42.42000621 -68.24853344 43.21158323 -70 44 C-71.02351563 44.46792969 -72.04703125 44.93585938 -73.1015625 45.41796875 C-81.90602922 49.16879765 -89.9270557 51.01454726 -99.23828125 47.92578125 C-107.9334216 43.97344473 -114.09778479 38.17869683 -118.08984375 29.46875 C-120.96067901 21.68176337 -123.69929904 13.36118413 -123 5 C-120.4375 2 -120.4375 2 -117 0 C-112.93732438 -0.07004613 -110.90316035 0.17653027 -107.875 2.9375 C-107.25625 3.618125 -106.6375 4.29875 -106 5 C-104.34183216 5.68753301 -102.67540664 6.35561283 -101 7 C-99.1875 8.1875 -99.1875 8.1875 -98 10 C-97.41028947 14.46495113 -97.71619063 16.51220265 -100 20.4375 C-100.66 21.283125 -101.32 22.12875 -102 23 C-99.49049157 27.18251405 -97.58584227 30.12397362 -93 32 C-87.05386355 32.41037263 -83.53646009 31.7449891 -78.1328125 28.9921875 C-76.81924044 28.34228213 -75.50440383 27.69492792 -74.18847656 27.04980469 C-73.50547485 26.7113855 -72.82247314 26.37296631 -72.11877441 26.02429199 C-68.52005568 24.28454152 -64.85145251 22.71101357 -61.1796875 21.1328125 C-60.42672897 20.80763138 -59.67377045 20.48245026 -58.897995 20.14741516 C-56.55791108 19.13780568 -54.21653497 18.13123897 -51.875 17.125 C-50.23960461 16.42063106 -48.60426983 15.71612141 -46.96899414 15.01147461 C-43.76875429 13.63289044 -40.56793647 12.25566088 -37.36669922 10.87939453 C-33.59708572 9.25814452 -29.83108976 7.62875731 -26.06640625 5.99609375 C-24.19014686 5.18479708 -22.31384912 4.37358911 -20.4375 3.5625 C-19.6129834 3.20365723 -18.7884668 2.84481445 -17.93896484 2.47509766 C-11.56169584 -0.27103529 -6.81982189 -1.8388904 0 0 Z " fill="#5CC1F7" transform="translate(385,158)"/>
<path d="M0 0 C13.46204844 -0.58814775 13.46204844 -0.58814775 19.51171875 4.1953125 C24.82086286 9.30385923 26.27424365 16.22015312 28.1796875 23.09179688 C29.18916062 26.67061944 30.2508445 30.2332937 31.3125 33.796875 C31.93771279 35.90668936 32.56177064 38.01684052 33.18515015 40.12719727 C33.60231526 41.53878482 34.02046226 42.95008259 34.43960571 44.36108398 C35.0343474 46.36933796 35.62164312 48.37962746 36.20703125 50.390625 C36.5522583 51.56657227 36.89748535 52.74251953 37.25317383 53.95410156 C38 57 38 57 38 61 C39.20011719 60.50072998 40.40023437 60.00145996 41.63671875 59.48706055 C46.11644463 57.62384663 50.59692876 55.76246212 55.07763672 53.90161133 C57.01176135 53.09806899 58.94568377 52.29403974 60.87939453 51.48950195 C63.66905735 50.32893898 66.45945796 49.17016581 69.25 48.01171875 C70.10553467 47.65534836 70.96106934 47.29897797 71.8425293 46.93180847 C89.76228349 39.50114328 89.76228349 39.50114328 98 41 C101.09696602 42.59760017 103.49540148 44.59558542 106 47 C106.825 47.7425 107.65 48.485 108.5 49.25 C110 51 110 51 110 53 C110.66 53 111.32 53 112 53 C112.94641306 54.37562534 113.8838518 55.7581939 114.77783203 57.16845703 C117.07886448 60.61678812 119.7964085 63.74706147 122.4375 66.9375 C124.64609295 69.60865212 126.83646192 72.29220109 129 75 C129.49564453 75.61262695 129.99128906 76.22525391 130.50195312 76.85644531 C133.36020527 80.57298858 134.68873698 83.17121052 134.625 87.875 C134.63789063 88.82117188 134.65078125 89.76734375 134.6640625 90.7421875 C133.04889363 98.66601596 127.53841032 105.30147851 122.8125 111.6875 C121.66375889 113.25889268 120.51532502 114.83051 119.3671875 116.40234375 C118.8009668 117.17433105 118.23474609 117.94631836 117.65136719 118.74169922 C115.22380245 122.06147654 112.82748295 125.4031108 110.4375 128.75 C109.67308594 129.81734375 108.90867187 130.8846875 108.12109375 131.984375 C106.02874295 134.95913525 104.00356498 137.96512153 102 141 C97.76251805 139.4430464 93.90335568 137.36859546 90 135.125 C89.39671875 134.78597656 88.7934375 134.44695312 88.171875 134.09765625 C78.87223554 128.78068847 78.87223554 128.78068847 76.87109375 124.6953125 C77.07067719 120.52220418 79.5258944 117.99485391 82.0625 114.875 C83.16929357 113.46067117 84.27470226 112.04525777 85.37890625 110.62890625 C85.96687988 109.8827002 86.55485352 109.13649414 87.16064453 108.36767578 C90.36142048 104.24753705 93.42294446 100.02535404 96.5 95.8125 C98.18372805 93.51249187 99.86996723 91.21488068 101.57080078 88.92749023 C102.7586583 87.3254856 103.92510173 85.70762941 105.0859375 84.0859375 C107.30232012 81.67053277 109.04300927 80.86589683 112.125 79.8125 C115.92942169 78.5162651 115.92942169 78.5162651 119 76 C119.31537716 71.66356399 119.44897847 69.67346771 117 66 C111.11845727 64.64444219 107.0967136 65.13796301 101.5234375 67.48828125 C100.83744476 67.76174881 100.15145203 68.03521637 99.44467163 68.31697083 C97.28579514 69.18777983 95.14176354 70.08797557 93 71 C92.3248938 71.286474 91.6497876 71.572948 90.95422363 71.86810303 C86.86492112 73.61600009 82.79990993 75.415343 78.7428894 77.23675537 C75.07651142 78.88263413 71.40356132 80.5137043 67.73046875 82.14453125 C66.63023125 82.63342834 66.63023125 82.63342834 65.50776672 83.13220215 C57.25506588 86.78962116 48.93895543 90.29209869 40.60595703 93.76245117 C39.61063965 94.17857666 38.61532227 94.59470215 37.58984375 95.0234375 C36.72222412 95.38356934 35.85460449 95.74370117 34.96069336 96.11474609 C33.03870926 96.84346142 33.03870926 96.84346142 32 98 C27.3783693 98.39166362 24.92916516 98.46458258 20.75 96.375 C17.71407693 93.75306644 16.02730339 91.43082112 14 88 C14.99 86.7315625 14.99 86.7315625 16 85.4375 C18.28380937 81.51220265 18.58971053 79.46495113 18 75 C16.40240167 72.56156044 15.29454917 72.08836475 12.5 71.25 C8.92026192 69.46013096 8.25120619 66.60414562 7 63 C6.10664159 59.89763522 5.35940884 56.76831874 4.625 53.625 C3.20250456 47.68373086 1.68633845 41.81448535 -0.13598633 35.98266602 C-4.1427739 23.12942362 -4.1427739 23.12942362 -3 17 C-0.0625 14.5625 -0.0625 14.5625 3 13 C4.6512107 9.6975786 4.17284656 6.27906458 3.6875 2.6875 C3.3471875 1.8521875 3.3471875 1.8521875 3 1 C2.01 0.67 1.02 0.34 0 0 Z " fill="#5FC3F8" transform="translate(268,93)"/>
<path d="M0 0 C3.25 0.375 3.25 0.375 6.125 2.375 C8.25 5.375 8.25 5.375 8.12109375 9.1640625 C8.01236242 13.66307784 9.67759932 16.31563068 12.4375 19.75 C13.35751544 20.96167457 14.27674621 22.17394522 15.1953125 23.38671875 C15.9363623 24.34650635 15.9363623 24.34650635 16.69238281 25.32568359 C18.91041609 28.24389227 21.02269673 31.23395898 23.14599609 34.22143555 C27.21109394 39.93198685 31.30500585 45.56443632 35.8125 50.9375 C59.71807258 79.51833217 59.71807258 79.51833217 59.52734375 95.43359375 C58.78479525 103.30879125 54.8394905 110.82157073 49.25 116.375 C46.06956867 118.68905724 42.71442646 120.52332379 39.25 122.375 C38.3115625 122.93703125 37.373125 123.4990625 36.40625 124.078125 C26.96060596 129.63133331 26.96060596 129.63133331 21.25 128.375 C18.3125 126.25 18.3125 126.25 16.25 123.375 C15.67008597 119.23275694 15.90450326 117.89324511 18.25 114.375 C18.93094385 109.09028356 17.41335804 106.34937495 14.5 102 C14.09950439 101.39841064 13.69900879 100.79682129 13.28637695 100.17700195 C9.67704539 94.83068386 5.80562208 89.6807538 1.90527344 84.54492188 C-3.30809142 77.67917987 -8.30091501 70.67403284 -13.20605469 63.58544922 C-14.81552191 61.28119302 -16.45762681 59.00241801 -18.1015625 56.72265625 C-23.86920762 48.58549007 -28.66860539 41.75281261 -28.75 31.375 C-28.09 31.375 -27.43 31.375 -26.75 31.375 C-26.61078125 30.54355469 -26.61078125 30.54355469 -26.46875 29.6953125 C-25.55815374 26.75567023 -24.0590059 24.73367613 -22.25 22.25 C-19.80517657 18.93030546 -19.80517657 18.93030546 -17.75 15.375 C-17.09 15.375 -16.43 15.375 -15.75 15.375 C-15.688125 14.818125 -15.62625 14.26125 -15.5625 13.6875 C-14.41805194 10.43022474 -12.22377916 8.7250902 -9.75 6.375 C-9.42 5.715 -9.09 5.055 -8.75 4.375 C-7.10178756 3.34486723 -5.43496298 2.34385372 -3.75 1.375 C-2.75 0.375 -2.75 0.375 0 0 Z " fill="#67CCFC" transform="translate(137.75,145.625)"/>
<path d="M0 0 C9.43819187 5.46962753 18.02031862 13.77912226 23.79296875 23.0390625 C24.73384785 27.11620525 24.20631634 28.33484068 22.10546875 31.9140625 C18.17017071 34.43859332 17.37416618 33.98410498 12.91796875 33.4140625 C8.03205798 33.1808713 5.48155554 33.9392044 1.85546875 37.078125 C-2.05999952 40.86109502 -5.65272617 44.9192745 -9.20703125 49.0390625 C-10.30724609 50.23982422 -10.30724609 50.23982422 -11.4296875 51.46484375 C-15.28519049 55.70677529 -18.80353842 60.23951107 -22.3671875 64.7265625 C-24.60412771 67.53817312 -26.88341228 70.29838372 -29.20703125 73.0390625 C-29.79742187 73.74546875 -30.3878125 74.451875 -30.99609375 75.1796875 C-31.62257813 75.91703125 -32.2490625 76.654375 -32.89453125 77.4140625 C-33.47589844 78.10242188 -34.05726563 78.79078125 -34.65625 79.5 C-36.20703125 81.0390625 -36.20703125 81.0390625 -38.20703125 81.0390625 C-38.45839844 81.61527344 -38.70976562 82.19148438 -38.96875 82.78515625 C-40.36659159 85.32949252 -41.96104146 87.05881642 -44.01953125 89.1015625 C-44.68597656 89.77316406 -45.35242188 90.44476563 -46.0390625 91.13671875 C-51.17307041 95.64169506 -55.06610245 96.70392296 -61.80078125 96.52441406 C-67.58218554 95.70063025 -72.65428169 93.3541817 -77.85546875 90.81445312 C-79.72004197 89.90773556 -81.60113804 89.04609155 -83.48828125 88.1875 C-89.61600076 85.2978637 -93.84403123 83.230593 -97.20703125 77.0390625 C-97.20703125 73.42879913 -96.65140585 71.67144173 -94.58203125 68.7265625 C-92.20703125 67.0390625 -92.20703125 67.0390625 -89.01953125 66.9140625 C-83.39202015 65.62250257 -81.12322541 62.03560578 -77.55810547 57.67089844 C-76.0772831 55.88235187 -74.55589988 54.13510613 -73.0234375 52.390625 C-67.62555026 46.24484245 -62.35150884 40.03738947 -57.28125 33.6171875 C-53.23481037 28.58771451 -49.02300312 23.70174544 -44.77587891 18.84130859 C-43.73566399 17.64634025 -42.70139144 16.44617125 -41.67333984 15.24072266 C-30.80514224 2.51860014 -17.63616814 -8.04720678 0 0 Z " fill="#62C7FA" transform="translate(268.20703125,322.9609375)"/>
<path d="M0 0 C16.4170971 -0.2831285 32.79752261 0.04618513 49.20184326 0.69171143 C51.26957977 0.77200281 53.33750108 0.84767329 55.40557861 0.91864014 C58.35055807 1.02163958 61.29422745 1.14305521 64.23828125 1.26953125 C65.11961227 1.29780502 66.0009433 1.3260788 66.90898132 1.35520935 C73.7803934 1.68437056 78.6692603 2.91721133 83.9375 7.625 C86.57745327 11.94492353 86.49250754 15.07492462 86 20 C86.70125 20.185625 87.4025 20.37125 88.125 20.5625 C92.8694695 22.93473475 95.79660572 26.86671014 98.375 31.4375 C99.93625839 37.83865938 98.80243572 44.16382624 97.5 50.5 C97.35691406 51.22703125 97.21382813 51.9540625 97.06640625 52.703125 C96.71766302 54.47009071 96.35980277 56.23525309 96 58 C96.66 58.33 97.32 58.66 98 59 C97.17757812 59.94359375 96.35515625 60.8871875 95.5078125 61.859375 C94.38000533 63.15607346 93.25241681 64.45296212 92.125 65.75 C91.53871826 66.42361572 90.95243652 67.09723145 90.34838867 67.79125977 C87.51932105 71.05219918 84.71252334 74.3251225 81.98046875 77.66796875 C81.52720215 78.22194336 81.07393555 78.77591797 80.60693359 79.34667969 C79.37471285 80.86104226 78.15004031 82.38153748 76.92578125 83.90234375 C76.29027344 84.59457031 75.65476562 85.28679687 75 86 C74.34 86 73.68 86 73 86 C72.7215625 86.9590625 72.7215625 86.9590625 72.4375 87.9375 C71.963125 88.618125 71.48875 89.29875 71 90 C69.329375 90.2165625 69.329375 90.2165625 67.625 90.4375 C63.91301735 90.68228793 63.91301735 90.68228793 61.5 93.1875 C59.64028275 96.67446985 59.92012423 98.2619685 61 102 C61.33 102.66 61.66 103.32 62 104 C55.32565524 102.08058059 50.20248016 100.38238025 46.25 94.3125 C43.23387976 86.31978136 44.15204185 78.94534347 45.6171875 70.69140625 C45.79379913 69.64347397 45.97041077 68.59554169 46.15237427 67.51585388 C46.52509799 65.31729663 46.90359763 63.11971149 47.28759766 60.9230957 C47.87712974 57.55031551 48.4498536 54.17501318 49.01953125 50.79882812 C49.38445495 48.65868996 49.75030725 46.51870988 50.1171875 44.37890625 C50.2901535 43.3675209 50.46311951 42.35613556 50.6413269 41.31410217 C50.80464508 40.38230637 50.96796326 39.45051056 51.13623047 38.49047852 C51.35060257 37.25878685 51.35060257 37.25878685 51.56930542 36.00221252 C52 34 52 34 53 32 C50.03 32 47.06 32 44 32 C44 31.67 44 31.34 44 31 C46.97 31 49.94 31 53 31 C53.061875 29.783125 53.12375 28.56625 53.1875 27.3125 C53.71163126 22.84150148 55.50586395 20.86698342 59 18 C56.81917045 15.81917045 52.02497886 16.32580896 49 16.0625 C48.05479492 15.97605225 47.10958984 15.88960449 46.13574219 15.80053711 C39.8502066 15.25256479 33.56590857 14.85223944 27.265625 14.53125 C26.52074829 14.49188828 25.77587158 14.45252655 25.00842285 14.41197205 C21.27174765 14.21467111 17.53539656 14.03187395 13.796875 13.87329102 C12.4114263 13.8028735 11.02600792 13.73185629 9.640625 13.66015625 C7.79259277 13.57713257 7.79259277 13.57713257 5.90722656 13.49243164 C4.46814941 13.24867798 4.46814941 13.24867798 3 13 C0.89172945 9.83759418 0.66182535 8.49342531 0.375 4.8125 C0.30023438 3.91144531 0.22546875 3.01039063 0.1484375 2.08203125 C0.09945312 1.39496094 0.05046875 0.70789063 0 0 Z " fill="#54B4F2" transform="translate(112,300)"/>
<path d="M0 0 C2.88247576 2.34201156 2.97497895 3.79983163 3.4375 7.5 C3 11 3 11 1.5625 13.25 C-1.3191651 15.21796641 -3.90155999 16.09698584 -7.21875 17.109375 C-19.34524235 20.99257761 -30.9301945 26.60377826 -42.50097656 31.86523438 C-86.78833762 51.97539989 -86.78833762 51.97539989 -99.27734375 47.94140625 C-108.78626511 43.5167001 -115.35934428 36.87508332 -119 27 C-123.61205346 12.31803051 -123.61205346 12.31803051 -123 5 C-120.4375 2 -120.4375 2 -117 0 C-112.93732438 -0.07004613 -110.90316035 0.17653027 -107.875 2.9375 C-107.25625 3.618125 -106.6375 4.29875 -106 5 C-104.34183216 5.68753301 -102.67540664 6.35561283 -101 7 C-99.1875 8.1875 -99.1875 8.1875 -98 10 C-97.41028947 14.46495113 -97.71619063 16.51220265 -100 20.4375 C-100.66 21.283125 -101.32 22.12875 -102 23 C-99.49049157 27.18251405 -97.58584227 30.12397362 -93 32 C-87.05386355 32.41037263 -83.53646009 31.7449891 -78.1328125 28.9921875 C-76.81924044 28.34228213 -75.50440383 27.69492792 -74.18847656 27.04980469 C-73.50547485 26.7113855 -72.82247314 26.37296631 -72.11877441 26.02429199 C-68.52005568 24.28454152 -64.85145251 22.71101357 -61.1796875 21.1328125 C-60.42672897 20.80763138 -59.67377045 20.48245026 -58.897995 20.14741516 C-56.55791108 19.13780568 -54.21653497 18.13123897 -51.875 17.125 C-50.23960461 16.42063106 -48.60426983 15.71612141 -46.96899414 15.01147461 C-43.76875429 13.63289044 -40.56793647 12.25566088 -37.36669922 10.87939453 C-33.59708572 9.25814452 -29.83108976 7.62875731 -26.06640625 5.99609375 C-24.19014686 5.18479708 -22.31384912 4.37358911 -20.4375 3.5625 C-19.6129834 3.20365723 -18.7884668 2.84481445 -17.93896484 2.47509766 C-11.56169584 -0.27103529 -6.81982189 -1.8388904 0 0 Z " fill="#63C8FB" transform="translate(385,158)"/>
<path d="M0 0 C1.7312915 0.72461426 1.7312915 0.72461426 3.49755859 1.46386719 C4.13790543 1.72865875 4.77825226 1.99345032 5.43800354 2.26626587 C6.81452948 2.83615139 8.18951837 3.40976138 9.56307983 3.98675537 C11.74040964 4.89911482 13.92315773 5.79708719 16.1081543 6.69091797 C20.62443225 8.53868575 25.1354835 10.39895408 29.64599609 12.26074219 C31.21562793 12.90794944 32.78528925 13.5550852 34.35498047 14.20214844 C38.13982435 15.76252648 41.92427383 17.32385724 45.70849609 18.88574219 C44.38397446 25.04800844 42.89699711 30.96868389 40.70849609 36.88574219 C40.40943359 37.72105469 40.11037109 38.55636719 39.80224609 39.41699219 C39.48255859 40.23167969 39.16287109 41.04636719 38.83349609 41.88574219 C38.54732422 42.62824219 38.26115234 43.37074219 37.96630859 44.13574219 C36.70849609 45.88574219 36.70849609 45.88574219 34.53979492 46.65356445 C30.77694083 46.96213341 28.58761314 45.89147812 25.14990234 44.35058594 C24.52429916 44.07485245 23.89869598 43.79911896 23.25413513 43.51502991 C21.2539519 42.63019164 19.26255137 41.72730824 17.27099609 40.82324219 C15.96751452 40.24191826 14.66348165 39.66182884 13.35888672 39.08300781 C11.41085688 38.21846651 9.46424487 37.35141805 7.5218811 36.47421265 C4.2755568 35.00991339 1.02063477 33.59069341 -2.28027344 32.25341797 C-2.91868668 31.9917836 -3.55709991 31.73014923 -4.21485901 31.46058655 C-5.96742486 30.7466474 -7.72513762 30.04538027 -9.4831543 29.3449707 C-12.39508839 27.83191932 -13.67014943 26.70439916 -15.29150391 23.88574219 C-15.44384766 21.88574219 -15.44384766 21.88574219 -15.22900391 19.88574219 C-15.11970879 16.80246957 -15.15901903 16.08956508 -16.91650391 13.38574219 C-19.99261133 11.4429375 -21.7103958 11.36349726 -25.29150391 11.88574219 C-27.63411999 13.26500991 -27.63411999 13.26500991 -29.29150391 14.88574219 C-23.29082113 2.20505405 -14.30181251 -4.84152739 0 0 Z " fill="#45A3EA" transform="translate(160.29150390625,135.1142578125)"/>
<path d="M0 0 C1.68997323 1.64302953 3.35216394 3.31471312 5 5 C5.763125 5.680625 6.52625 6.36125 7.3125 7.0625 C10.02268641 11.7802319 9.99884402 16.71419189 9 22 C6.13085995 28.41456135 1.97403018 34.06411332 -2.1875 39.6875 C-3.33624111 41.25889268 -4.48467498 42.83051 -5.6328125 44.40234375 C-6.1990332 45.17433105 -6.76525391 45.94631836 -7.34863281 46.74169922 C-9.77619755 50.06147654 -12.17251705 53.4031108 -14.5625 56.75 C-15.32691406 57.81734375 -16.09132813 58.8846875 -16.87890625 59.984375 C-18.97125705 62.95913525 -20.99643502 65.96512153 -23 69 C-27.23748195 67.4430464 -31.09664432 65.36859546 -35 63.125 C-35.60328125 62.78597656 -36.2065625 62.44695312 -36.828125 62.09765625 C-46.12776446 56.78068847 -46.12776446 56.78068847 -48.12890625 52.6953125 C-47.92932281 48.52220418 -45.4741056 45.99485391 -42.9375 42.875 C-41.83070643 41.46067117 -40.72529774 40.04525777 -39.62109375 38.62890625 C-39.03312012 37.8827002 -38.44514648 37.13649414 -37.83935547 36.36767578 C-34.63857952 32.24753705 -31.57705554 28.02535404 -28.5 23.8125 C-18.54314253 10.21122209 -18.54314253 10.21122209 -15.75 9.125 C-13.26674895 9.01212495 -11.36256345 9.26007694 -8.9375 9.6875 C-5.07318161 10.3934472 -5.07318161 10.3934472 -2.5625 8.4375 C-0.73854108 5.59212408 -0.30388257 3.34270828 0 0 Z " fill="#44A2E9" transform="translate(393,165)"/>
<path d="M0 0 C3.47145289 1.1174448 5.35495697 3.37861925 7.640625 6.08203125 C8.11878662 6.62529053 8.59694824 7.1685498 9.08959961 7.72827148 C12.88020296 12.06821938 16.51306263 16.53908873 20.12109375 21.03125 C23.33995949 24.91494171 26.7719188 28.5877326 30.2265625 32.26171875 C35.49112512 38.36252958 35.49112512 38.36252958 35.203125 42.39453125 C34.390625 44.76953125 34.390625 44.76953125 32.390625 47.76953125 C32.53832977 52.67686897 32.53832977 52.67686897 35.140625 56.64453125 C37.56789554 57.85816652 39.71001941 58.39722492 42.390625 58.76953125 C38.54585912 62.61429713 33.1125071 64.59046006 27.71875 64.9453125 C17.16114667 64.22547591 11.25584639 57.17011394 4.390625 49.76953125 C2.23339964 47.18643298 0.13675551 44.56126989 -1.9609375 41.9296875 C-7.45882834 35.21961109 -13.63067947 29.04755541 -19.609375 22.76953125 C-23.074375 25.24453125 -23.074375 25.24453125 -26.609375 27.76953125 C-25.24092475 24.73080982 -23.66768186 22.53919679 -21.37890625 20.125 C-20.74017578 19.44759766 -20.10144531 18.77019531 -19.44335938 18.07226562 C-18.77626953 17.37423828 -18.10917969 16.67621094 -17.421875 15.95703125 C-16.77412109 15.27060547 -16.12636719 14.58417969 -15.45898438 13.87695312 C-14.16019689 12.5055062 -12.85438496 11.14067616 -11.54150391 9.78271484 C-10.25288323 8.44003528 -8.98407069 7.07806235 -7.73583984 5.69775391 C-3.36423205 0.99214628 -3.36423205 0.99214628 0 0 Z " fill="#46A5EA" transform="translate(276.609375,355.23046875)"/>
<path d="M0 0 C3.78629184 3.44208349 6.41340822 7.37220731 9.1875 11.625 C9.63802734 12.305625 10.08855469 12.98625 10.55273438 13.6875 C13.83698716 18.67050422 15.1295549 21.0404745 15 27 C8.7182218 30.45329547 2.42500245 33.88493594 -3.87695312 37.30126953 C-5.91772358 38.41131337 -7.95562405 39.52665434 -9.99023438 40.64794922 C-12.79883947 42.195519 -15.61689456 43.72443884 -18.4375 45.25 C-19.7217688 45.96603394 -19.7217688 45.96603394 -21.03198242 46.6965332 C-25.93458169 49.32100004 -29.41383108 50.78760606 -35 50 C-35.474375 49.34 -35.94875 48.68 -36.4375 48 C-37.77865226 45.83578165 -37.77865226 45.83578165 -39.84765625 45.62890625 C-42.97556016 45.53240105 -45.23538374 45.53136423 -47.9375 47.1875 C-49.24912987 49.42498625 -49.65447612 51.44312331 -50 54 C-50.33 54 -50.66 54 -51 54 C-53.16022037 46.70925624 -54.53086104 39.24044835 -51.6875 31.9375 C-50 29 -50 29 -47 28 C-47 27.34 -47 26.68 -47 26 C-46.37706055 25.6611377 -45.75412109 25.32227539 -45.11230469 24.97314453 C-37.78386387 20.98173784 -30.47110873 16.96242142 -23.16455078 12.93115234 C-21.23892389 11.86888992 -19.31282894 10.80747953 -17.38671875 9.74609375 C-16.13799231 9.05734338 -14.88929341 8.36854307 -13.640625 7.6796875 C-12.53235352 7.06851074 -11.42408203 6.45733398 -10.28222656 5.82763672 C-6.83950758 3.91063327 -3.41780887 1.96099353 0 0 Z " fill="#46A5EB" transform="translate(142,233)"/>
<path d="M0 0 C0.8883252 -0.01820801 1.77665039 -0.03641602 2.69189453 -0.05517578 C3.44591553 -0.07443115 4.19993652 -0.09368652 4.97680664 -0.11352539 C6.91455078 0.09716797 6.91455078 0.09716797 9.91455078 2.09716797 C10.93420505 4.42197971 11.9351468 6.75511496 12.91455078 9.09716797 C15.971484 10.62563458 18.54439625 10.32959242 21.91455078 10.09716797 C24.11550491 8.65278014 24.11550491 8.65278014 25.91455078 7.09716797 C25.00834337 13.69760407 23.80574684 20.24831993 18.91455078 25.09716797 C12.75169147 29.36204876 6.54286439 29.84919619 -0.77294922 30.22216797 C-1.88331543 30.29290527 -2.99368164 30.36364258 -4.13769531 30.43652344 C-6.52107159 30.58786469 -8.9048921 30.73233703 -11.2890625 30.87060547 C-15.27403552 31.10842251 -19.25572549 31.37813125 -23.23779297 31.65966797 C-23.90628769 31.70686981 -24.57478241 31.75407166 -25.26353455 31.80270386 C-25.92511063 31.84944244 -26.58668671 31.89618103 -27.26831055 31.94433594 C-32.8732973 32.33936132 -38.4793225 32.71872095 -44.08544922 33.09716797 C-44.59335081 29.57742798 -45.09033445 26.05622755 -45.58544922 22.53466797 C-45.72853516 21.54402344 -45.87162109 20.55337891 -46.01904297 19.53271484 C-47.46614673 9.16180454 -47.46614673 9.16180454 -47.08544922 4.09716797 C-41.72562198 -1.26265927 -27.72355117 0.80412585 -20.56030273 0.59448242 C-18.52232751 0.53464972 -16.48456732 0.46962268 -14.44677734 0.40380859 C-9.63148635 0.25531944 -4.8151483 0.15164021 0 0 Z " fill="#47ACEC" transform="translate(390.08544921875,299.90283203125)"/>
<path d="M0 0 C13.46204844 -0.58814775 13.46204844 -0.58814775 19.51171875 4.1953125 C24.82086286 9.30385923 26.27424365 16.22015312 28.1796875 23.09179688 C29.18916062 26.67061944 30.2508445 30.2332937 31.3125 33.796875 C31.93771279 35.90668936 32.56177064 38.01684052 33.18515015 40.12719727 C33.60231526 41.53878482 34.02046226 42.95008259 34.43960571 44.36108398 C35.0343474 46.36933796 35.62164312 48.37962746 36.20703125 50.390625 C36.5522583 51.56657227 36.89748535 52.74251953 37.25317383 53.95410156 C38 57 38 57 38 61 C38.99 61.495 38.99 61.495 40 62 C36.67250977 63.32765778 33.33712966 64.63428181 30 65.9375 C28.59814453 66.49727539 28.59814453 66.49727539 27.16796875 67.06835938 C21.70760293 69.18759226 16.84735855 70.56558539 11 71 C7.53679296 66.20479026 6.50361981 60.89801288 5.125 55.25 C3.48711295 48.70568539 1.80947372 42.20623965 -0.20629883 35.76733398 C-4.14587062 23.14603333 -4.14587062 23.14603333 -3 17 C-0.0625 14.5625 -0.0625 14.5625 3 13 C4.6512107 9.6975786 4.17284656 6.27906458 3.6875 2.6875 C3.3471875 1.8521875 3.3471875 1.8521875 3 1 C2.01 0.67 1.02 0.34 0 0 Z " fill="#4AA8ED" transform="translate(268,93)"/>
<path d="M0 0 C2 1.375 2 1.375 3 3 C3 3.66 3 4.32 3 5 C3.61488281 4.98839844 4.22976562 4.97679687 4.86328125 4.96484375 C5.67152344 4.95582031 6.47976562 4.94679688 7.3125 4.9375 C8.51326172 4.92009766 8.51326172 4.92009766 9.73828125 4.90234375 C12.79575012 5.03435881 14.51925426 5.48227382 16.625 7.75 C18.22715919 10.37171504 18.9264865 11.91243283 19 15 C17.5 18.25 17.5 18.25 15 21 C11.25 21.875 11.25 21.875 8 22 C9.485 27.94 9.485 27.94 11 34 C12.40693115 34.08040527 13.8138623 34.16081055 15.26342773 34.24365234 C20.51387642 34.54566541 25.76371475 34.85735342 31.01342773 35.171875 C33.27987564 35.30632667 35.54647807 35.4382006 37.81323242 35.56738281 C41.08296639 35.7541837 44.35202113 35.95043699 47.62109375 36.1484375 C48.62458359 36.20373627 49.62807343 36.25903503 50.66197205 36.31600952 C56.63958988 36.68893479 62.18709711 37.54742977 68 39 C67.195625 39.886875 66.39125 40.77375 65.5625 41.6875 C63.27527602 44.41928301 62.38875908 46.40397855 62 50 C61.67 50.99 61.34 51.98 61 53 C8.11468755 53.55596722 8.11468755 53.55596722 -1 47 C-6.41611023 41.26825124 -7.70217084 33.52779901 -9.3125 26.0625 C-9.57611328 24.93392578 -9.83972656 23.80535156 -10.11132812 22.64257812 C-13.65386959 6.82536054 -13.65386959 6.82536054 -10.5 1.4375 C-6.73635524 -0.72659573 -4.31944059 -0.47993784 0 0 Z " fill="#58B9F5" transform="translate(104,278)"/>
<path d="M0 0 C4.29 0 8.58 0 13 0 C11.375 6.5 11.375 6.5 10.84155273 8.62719727 C9.74130705 13.01831866 8.65222972 17.41195746 7.57421875 21.80859375 C5.15679312 31.63056883 2.69552754 41.41348982 -0.24145508 51.09448242 C-1.25790264 54.44871816 -2.22529435 57.80327396 -3.09375 61.19921875 C-3.26825684 61.88040771 -3.44276367 62.56159668 -3.62255859 63.26342773 C-4.09125652 65.11658373 -4.54992638 66.972268 -5.0078125 68.828125 C-6.59304248 73.89586809 -9.00133368 77.6923656 -13.171875 81.0625 C-16.60235038 82.82171814 -20.25547782 82.37445222 -24 82 C-25.26225521 78.21323438 -24.53767144 77.47689939 -22.875 73.9375 C-20.71039886 69.00010398 -19.08849303 64.12653075 -17.703125 58.921875 C-17.2679434 57.3226915 -16.83220946 55.72365823 -16.39599609 54.12475586 C-16.05577423 52.87140945 -16.05577423 52.87140945 -15.7086792 51.59274292 C-13.74489744 44.40813632 -11.69636345 37.24675834 -9.66064453 30.08227539 C-9.1314444 28.21659002 -8.6041379 26.3503666 -8.07861328 24.48364258 C-7.30427311 21.73390105 -6.52387217 18.98594267 -5.7421875 16.23828125 C-5.39521317 14.99912712 -5.39521317 14.99912712 -5.04122925 13.73493958 C-3.67780734 8.9711811 -2.0511726 4.51205204 0 0 Z " fill="#297EC3" transform="translate(236,109)"/>
<path d="M0 0 C16.4170971 -0.2831285 32.79752261 0.04618513 49.20184326 0.69171143 C51.26957977 0.77200281 53.33750108 0.84767329 55.40557861 0.91864014 C58.35055807 1.02163958 61.29422745 1.14305521 64.23828125 1.26953125 C65.11961227 1.29780502 66.0009433 1.3260788 66.90898132 1.35520935 C73.79942766 1.68528236 78.70379094 2.89921299 83.9375 7.6875 C86.58427094 11.93837454 86.42304771 14.09264656 86 19 C85.29218384 18.86509659 84.58436768 18.73019318 83.85510254 18.59120178 C76.01076845 17.17950717 68.29983866 16.53205106 60.34375 16.18359375 C59.0796228 16.12220718 57.81549561 16.06082062 56.51306152 15.99757385 C53.18400906 15.8368375 49.85480138 15.681901 46.52532959 15.53027344 C41.84554386 15.31590842 37.16623569 15.09145291 32.48693848 14.86671448 C30.00717018 14.74817261 27.52727575 14.63222857 25.04724121 14.51939392 C21.69709753 14.36229867 18.34873052 14.18457988 15 14 C13.86264404 13.94731964 12.72528809 13.89463928 11.5534668 13.84036255 C10.4704126 13.77581879 9.3873584 13.71127502 8.27148438 13.64477539 C6.82050354 13.56701622 6.82050354 13.56701622 5.34020996 13.48768616 C3 13 3 13 1 10 C0.5859375 7.51953125 0.5859375 7.51953125 0.375 4.8125 C0.30023438 3.91144531 0.22546875 3.01039063 0.1484375 2.08203125 C0.09945312 1.39496094 0.05046875 0.70789063 0 0 Z " fill="#277ABF" transform="translate(112,300)"/>
<path d="M0 0 C0.09144287 0.9175708 0.18288574 1.8351416 0.27709961 2.78051758 C1.73100407 16.52365157 4.1597985 30.08414995 6.5625 43.6875 C6.97895228 46.06437666 7.39497077 48.44132937 7.81054688 50.81835938 C8.56834316 55.15111523 9.32892435 59.48336388 10.09204102 63.81518555 C11.23678496 70.34226796 12.114266 76.37257208 12 83 C10.37750059 83.83819158 8.75191503 84.6704116 7.125 85.5 C5.76761719 86.19609375 5.76761719 86.19609375 4.3828125 86.90625 C2 88 2 88 0 88 C-2.51950874 74.87939767 -5.02141216 61.75553983 -7.50286865 48.62768555 C-7.95721252 46.22616166 -8.41322242 43.82496066 -8.86962891 41.42382812 C-9.59170734 37.6180722 -10.29755345 33.80943184 -11 30 C-11.20713623 28.91299805 -11.41427246 27.82599609 -11.62768555 26.70605469 C-14.56352565 10.54805116 -14.56352565 10.54805116 -11.64453125 5.79101562 C-8.02087564 1.370901 -5.78788975 -0.15231289 0 0 Z " fill="#287CC0" transform="translate(327,303)"/>
<path d="M0 0 C3.15078009 1.34991366 4.78663118 2.66274979 6.7421875 5.46484375 C7.24355225 6.1724585 7.74491699 6.88007324 8.26147461 7.60913086 C8.79393799 8.37749268 9.32640137 9.14585449 9.875 9.9375 C11.03939922 11.58401645 12.20479631 13.22982759 13.37109375 14.875 C13.97034668 15.72449219 14.56959961 16.57398438 15.18701172 17.44921875 C18.05367091 21.48246076 20.99432926 25.4599285 23.9375 29.4375 C24.79637817 30.60273193 24.79637817 30.60273193 25.67260742 31.79150391 C28.73215692 35.94121808 31.80485533 40.08068248 34.890625 44.2109375 C35.52621338 45.06502197 36.16180176 45.91910645 36.81665039 46.79907227 C38.03067851 48.43008095 39.24840255 50.05834755 40.47045898 51.68334961 C47.5042274 61.14930754 47.5042274 61.14930754 48.5 66.875 C47.80300612 71.23121173 45.84761339 74.63901406 43 78 C42.01 78.33 41.02 78.66 40 79 C39.53851563 78.14019531 39.07703125 77.28039062 38.6015625 76.39453125 C34.82561715 69.50001128 30.81436367 63.18839086 25.91772461 57.02734375 C22.65463657 52.90580781 19.63690693 48.66334148 16.6875 44.3125 C11.58104881 36.79015267 6.28869232 29.41401281 0.9453125 22.05859375 C0.20788818 21.0382605 0.20788818 21.0382605 -0.54443359 19.99731445 C-1.5197922 18.6589366 -2.50729718 17.32933175 -3.50634766 16.00854492 C-4.72383464 14.37723127 -5.86893357 12.69237924 -7 11 C-6.34069302 6.49473563 -2.94021605 3.32708658 0 0 Z " fill="#297FC3" transform="translate(133,172)"/>
<path d="M0 0 C3 0 3 0 4.828125 1.78515625 C5.54484375 2.51605469 6.2615625 3.24695313 7 4 C8.87638933 5.21066437 10.8003635 6.34871046 12.75 7.4375 C13.34433838 7.77112549 13.93867676 8.10475098 14.55102539 8.44848633 C21.49796758 12.32474739 28.51662003 16.07262371 35.51806641 19.84912109 C42.92544488 23.85301566 50.29081701 27.92607035 57.625 32.0625 C58.57818115 32.59834717 59.5313623 33.13419434 60.51342773 33.6862793 C65.13217611 36.30175518 69.6360723 38.97714643 74 42 C73.01 45.96 72.02 49.92 71 54 C66.40533354 52.59724237 62.21742174 50.72051812 57.96875 48.5078125 C57.30379013 48.16557648 56.63883026 47.82334045 55.95372009 47.47073364 C53.79999414 46.36022432 51.64983127 45.24302806 49.5 44.125 C48.01312598 43.35509733 46.52622803 42.58524086 45.03930664 41.81542969 C36.4654255 37.36749331 27.92195067 32.86662708 19.4375 28.25 C18.58414062 27.78609863 17.73078125 27.32219727 16.8515625 26.84423828 C13.05096809 24.75590682 9.283043 22.61749384 5.56640625 20.3828125 C4.93806885 20.00527832 4.30973145 19.62774414 3.66235352 19.23876953 C0.57249834 16.93623977 -0.5259484 14.56229136 -2 11 C-2.43676496 6.70514454 -2.35323173 3.67692458 0 0 Z " fill="#2983C6" transform="translate(333,231)"/>
<path d="M0 0 C0.78761719 0.79148438 1.57523437 1.58296875 2.38671875 2.3984375 C3.83239603 3.83763192 5.29363978 5.26326325 6.8125 6.625 C8 8 8 8 8 11 C3.02281274 13.21281095 -1.95655746 15.42065497 -6.9375 17.625 C-7.6896579 17.95792053 -8.4418158 18.29084106 -9.21676636 18.6338501 C-22.38740058 24.45758213 -35.61917061 30.12662247 -48.90014648 35.69384766 C-49.57355072 35.977099 -50.24695496 36.26035034 -50.94076538 36.55218506 C-52.75857496 37.31658731 -54.57760931 38.0780751 -56.39672852 38.83935547 C-58.87936657 39.76006952 -58.87936657 39.76006952 -60 41 C-64.6216307 41.39166362 -67.07083484 41.46458258 -71.25 39.375 C-74.19143507 36.83466972 -76.06081545 34.35628096 -78 31 C-78 30.67 -78 30.34 -78 30 C-76.82937012 29.72341553 -75.65874023 29.44683105 -74.45263672 29.16186523 C-59.55294683 25.42539467 -45.32518507 18.38438299 -31.26708984 12.31079102 C-20.94837436 7.85899126 -10.65325381 3.59252982 0 0 Z " fill="#2980C4" transform="translate(360,150)"/>
<path d="M0 0 C3.5 1.875 3.5 1.875 6 4 C6 4.66 6 5.32 6 6 C4.7883903 6.96684006 3.52707449 7.87144521 2.25 8.75 C-3.94808266 13.42284916 -8.53890151 19.28135744 -13.47705078 25.20556641 C-15.84726994 27.9983062 -18.32231565 30.68938018 -20.8125 33.375 C-24.3539051 37.20322656 -27.84097927 41.06782778 -31.2578125 45.0078125 C-34.06366006 48.21629289 -36.92905997 51.37070153 -39.79296875 54.52734375 C-42.40606479 57.45493631 -44.91571926 60.4620061 -47.39453125 63.50390625 C-49.32775842 65.30542938 -50.36025515 65.83286532 -53 66 C-55.359375 65.00390625 -55.359375 65.00390625 -57.75 63.5625 C-58.54921875 63.08941406 -59.3484375 62.61632812 -60.171875 62.12890625 C-60.77515625 61.75636719 -61.3784375 61.38382812 -62 61 C-60.29211843 56.84790469 -57.35576621 53.71241975 -54.4375 50.375 C-53.89955811 49.75326904 -53.36161621 49.13153809 -52.80737305 48.4909668 C-49.68430992 44.89278605 -46.51639205 41.33904549 -43.3125 37.8125 C-40.28287132 34.47772886 -37.39391908 31.06712361 -34.5625 27.5625 C-30.65937115 22.73978582 -26.56224442 18.14100209 -22.35546875 13.58203125 C-20.24107129 11.26425891 -18.20892621 8.89852524 -16.1875 6.5 C-11.512433 1.19434257 -7.31172444 -1.3255173 0 0 Z " fill="#2980C4" transform="translate(260,337)"/>
<path d="M0 0 C7.22191694 2.31161777 14.22455548 5.02612857 21.25 7.875 C29.05133838 11.02244832 36.85366525 14.1392329 44.7421875 17.0625 C47 18 47 18 50 20 C49.54965877 21.62723299 49.08944646 23.25173664 48.625 24.875 C48.24214844 26.23238281 48.24214844 26.23238281 47.8515625 27.6171875 C47 30 47 30 45 32 C40.54420989 31.64498389 36.85343881 30.26534405 32.78125 28.48828125 C31.60046875 27.97716797 30.4196875 27.46605469 29.203125 26.93945312 C27.96866089 26.39733828 26.73428606 25.8550201 25.5 25.3125 C24.30890625 24.79494141 23.1178125 24.27738281 21.890625 23.74414062 C19.48204894 22.69755698 17.07579165 21.64562093 14.671875 20.58837891 C12.15547295 19.48855225 9.62507449 18.4347539 7.078125 17.40771484 C6.12335266 17.01678902 6.12335266 17.01678902 5.14929199 16.6179657 C3.38468262 15.89768785 1.61532484 15.18907501 -0.15429688 14.48120117 C-3.0620837 12.96768516 -4.31725875 11.76784225 -6 9 C-4.47291037 5.56404834 -2.40072955 2.88087546 0 0 Z " fill="#287DC6" transform="translate(151,150)"/>
<path d="M0 0 C2.57161458 0.03255208 5.14322917 0.06510417 7.71484375 0.09765625 C10.73494034 7.22429976 13.10993065 14.40349503 15.21484375 21.84765625 C15.81896828 23.9635537 16.42313476 26.07943917 17.02734375 28.1953125 C17.45853516 29.71342529 17.45853516 29.71342529 17.8984375 31.26220703 C18.60453772 33.7145539 19.33604404 36.15574958 20.08984375 38.59375 C20.64671875 40.42099609 20.64671875 40.42099609 21.21484375 42.28515625 C21.53453125 43.30996094 21.85421875 44.33476562 22.18359375 45.390625 C22.75713069 48.31313308 22.50633328 50.24933539 21.71484375 53.09765625 C13.43898168 55.85627694 13.43898168 55.85627694 9.71484375 54.09765625 C7.07174507 48.818378 5.67801961 43.45013804 4.33984375 37.72265625 C2.73941215 31.03820961 0.9516646 24.47005001 -1.09765625 17.91015625 C-2.87071858 12.14504141 -3.93260161 7.14047956 -3.28515625 1.09765625 C-2.28515625 0.09765625 -2.28515625 0.09765625 0 0 Z " fill="#287CC3" transform="translate(268.28515625,108.90234375)"/>
<path d="M0 0 C4.55032863 -0.08029992 7.88486291 -0.05756855 12 2 C13 3 13 3 13.01953125 5.23828125 C12.42328397 14.09199089 10.79879631 22.56196962 8.98046875 31.234375 C8.17529368 35.08039504 7.48469818 38.92994201 6.875 42.8125 C4.99235827 54.28687674 4.99235827 54.28687674 2.1953125 56.296875 C0 57 0 57 -2.140625 56.3203125 C-5.0703125 54.66015625 -5.0703125 54.66015625 -8 53 C-8.1920126 46.25255736 -7.5145048 40.11520441 -6.25 33.49609375 C-6.07243164 32.5322023 -5.89486328 31.56831085 -5.71191406 30.57521057 C-5.14876573 27.52785992 -4.57457778 24.48271405 -4 21.4375 C-3.61384889 19.35886026 -3.22842503 17.28008528 -2.84375 15.20117188 C-1.90423313 10.13251241 -0.95481686 5.06579862 0 0 Z " fill="#287DC2" transform="translate(181,333)"/>
<path d="M0 0 C0.8883252 -0.01820801 1.77665039 -0.03641602 2.69189453 -0.05517578 C3.44591553 -0.07443115 4.19993652 -0.09368652 4.97680664 -0.11352539 C6.91455078 0.09716797 6.91455078 0.09716797 9.91455078 2.09716797 C9.60672582 3.74388209 9.29315844 5.38952373 8.97705078 7.03466797 C8.80302734 7.95119141 8.62900391 8.86771484 8.44970703 9.81201172 C7.91455078 12.09716797 7.91455078 12.09716797 6.91455078 13.09716797 C4.11460629 13.40141842 1.33169046 13.64630229 -1.47607422 13.85107422 C-2.33166931 13.91624741 -3.1872644 13.98142059 -4.06878662 14.04856873 C-5.89122783 14.18610307 -7.71384755 14.32128836 -9.53662109 14.4543457 C-12.28263976 14.65579386 -15.02776528 14.86710586 -17.77294922 15.07958984 C-27.23184496 15.79330417 -36.59441859 16.3240321 -46.08544922 16.09716797 C-46.96547276 12.00681857 -47.32303895 8.29458655 -47.08544922 4.09716797 C-41.72562198 -1.26265927 -27.72355117 0.80412585 -20.56030273 0.59448242 C-18.52232751 0.53464972 -16.48456732 0.46962268 -14.44677734 0.40380859 C-9.63148635 0.25531944 -4.8151483 0.15164021 0 0 Z " fill="#2784C4" transform="translate(390.08544921875,299.90283203125)"/>
<path d="M0 0 C3.05030961 4.76610877 4.26213394 7.21666987 4 13 C-2.2817782 16.45329547 -8.57499755 19.88493594 -14.87695312 23.30126953 C-16.91772358 24.41131337 -18.95562405 25.52665434 -20.99023438 26.64794922 C-23.79883947 28.195519 -26.61689456 29.72443884 -29.4375 31.25 C-30.7217688 31.96603394 -30.7217688 31.96603394 -32.03198242 32.6965332 C-36.98604625 35.34855013 -40.36979487 36.57590254 -46 36 C-46.66 32.7 -47.32 29.4 -48 26 C-38.79336344 20.04805332 -29.25348847 14.80958013 -19.58007812 9.6574707 C-14.45150774 6.91615152 -9.45243993 4.13032495 -4.63208008 0.87182617 C-3 0 -3 0 0 0 Z " fill="#287BC3" transform="translate(153,247)"/>
<path d="M0 0 C3.15968279 1.30104586 4.38158414 2.9693069 6.125 5.875 C6.00013032 11.66062835 3.20907867 14.93163589 -0.25 19.25 C-1.34522936 20.66060522 -2.43760301 22.07343159 -3.52734375 23.48828125 C-4.08405762 24.20967285 -4.64077148 24.93106445 -5.21435547 25.67431641 C-9.22372772 30.98753039 -12.88833591 36.54868255 -16.62451172 42.05517578 C-18.66570871 45.0257112 -20.77015671 47.94930548 -22.875 50.875 C-27.26866678 50.37286665 -29.74682342 49.00317658 -32.875 45.875 C-33.83203125 43.6796875 -33.83203125 43.6796875 -33.875 40.875 C-32.28600251 38.28258567 -30.7165529 36.09185673 -28.8125 33.75 C-27.70570643 32.33567117 -26.60029774 30.92025777 -25.49609375 29.50390625 C-24.90812012 28.7577002 -24.32014648 28.01149414 -23.71435547 27.24267578 C-20.51357952 23.12253705 -17.45205554 18.90035404 -14.375 14.6875 C-3.45438412 -0.23029227 -3.45438412 -0.23029227 0 0 Z " fill="#287FC8" transform="translate(378.875,174.125)"/>
<path d="M0 0 C3.91778491 0.55889304 5.57895111 2.82501455 8.015625 5.70703125 C8.49378662 6.25029053 8.97194824 6.7935498 9.46459961 7.35327148 C13.25520296 11.69321938 16.88806263 16.16408873 20.49609375 20.65625 C23.71495949 24.53994171 27.1469188 28.2127326 30.6015625 31.88671875 C35.72832278 37.82783807 35.72832278 37.82783807 35.828125 42.01953125 C34.765625 44.39453125 34.765625 44.39453125 31.953125 46.26953125 C28.63416786 47.44092789 27.90494742 47.60605941 24.765625 46.39453125 C23.0456543 44.93920898 23.0456543 44.93920898 21.33984375 43.078125 C20.70755859 42.39556641 20.07527344 41.71300781 19.42382812 41.00976562 C18.77349609 40.29111328 18.12316406 39.57246094 17.453125 38.83203125 C16.81439453 38.14044922 16.17566406 37.44886719 15.51757812 36.73632812 C8.95456271 29.60145929 2.62792969 22.26142959 -3.671875 14.89453125 C-4.21263672 14.26289063 -4.75339844 13.63125 -5.31054688 12.98046875 C-6.61887672 11.45215424 -7.92668363 9.9233921 -9.234375 8.39453125 C-8.25571162 7.24826803 -7.27642913 6.10253337 -6.296875 4.95703125 C-5.75160156 4.31894531 -5.20632813 3.68085938 -4.64453125 3.0234375 C-2.39289982 0.42252252 -2.39289982 0.42252252 0 0 Z " fill="#287DC6" transform="translate(276.234375,355.60546875)"/>
<path d="M0 0 C2.875 1.6875 2.875 1.6875 4.875 4.6875 C5.45477821 8.49747107 5.14872261 10.22115777 3.1875 13.5625 C-0.68475109 16.04658561 -1.96670391 15.78525961 -6.4375 15.5 C-11.32223813 15.19675674 -11.32223813 15.19675674 -15.46875 17.44921875 C-16.75791787 18.91487984 -18.03085824 20.39501384 -19.28515625 21.890625 C-21.41642996 23.97212374 -22.43415111 24.32957894 -25.375 24.4375 C-29.4566667 23.62116666 -30.81675187 23.10370723 -33.125 19.6875 C-34.38006121 16.50801161 -34.25045338 15.07222371 -33.1875 11.8125 C-25.8516948 0.69764363 -12.93507759 -5.11449721 0 0 Z " fill="#69D0FE" transform="translate(287.125,341.3125)"/>
<path d="M0 0 C0.66 0.33 1.32 0.66 2 1 C1.64397705 1.48130371 1.2879541 1.96260742 0.92114258 2.45849609 C-0.78275862 4.76324523 -2.48526555 7.06901956 -4.1875 9.375 C-4.81301758 10.22175293 -5.43853516 11.06850586 -6.08300781 11.94091797 C-9.335223 16.35207171 -12.56676999 20.77592269 -15.75390625 25.234375 C-16.34212158 26.05631348 -16.93033691 26.87825195 -17.53637695 27.72509766 C-18.66485432 29.3055126 -19.78978876 30.88846428 -20.91088867 32.47412109 C-21.41982666 33.18648926 -21.92876465 33.89885742 -22.453125 34.6328125 C-22.89817383 35.26074707 -23.34322266 35.88868164 -23.80175781 36.53564453 C-25 38 -25 38 -27 39 C-27.12117188 38.43410156 -27.24234375 37.86820313 -27.3671875 37.28515625 C-27.53476562 36.55167969 -27.70234375 35.81820312 -27.875 35.0625 C-28.03742188 34.33160156 -28.19984375 33.60070312 -28.3671875 32.84765625 C-28.82961523 30.79299706 -28.82961523 30.79299706 -31 30 C-34.68012333 29.5999866 -36.3489289 29.48970103 -39.3125 31.8125 C-41.17631174 33.98047605 -41.17631174 33.98047605 -42 37 C-44.5625 38.6875 -44.5625 38.6875 -47 40 C-45.67046039 37.17282257 -44.17172379 34.7375837 -42.28515625 32.25 C-41.50301758 31.21359375 -41.50301758 31.21359375 -40.70507812 30.15625 C-40.16302734 29.4446875 -39.62097656 28.733125 -39.0625 28 C-38.25522461 26.93265625 -38.25522461 26.93265625 -37.43164062 25.84375 C-36.42603154 24.51451087 -35.41910519 23.18626645 -34.41040039 21.859375 C-33.94496826 21.24578125 -33.47953613 20.6321875 -33 20 C-32.44626709 19.32453125 -31.89253418 18.6490625 -31.32202148 17.953125 C-29.71973045 15.97901638 -29.71973045 15.97901638 -30 13 C-26.21051275 11.30753743 -22.42021168 9.61691247 -18.62915039 7.92797852 C-17.33986328 7.35328685 -16.05079878 6.77809548 -14.76196289 6.20239258 C-12.90829986 5.37449452 -11.05384101 4.54840283 -9.19921875 3.72265625 C-7.52605591 2.97640991 -7.52605591 2.97640991 -5.8190918 2.21508789 C-3 1 -3 1 0 0 Z " fill="#3D9EE9" transform="translate(372,176)"/>
<path d="M0 0 C3.36862309 1.286919 6.50375292 2.74060925 9.65234375 4.49609375 C10.51150391 4.97240234 11.37066406 5.44871094 12.25585938 5.93945312 C13.14080078 6.43380859 14.02574219 6.92816406 14.9375 7.4375 C22.89022434 11.8682294 22.89022434 11.8682294 31 16 C31 16.33 31 16.66 31 17 C25.06165528 17.84106596 19.24324092 18.19933092 13.25 18.31640625 C12.35128174 18.33718735 11.45256348 18.35796844 10.52661133 18.37937927 C7.68447764 18.44423053 4.84225967 18.50345696 2 18.5625 C0.06118956 18.60574665 -1.87761268 18.64936279 -3.81640625 18.69335938 C-8.54418671 18.79984487 -13.27205107 18.90128947 -18 19 C-17.34902344 18.4121875 -16.69804687 17.824375 -16.02734375 17.21875 C-13.66558312 15.06306024 -13.66558312 15.06306024 -13.5625 11.5 C-14.01589461 7.87284314 -14.30269013 6.41827781 -17 4 C-19.59855733 3.1957792 -19.59855733 3.1957792 -22 3 C-22 2.67 -22 2.34 -22 2 C-14.74 1.67 -7.48 1.34 0 1 C0 0.67 0 0.34 0 0 Z " fill="#3DA3EA" transform="translate(364,283)"/>
<path d="M0 0 C7.31693395 1.96530035 14.02793248 4.65292133 20.875 7.875 C22.80142901 8.76703942 24.72850829 9.65767595 26.65625 10.546875 C27.57277344 10.97033203 28.48929688 11.39378906 29.43359375 11.83007812 C34.23455921 14.01864609 39.10267065 16.03693549 44 18 C44 18.66 44 19.32 44 20 C41.03 20.495 41.03 20.495 38 21 C37.23826608 25.3164922 36.83936396 28.74433453 38 33 C34.05050296 32.37183502 30.80107972 31.1354471 27.1875 29.4375 C26.21167969 28.98246094 25.23585937 28.52742188 24.23046875 28.05859375 C23.49441406 27.70925781 22.75835937 27.35992187 22 27 C21.67 27.66 21.34 28.32 21 29 C19.85724609 27.47632813 19.85724609 27.47632813 18.69140625 25.921875 C18.19543945 25.2606665 17.69947266 24.59945801 17.18847656 23.91821289 C16.1002737 22.46711235 15.01238544 21.01577584 13.92480469 19.56420898 C11.35680651 16.13756009 8.78598555 12.7132912 6.19921875 9.30078125 C5.782771 8.7500293 5.36632324 8.19927734 4.93725586 7.63183594 C3.80869781 6.14008781 2.67784872 4.65007376 1.546875 3.16015625 C0 1 0 1 0 0 Z " fill="#3DA0EA" transform="translate(148,163)"/>
<path d="M0 0 C0.33 0 0.66 0 1 0 C1.12528076 0.54188965 1.25056152 1.0837793 1.37963867 1.64208984 C3.81073177 12.11398203 6.32044383 22.54130981 9.29956055 32.87255859 C10.73326629 37.87651952 11.91959675 42.90825719 13 48 C12.41347656 47.66613281 11.82695312 47.33226562 11.22265625 46.98828125 C7.89018412 45.50653178 5.4833492 46.17666292 2 47 C-0.33596018 48.77210772 -1.341093 50.5116395 -3 53 C-3.81350483 50.25029364 -4.62584054 47.50025107 -5.4375 44.75 C-5.66759766 43.97269531 -5.89769531 43.19539063 -6.13476562 42.39453125 C-6.35712891 41.64042969 -6.57949219 40.88632813 -6.80859375 40.109375 C-7.01282959 39.41811523 -7.21706543 38.72685547 -7.42749023 38.01464844 C-7.61641846 37.34981445 -7.80534668 36.68498047 -8 36 C-8.21769043 35.36578125 -8.43538086 34.7315625 -8.65966797 34.078125 C-9.11937792 31.27105821 -8.46718806 29.35375677 -7.63671875 26.640625 C-7.32669922 25.60679687 -7.01667969 24.57296875 -6.69726562 23.5078125 C-6.36404297 22.43273437 -6.03082031 21.35765625 -5.6875 20.25 C-5.04420939 18.13062172 -4.40225442 16.01083752 -3.76171875 13.890625 C-3.45669434 12.88580078 -3.15166992 11.88097656 -2.83740234 10.84570312 C-1.7800357 7.25250617 -0.86685045 3.64341204 0 0 Z " fill="#409FE9" transform="translate(264,113)"/>
<path d="M0 0 C4.25209792 4.12324647 8.13635705 8.51282966 12 13 C12.66 12.67 13.32 12.34 14 12 C14.71751496 16.03754825 15.42941346 20.07604335 16.13623047 24.11547852 C16.37721902 25.48814286 16.61971294 26.86054384 16.86376953 28.23266602 C17.21526968 30.21039235 17.56082421 32.18917245 17.90625 34.16796875 C18.11572266 35.35672607 18.32519531 36.5454834 18.54101562 37.77026367 C18.9398602 40.57681413 19.09322167 43.17305293 19 46 C11.49868292 38.74066089 4.77300088 30.80344563 -1.78125 22.69140625 C-4.60942825 19.26074637 -7.56937823 15.96298136 -10.56640625 12.6796875 C-12 11 -12 11 -12 10 C-11.37351562 9.89042969 -10.74703125 9.78085937 -10.1015625 9.66796875 C-9.28429687 9.50941406 -8.46703125 9.35085938 -7.625 9.1875 C-6.81289063 9.03667969 -6.00078125 8.88585937 -5.1640625 8.73046875 C-2.64179359 8.12455058 -2.64179359 8.12455058 -1 5 C-0.61500109 3.34450469 -0.27206865 1.6777567 0 0 Z " fill="#3E9FE9" transform="translate(292,347)"/>
<path d="M0 0 C0.66 0.33 1.32 0.66 2 1 C1.67 1.33 1.34 1.66 1 2 C0.60222154 5.58000612 0.53111759 7.35745744 2.6875 10.3125 C5.19598492 12.14301602 6.94082833 12.66009204 10 13 C6.26762032 16.2507823 2.3399584 18.55504716 -2.01171875 20.8515625 C-4.13760315 21.96517924 -4.13760315 21.96517924 -6 24 C-9.1328125 24.16699219 -9.1328125 24.16699219 -13.125 24.046875 C-13.8277002 24.02659241 -14.53040039 24.00630981 -15.25439453 23.9854126 C-16.74072329 23.93982096 -18.22690065 23.88904412 -19.71289062 23.83349609 C-21.99068255 23.75034015 -24.26835808 23.68847854 -26.546875 23.62890625 C-27.98962547 23.58200805 -29.43233636 23.53387249 -30.875 23.484375 C-32.19242187 23.44022461 -33.50984375 23.39607422 -34.8671875 23.35058594 C-38 23 -38 23 -40 21 C-39.10804932 20.54149658 -38.21609863 20.08299316 -37.29711914 19.6105957 C-33.94723878 17.88811047 -30.59835787 16.16368961 -27.24975586 14.4387207 C-25.80796509 13.69634088 -24.36591373 12.9544669 -22.92358398 12.21313477 C-20.83506469 11.13955622 -18.74744731 10.06424559 -16.66015625 8.98828125 C-15.98651031 8.64185577 -15.31286438 8.2954303 -14.61880493 7.93850708 C-10.20058572 5.65532302 -5.86420805 3.26502918 -1.59936523 0.70385742 C-1.07157471 0.47158447 -0.54378418 0.23931152 0 0 Z " fill="#3E9EE9" transform="translate(154,261)"/>
<path d="M0 0 C5.66978002 1.33523818 11.73877158 5.92470974 15.22265625 10.5234375 C17.03929491 15.19479406 17.72572787 18.69213586 16.22265625 23.5234375 C14.59765625 25.8984375 14.59765625 25.8984375 12.22265625 27.5234375 C8.78515625 28.0859375 8.78515625 28.0859375 5.22265625 27.5234375 C2.28515625 25.2734375 2.28515625 25.2734375 0.22265625 22.5234375 C0.22265625 21.2034375 0.22265625 19.8834375 0.22265625 18.5234375 C-0.49921875 18.2965625 -1.22109375 18.0696875 -1.96484375 17.8359375 C-5.47011524 16.20014414 -7.39858016 14.58184783 -9.77734375 11.5234375 C-10.40225898 7.56564101 -10.38741214 5.51479864 -8.27734375 2.0859375 C-5.47369578 0.33365752 -3.31010402 -0.16086487 0 0 Z " fill="#29E0FB" transform="translate(399.77734375,283.4765625)"/>
</svg>
