<svg width="40" height="40" viewBox="0 0 40 40" fill="none" xmlns="http://www.w3.org/2000/svg">
<path d="M3.90739 0.519676C3.0813 1.18184 1.16478 3.12643 0.512174 3.96461C0.0743478 4.51781 0 4.66869 0 4.95367C0 5.13807 0.0413043 5.37276 0.0908696 5.46496C0.140435 5.56554 2.56087 8.65844 5.4687 12.3381C8.36826 16.0177 10.8217 19.1525 10.9043 19.3034C11.1439 19.6889 11.1109 20.0326 10.8135 20.4433C10.673 20.6445 8.18652 23.8128 5.2787 27.5008C0.156957 33.9967 0 34.2063 0 34.5583C0 34.9271 0.140435 35.2121 0.561739 35.7066L0.817826 36L1.1813 35.6228C2.10652 34.6673 18.8017 16.3865 18.8926 16.2272C18.967 16.1015 18.9917 15.3639 19 13.5702V11.0976L12.3004 5.64936C8.60783 2.65704 5.51826 0.167637 5.41913 0.108967C5.32 0.050293 5.0887 0.0083847 4.8987 0C4.6013 0 4.46913 0.0670547 3.90739 0.519676Z" fill="white"/>
<path d="M27.7157 5.53975L20.7823 11.0879L20.7404 13.7657C20.6985 16.2929 20.6902 16.4603 20.5227 16.7197C20.3803 16.9456 7.78625 30.5523 3.22256 35.4059L2 36.7113L2.64478 37.3556L3.29793 38L13.1706 28.8285C18.5967 23.7824 23.1939 19.5732 23.3781 19.4728C23.6963 19.2971 23.8219 19.2887 26.3341 19.2636L28.955 19.2385L34.4733 12.3347L40 5.43933V5.00418C40 4.63598 39.9581 4.51883 39.6734 4.15063C38.9282 3.16318 37.2869 1.50628 36.1062 0.535564C35.5535 0.0753136 35.3861 0 34.9841 0C34.6576 0 34.3226 0.251045 27.7157 5.53975Z" fill="white"/>
<path d="M23.8105 21.1404C23.4661 21.3304 3.94969 39.1739 4.0001 39.2565C4.0169 39.2896 4.24374 39.4713 4.48738 39.6613C4.88224 39.9587 4.99146 40 5.36952 40H5.80639L12.7795 34.5148C17.4339 30.8552 19.8367 29.0213 20.0047 28.98C20.1559 28.9552 20.3828 28.98 20.534 29.0461C20.6852 29.1039 23.903 31.5987 27.692 34.5809L34.5811 40H35.018C35.4212 40 35.4969 39.967 36.0766 39.5126C36.9503 38.827 38.1937 37.6374 39.017 36.7039C39.9664 35.63 40 35.5722 40 35.0765V34.6552L34.4467 27.8235L28.8934 21H26.4822C24.3482 21 24.0458 21.0165 23.8105 21.1404Z" fill="white"/>
</svg>
