<svg width="36" height="37" viewBox="0 0 36 37" fill="none" xmlns="http://www.w3.org/2000/svg">
<path d="M21.1679 11.7386C21.0186 11.8793 20.854 12.0305 20.6937 12.1862C16.3165 16.4362 11.9398 20.6865 7.56316 24.937C5.35973 27.0769 3.15888 29.2195 0.952335 31.3562C0.133187 32.1494 -0.185676 33.0982 0.106142 34.2017C0.673192 36.346 3.30125 36.9852 4.87989 35.3596C11.2114 28.84 17.5344 22.312 23.8602 15.7868C24.0913 15.5484 24.3193 15.307 24.5104 15.1071C23.382 13.9699 22.2836 12.8631 21.1679 11.7386ZM22.3888 8.86526C22.0285 9.25214 21.6992 9.61647 21.358 9.96927C20.9776 10.3627 20.966 10.6211 21.3536 11.0105C22.6558 12.3187 23.9604 13.6245 25.2679 14.9275C25.6434 15.3016 25.8971 15.2944 26.2749 14.9172C26.6295 14.563 26.9805 14.2053 27.3534 13.8287C30.8766 17.8356 33.7306 22.2303 36 27.0168C35.9725 24.0673 35.47 21.2131 34.4955 18.4439C33.5162 15.6611 32.1082 13.1084 30.3081 10.7678C30.4459 10.6227 30.5552 10.5137 30.6576 10.3986C30.9427 10.0781 30.9529 9.81256 30.6523 9.50932C29.3529 8.19843 28.0474 6.89343 26.7393 5.59113C26.4654 5.31846 26.1686 5.316 25.8791 5.58158C25.7485 5.70144 25.6188 5.82235 25.4953 5.93666C19.4413 1.19198 12.2607 0.0928488 9.25685 0.296247C14.0704 2.53626 18.4475 5.39569 22.3888 8.86526ZM30.7169 8.6825C31.0477 8.45523 31.1284 8.15704 30.9913 7.81966C30.4997 6.60992 29.6287 5.7665 28.4313 5.27104C28.0981 5.13317 27.7693 5.19428 27.5845 5.54304C28.6336 6.59449 29.6671 7.6303 30.7169 8.6825Z" fill="white"/>
</svg>
