<?xml version="1.0" standalone="no"?>
<!DOCTYPE svg PUBLIC "-//W3C//DTD SVG 20010904//EN"
 "http://www.w3.org/TR/2001/REC-SVG-20010904/DTD/svg10.dtd">
<svg version="1.0" xmlns="http://www.w3.org/2000/svg"
 width="512.000000pt" height="512.000000pt" viewBox="0 0 512.000000 512.000000"
 preserveAspectRatio="xMidYMid meet">

<g transform="translate(0.000000,512.000000) scale(0.100000,-0.100000)"
fill="#000000" stroke="none">
<path d="M0 2560 l0 -2560 2560 0 2560 0 0 2560 0 2560 -2560 0 -2560 0 0
-2560z m2260 1662 c31 -25 39 -82 39 -285 l1 -168 33 3 32 3 5 213 c6 273 -13
252 226 252 168 0 174 -1 201 -24 l28 -24 3 -221 c3 -218 4 -221 25 -225 12
-3 62 -12 112 -21 300 -56 501 -214 559 -440 51 -199 12 -413 -97 -540 l-34
-39 56 -34 c190 -114 280 -298 268 -552 -10 -214 -74 -376 -200 -502 -129
-129 -363 -216 -652 -240 l-30 -3 -5 -223 -5 -224 -28 -24 c-27 -23 -33 -24
-203 -24 -240 0 -224 -19 -224 265 l0 215 -34 0 -34 0 -4 -216 -3 -216 -28
-24 c-27 -23 -33 -24 -202 -24 -166 0 -175 1 -199 23 l-26 22 -2 222 -2 223
-257 0 c-142 0 -269 4 -283 10 -14 5 -33 21 -42 35 -16 25 -15 35 17 222 22
130 39 203 50 218 17 20 29 22 155 28 76 4 140 10 143 13 11 11 12 1283 1
1325 -15 53 -34 59 -186 59 -136 0 -177 11 -188 52 -3 13 -6 100 -6 194 0 157
2 173 20 197 l21 26 269 3 c147 2 272 7 277 11 4 5 9 104 11 220 4 276 -13
257 226 257 153 0 176 -2 196 -18z"/>
<path d="M1998 3860 c-3 -213 -4 -220 -26 -242 -22 -23 -25 -23 -297 -23
l-275 0 0 -77 0 -78 93 0 c115 0 176 -19 228 -71 61 -61 69 -104 69 -385 0
-195 3 -247 15 -270 8 -16 15 -33 15 -39 0 -5 -7 -23 -15 -39 -12 -23 -15 -87
-15 -380 0 -226 -4 -365 -11 -391 -28 -100 -88 -137 -231 -143 -79 -4 -98 -7
-102 -21 -6 -19 -26 -141 -26 -158 0 -10 59 -13 263 -13 190 -1 266 -4 278
-13 35 -27 39 -53 39 -266 l0 -211 65 0 65 0 0 214 c0 213 0 215 24 243 l24
28 153 -1 152 -1 24 -27 c23 -27 23 -31 23 -242 l0 -214 65 0 65 0 0 204 c0
118 4 216 11 234 14 40 40 49 184 62 204 19 309 46 438 112 179 92 262 255
261 508 0 105 -4 134 -22 182 -50 124 -144 200 -322 256 -41 13 -58 24 -68 45
-24 50 -8 80 68 131 126 84 175 179 173 341 -2 139 -29 213 -107 291 -34 34
-84 73 -112 87 -73 37 -211 74 -344 92 -164 22 -154 5 -158 275 l-3 220 -65 0
-64 0 0 -209 c0 -276 13 -259 -198 -263 l-154 -3 -24 28 c-24 28 -24 30 -24
238 l0 209 -64 0 -65 0 -3 -220z m704 -473 c100 -32 156 -66 207 -123 54 -61
81 -136 81 -223 0 -98 -23 -155 -89 -222 -109 -109 -257 -149 -544 -149 l-176
0 -20 26 c-20 26 -21 38 -21 351 l0 324 26 26 25 25 217 -5 c196 -4 225 -7
294 -30z m-93 -857 c56 -6 141 -22 188 -36 165 -48 246 -108 302 -224 22 -46
26 -68 26 -140 -1 -133 -48 -220 -158 -291 -124 -80 -323 -119 -608 -119
l-170 0 -24 26 -25 27 0 348 c0 366 3 395 44 404 12 2 30 6 41 8 41 9 286 7
384 -3z"/>
<path d="M2300 3045 l0 -218 133 6 c194 9 301 42 367 112 22 23 25 36 25 95 0
61 -3 72 -31 107 -58 72 -149 101 -356 110 l-138 6 0 -218z"/>
<path d="M2300 2126 l0 -246 68 0 c100 0 287 18 359 35 139 32 223 97 238 184
18 110 -58 196 -215 241 -60 18 -112 23 -262 27 l-188 6 0 -247z"/>
</g>
</svg>
