<?xml version="1.0" standalone="no"?>
<!DOCTYPE svg PUBLIC "-//W3C//DTD SVG 20010904//EN"
 "http://www.w3.org/TR/2001/REC-SVG-20010904/DTD/svg10.dtd">
<svg version="1.0" xmlns="http://www.w3.org/2000/svg"
 width="1622.000000pt" height="472.000000pt" viewBox="0 0 1622.000000 472.000000"
 preserveAspectRatio="xMidYMid meet">
<metadata>
Created by potrace 1.14, written by Peter Selinger 2001-2017
</metadata>
<g transform="translate(0.000000,472.000000) scale(0.100000,-0.100000)"
fill="#000000" stroke="none">
<path d="M11973 4658 c-100 -79 -332 -311 -411 -411 -53 -66 -62 -84 -62 -118
0 -22 5 -50 11 -61 6 -12 299 -381 651 -820 351 -439 648 -813 658 -831 29
-46 25 -87 -11 -136 -17 -24 -318 -402 -670 -842 -620 -775 -639 -800 -639
-842 0 -44 17 -78 68 -137 l31 -35 44 45 c112 114 2133 2295 2144 2314 9 15
12 103 13 317 l0 295 -811 650 c-447 357 -821 654 -833 661 -12 7 -40 12 -63
13 -36 0 -52 -8 -120 -62z"/>
<path d="M14753 4058 l-828 -663 -5 -320 c-5 -302 -6 -322 -26 -353 -17 -27
-1521 -1653 -2066 -2233 l-146 -156 77 -77 78 -77 1179 1096 c648 603 1197
1106 1219 1118 38 21 53 22 353 25 l313 3 659 825 660 824 0 52 c0 44 -5 58
-39 102 -89 118 -285 316 -426 432 -66 55 -86 64 -134 64 -39 0 -79 -30 -868
-662z"/>
<path d="M45 3298 c-41 -22 -45 -37 -45 -170 l0 -128 183 0 183 0 44 -45 44
-45 278 0 278 0 0 -350 0 -351 25 -24 c23 -24 28 -25 174 -25 l149 0 26 31 26
31 0 344 0 344 305 0 305 0 0 -725 0 -726 25 -24 c23 -24 28 -25 175 -25 136
0 152 2 170 20 11 11 22 30 25 42 3 13 4 390 3 838 l-3 815 -22 41 c-12 22
-40 57 -62 77 -78 70 -24 67 -1205 67 -749 -1 -1067 -4 -1081 -12z"/>
<path d="M2917 3296 c-63 -23 -114 -63 -144 -113 l-28 -48 -3 -838 -2 -837 24
-25 c24 -24 29 -25 175 -25 l149 0 26 31 26 31 0 222 0 222 -40 39 -40 39 0
171 0 171 40 39 40 39 0 248 0 248 630 0 630 0 0 -275 0 -275 -598 0 -598 0
-32 -33 -32 -33 0 -135 0 -135 33 -32 33 -32 596 0 597 0 3 -256 c4 -320 -14
-294 200 -294 145 0 150 1 174 25 l24 25 -2 832 -3 833 -22 41 c-12 22 -40 57
-62 77 -76 69 -52 67 -950 67 -652 -1 -813 -3 -844 -14z"/>
<path d="M5049 3281 l-29 -29 0 -137 c0 -137 6 -167 39 -192 12 -9 110 -12
381 -13 l366 0 39 40 39 40 166 0 166 0 39 -40 39 -40 368 0 369 0 24 25 c24
23 25 28 25 169 0 79 -3 152 -6 161 -18 46 -3 45 -1029 45 l-967 0 -29 -29z"/>
<path d="M7370 3297 c-51 -26 -50 -3 -48 -877 3 -808 3 -815 24 -860 12 -25
39 -62 60 -82 74 -71 37 -68 919 -68 l792 0 24 26 c23 25 24 31 24 175 0 141
-1 150 -23 171 l-23 23 -699 3 -700 2 0 518 0 518 -45 44 -45 44 0 188 0 188
-117 0 c-75 0 -127 -5 -143 -13z"/>
<path d="M7717 3304 c-4 -4 -7 -80 -7 -169 l0 -161 33 -32 33 -32 666 0 667 0
28 24 28 24 0 151 c0 143 -1 152 -23 173 l-23 23 -697 3 c-384 1 -701 -1 -705
-4z"/>
<path d="M9449 3281 l-29 -29 0 -897 0 -896 25 -24 c23 -24 28 -25 169 -25 79
0 152 3 161 6 42 16 45 46 45 404 l0 340 598 0 598 0 32 33 32 33 0 135 0 135
-33 32 -33 32 -597 0 -597 0 0 346 0 346 -29 29 -29 29 -142 0 -142 0 -29 -29z"/>
<path d="M11113 3286 l-28 -24 -3 -329 -3 -328 41 -40 40 -39 0 -171 0 -171
-40 -39 -40 -39 0 -317 0 -317 26 -31 26 -31 149 0 c146 0 151 1 174 25 l25
24 0 900 0 899 -31 26 c-30 25 -35 26 -169 26 -132 0 -140 -1 -167 -24z"/>
<path d="M0 2186 l0 -735 26 -20 c24 -19 40 -21 174 -21 145 0 147 0 171 26
l24 26 3 691 2 691 -37 38 -37 38 -163 0 -163 0 0 -734z"/>
<path d="M5882 2867 l-32 -33 0 -681 0 -681 26 -31 26 -31 149 0 c146 0 151 1
174 25 l25 24 0 692 0 693 -27 28 -27 28 -141 0 -141 0 -32 -33z"/>
<path d="M14293 2283 c-41 -23 -2364 -2183 -2358 -2193 2 -4 29 -26 58 -49 47
-36 60 -41 105 -41 l52 0 830 664 c554 443 840 665 860 670 18 3 45 0 63 -8
18 -7 401 -309 852 -670 l820 -656 52 0 c48 0 57 4 126 59 104 83 252 227 350
340 113 130 117 137 117 197 l0 51 -661 827 -661 826 -287 0 c-254 0 -290 -2
-318 -17z"/>
</g>
</svg>
