<?xml version="1.0" encoding="UTF-8"?>
<svg version="1.1" xmlns="http://www.w3.org/2000/svg" width="512" height="512">
<path d="M0 0 C168.96 0 337.92 0 512 0 C512 168.96 512 337.92 512 512 C343.04 512 174.08 512 0 512 C0 343.04 0 174.08 0 0 Z " fill="#11151B" transform="translate(0,0)"/>
<path d="M0 0 C4.29002135 0.5177612 5.51174088 1.51973596 8.625 4.4375 C10.37109375 7.046875 10.37109375 7.046875 12.0625 10.1875 C12.74686928 11.43329796 13.43323198 12.67800199 14.12109375 13.921875 C14.50765137 14.62505859 14.89420898 15.32824219 15.29248047 16.05273438 C17.99556819 20.89036003 20.82260022 25.65697923 23.625 30.4375 C27.91902675 37.78473249 32.18979709 45.14260084 36.3984375 52.5390625 C40.11410376 59.05833558 43.87614524 65.55111372 47.62890625 72.04907227 C48.60537109 73.73987915 48.60537109 73.73987915 49.6015625 75.46484375 C49.93142151 76.03600418 50.26128052 76.60716461 50.60113525 77.19563293 C52.95581468 81.27436343 55.30336134 85.35714851 57.6484375 89.44140625 C65.09610657 102.475627 65.09610657 102.475627 72.875 115.3125 C76.24730333 120.7439974 79.46956012 126.25286768 82.625 131.8125 C83.1190332 132.65796387 83.61306641 133.50342773 84.12207031 134.37451172 C86.82948588 139.21082705 88.45000605 142.73546704 87.625 148.4375 C85.5625 150.875 85.5625 150.875 82.625 152.4375 C77.31269026 152.87696499 73.93095045 152.02656479 69.1953125 149.65625 C68.60669937 149.36674469 68.01808624 149.07723938 67.41163635 148.77896118 C65.5179227 147.84429839 63.63422327 146.89112691 61.75 145.9375 C60.45100453 145.29263986 59.15127672 144.64925286 57.85083008 144.00732422 C55.28579827 142.74020007 52.72369496 141.4674442 50.16357422 140.19042969 C45.57557508 137.91763861 40.95312393 135.72532008 36.3125 133.5625 C35.26570068 133.07233398 35.26570068 133.07233398 34.19775391 132.57226562 C32.67422131 131.85913961 31.14974964 131.14802009 29.625 130.4375 C29.295 131.0975 28.965 131.7575 28.625 132.4375 C29.83800781 132.80359375 31.05101562 133.1696875 32.30078125 133.546875 C38.73465586 135.69443369 44.73210664 138.70556087 50.8125 141.6875 C52.01734821 142.2748816 53.22234578 142.86195693 54.42749023 143.44873047 C56.77483309 144.59383042 59.12098822 145.74136904 61.46582031 146.89160156 C64.11467663 148.18778071 66.76933789 149.46984638 69.4296875 150.7421875 C70.68252212 151.34848236 71.93515361 151.95519731 73.1875 152.5625 C74.22003906 153.06007812 75.25257813 153.55765625 76.31640625 154.0703125 C78.625 155.4375 78.625 155.4375 80.625 158.4375 C81.10425039 162.7507535 81.09760063 164.74336782 78.625 168.375 C77.965 169.055625 77.305 169.73625 76.625 170.4375 C77.27726563 170.13714844 77.92953125 169.83679688 78.6015625 169.52734375 C87.70891428 165.56470544 87.70891428 165.56470544 92.625 167.4375 C95.94236977 169.61998011 96.52591609 170.98336543 97.375 174.875 C97.1124221 180.30834271 93.90016028 184.40320847 90.9609375 188.80078125 C88.45609743 192.57557304 86.35992091 196.5498898 84.21337891 200.53588867 C81.12531255 206.17709198 77.7807127 211.66880228 74.48046875 217.1875 C71.26786798 222.58528268 68.18815945 228.03257096 65.20117188 233.55810547 C62.26463083 238.92266016 59.18769476 244.20679724 56.125 249.5 C55.48691406 250.60666016 54.84882813 251.71332031 54.19140625 252.85351562 C51.34509806 257.78071376 48.48216199 262.69323919 45.53125 267.55859375 C42.94943249 271.83619691 40.55734963 276.19883475 38.18310547 280.59423828 C35.45139066 285.57912556 32.56423437 290.47284209 29.6875 295.375 C29.10548828 296.36951172 28.52347656 297.36402344 27.92382812 298.38867188 C26.75316803 300.38903569 25.58202962 302.38911967 24.41040039 304.38891602 C22.54245858 307.57844007 20.67657011 310.7691491 18.8125 313.9609375 C18.25046875 314.92306152 17.6884375 315.88518555 17.109375 316.87646484 C15.90779772 318.94958091 14.72980885 321.03257496 13.5625 323.125 C6.665 334.9175 6.665 334.9175 3.625 336.4375 C0.3125 336.875 0.3125 336.875 -3.375 336.4375 C-6.79104369 333.18034206 -8.95382689 329.68533304 -11.21875 325.5390625 C-12.67629516 322.88987569 -14.21518137 320.29265267 -15.75 317.6875 C-17.96062927 313.90652943 -20.11460968 310.10804233 -22.1875 306.25 C-25.21065591 300.64946184 -28.4501283 295.18636695 -31.69360352 289.71191406 C-34.58256464 284.82248259 -37.344294 279.88048123 -40.03515625 274.87890625 C-41.78459024 271.6911621 -43.66494968 268.59277979 -45.55078125 265.484375 C-51.23549802 255.98955898 -56.71360332 246.3675776 -62.1875 236.75 C-65.76464262 230.47174969 -69.41247161 224.23610496 -73.0625 218 C-78.56128021 208.60354843 -83.96185446 199.15584368 -89.2878418 189.66040039 C-90.05028198 188.30289673 -90.05028198 188.30289673 -90.828125 186.91796875 C-91.27317383 186.12285889 -91.71822266 185.32774902 -92.17675781 184.50854492 C-93.17756378 182.77874929 -94.26645896 181.10031156 -95.375 179.4375 C-96.24245186 172.71474808 -96.24245186 172.71474808 -94.2421875 169.76953125 C-92.75 168.375 -92.75 168.375 -89.375 166.4375 C-84.67451639 166.76650924 -80.97866009 168.34966417 -76.7578125 170.3671875 C-76.11987259 170.66950287 -75.48193268 170.97181824 -74.82466125 171.28329468 C-72.71303174 172.28603764 -70.60661553 173.29927136 -68.5 174.3125 C-67.01214321 175.02122849 -65.52393568 175.7292211 -64.03540039 176.43652344 C-60.84505693 177.9539612 -57.65685578 179.47577904 -54.47021484 181.00097656 C-46.47280192 184.82780718 -38.46269532 188.62795775 -30.45428467 192.43170166 C-27.85752135 193.66609866 -25.26187426 194.90281406 -22.66650391 196.14013672 C-21.04720137 196.9111346 -19.42789803 197.68213078 -17.80859375 198.453125 C-17.08795242 198.7973349 -16.3673111 199.1415448 -15.62483215 199.4961853 C-14.24609313 200.1520623 -12.86499967 200.80301656 -11.48141479 201.4486084 C-9.98220548 202.15243725 -8.49119764 202.87385059 -7.00613403 203.60705566 C-6.22044037 203.98261597 -5.4347467 204.35817627 -4.62524414 204.74511719 C-3.91751358 205.09129089 -3.20978302 205.4374646 -2.48060608 205.79412842 C3.77463957 207.70542955 11.21792127 202.25909576 16.55859375 199.42578125 C18.625 198.4375 18.625 198.4375 20.625 198.4375 C20.625 197.7775 20.625 197.1175 20.625 196.4375 C20.11638428 196.68508057 19.60776855 196.93266113 19.08374023 197.18774414 C16.75167694 198.31021675 14.40763464 199.40511641 12.0625 200.5 C11.26263672 200.88994141 10.46277344 201.27988281 9.63867188 201.68164062 C8.4543457 202.22788086 8.4543457 202.22788086 7.24609375 202.78515625 C6.5286499 203.12554932 5.81120605 203.46594238 5.07202148 203.81665039 C-0.72319866 205.28699308 -5.71434339 203.07911782 -10.85546875 200.515625 C-11.4578537 200.21928162 -12.06023865 199.92293823 -12.68087769 199.61761475 C-13.97358554 198.98056006 -15.26416869 198.33917865 -16.55276489 197.69384766 C-19.99696426 195.96921144 -23.4566268 194.27602377 -26.9140625 192.578125 C-27.6186409 192.23100464 -28.3232193 191.88388428 -29.04914856 191.52624512 C-36.12590529 188.04772163 -43.27425581 184.73326493 -50.4375 181.4375 C-66.04303447 174.22326266 -66.04303447 174.22326266 -72 171.3125 C-73.02351563 170.81492187 -74.04703125 170.31734375 -75.1015625 169.8046875 C-77.375 168.4375 -77.375 168.4375 -79.375 165.4375 C-79.71522038 161.69507582 -79.86654707 159.3088789 -78 156 C-76.375 154.4375 -76.375 154.4375 -74.375 154.4375 C-74.375 153.7775 -74.375 153.1175 -74.375 152.4375 C-75.426875 152.499375 -76.47875 152.56125 -77.5625 152.625 C-81.63438651 152.42474329 -83.44675551 152.27700981 -86.375 149.4375 C-87.57068036 141.54235872 -84.08941924 136.21481039 -80.25 129.5 C-79.68023437 128.46681641 -79.11046875 127.43363281 -78.5234375 126.36914062 C-75.51339286 120.9681628 -72.31881844 115.77887015 -68.84033203 110.67016602 C-66.1269841 106.53594961 -63.77418562 102.19638626 -61.375 97.875 C-56.63585524 89.41456446 -51.82899059 80.99833537 -46.9375 72.625 C-46.37095703 71.65425537 -45.80441406 70.68351074 -45.22070312 69.68334961 C-42.62425424 65.24493943 -40.0062849 60.82250802 -37.33984375 56.42578125 C-34.74005046 52.10871679 -32.3237096 47.70952997 -29.92871094 43.27636719 C-27.21430881 38.31673992 -24.35582593 33.44164462 -21.5 28.5625 C-20.58190552 26.99302612 -20.58190552 26.99302612 -19.64526367 25.3918457 C-5.1482983 0.667372 -5.1482983 0.667372 0 0 Z " fill="#78D1F9" transform="translate(255.375,87.5625)"/>
<path d="M0 0 C2.23634324 0.90425903 4.44079136 1.88939171 6.6171875 2.9296875 C7.25512741 3.23200287 7.89306732 3.53431824 8.55033875 3.84579468 C10.66196826 4.84853764 12.76838447 5.86177136 14.875 6.875 C16.36285679 7.58372849 17.85106432 8.2917211 19.33959961 8.99902344 C22.52994307 10.5164612 25.71814422 12.03827904 28.90478516 13.56347656 C36.90219808 17.39030718 44.91230468 21.19045775 52.92071533 24.99420166 C55.51747865 26.22859866 58.11312574 27.46531406 60.70849609 28.70263672 C62.32779863 29.4736346 63.94710197 30.24463078 65.56640625 31.015625 C66.28704758 31.3598349 67.0076889 31.7040448 67.75016785 32.0586853 C69.12890687 32.7145623 70.51000033 33.36551656 71.89358521 34.0111084 C73.39279452 34.71493725 74.88380236 35.43635059 76.36886597 36.16955566 C77.15455963 36.54511597 77.9402533 36.92067627 78.74975586 37.30761719 C79.45748642 37.65379089 80.16521698 37.9999646 80.89439392 38.35662842 C87.14963957 40.26792955 94.59292127 34.82159576 99.93359375 31.98828125 C102 31 102 31 104 31 C104 29.68 104 28.36 104 27 C104.91998779 26.56768066 105.83997559 26.13536133 106.7878418 25.68994141 C109.53453939 24.39910015 112.28099543 23.10774627 115.02734375 21.81616211 C118.1400805 20.35227205 121.25344864 18.88973569 124.3671875 17.42797852 C131.21569271 14.21051771 138.05931083 10.98657285 144.86328125 7.67578125 C145.83370361 7.2051123 146.80412598 6.73444336 147.80395508 6.24951172 C149.5661759 5.39193907 151.32528764 4.52793998 153.08081055 3.65673828 C155.02620247 2.71192116 157.0096093 1.84591605 159 1 C159.99 1.495 159.99 1.495 161 2 C164.0991521 2.24282147 164.0991521 2.24282147 166.8125 0.4375 C170.55969778 -1.25241272 172.12549143 -1.26342671 176 0 C179.31736977 2.18248011 179.90091609 3.54586543 180.75 7.4375 C180.4874221 12.87084271 177.27516028 16.96570847 174.3359375 21.36328125 C171.83109743 25.13807304 169.73492091 29.1123898 167.58837891 33.09838867 C164.50031255 38.73959198 161.1557127 44.23130228 157.85546875 49.75 C154.64286798 55.14778268 151.56315945 60.59507096 148.57617188 66.12060547 C145.63963083 71.48516016 142.56269476 76.76929724 139.5 82.0625 C138.86191406 83.16916016 138.22382813 84.27582031 137.56640625 85.41601562 C134.72009806 90.34321376 131.85716199 95.25573919 128.90625 100.12109375 C126.32443249 104.39869691 123.93234963 108.76133475 121.55810547 113.15673828 C118.82639066 118.14162556 115.93923437 123.03534209 113.0625 127.9375 C112.48048828 128.93201172 111.89847656 129.92652344 111.29882812 130.95117188 C110.12816803 132.95153569 108.95702962 134.95161967 107.78540039 136.95141602 C105.91745858 140.14094007 104.05157011 143.3316491 102.1875 146.5234375 C101.62546875 147.48556152 101.0634375 148.44768555 100.484375 149.43896484 C99.28279772 151.51208091 98.10480885 153.59507496 96.9375 155.6875 C90.04 167.48 90.04 167.48 87 169 C83.6875 169.4375 83.6875 169.4375 80 169 C76.58395631 165.74284206 74.42117311 162.24783304 72.15625 158.1015625 C70.69870484 155.45237569 69.15981863 152.85515267 67.625 150.25 C65.41437073 146.46902943 63.26039032 142.67054233 61.1875 138.8125 C58.16434409 133.21196184 54.9248717 127.74886695 51.68139648 122.27441406 C48.79243536 117.38498259 46.030706 112.44298123 43.33984375 107.44140625 C41.59040976 104.2536621 39.71005032 101.15527979 37.82421875 98.046875 C32.13950198 88.55205898 26.66139668 78.9300776 21.1875 69.3125 C17.61035738 63.03424969 13.96252839 56.79860496 10.3125 50.5625 C4.81371979 41.16604843 -0.58685446 31.71834368 -5.9128418 22.22290039 C-6.42113525 21.31789795 -6.92942871 20.41289551 -7.453125 19.48046875 C-7.89817383 18.68535889 -8.34322266 17.89024902 -8.80175781 17.07104492 C-9.80256378 15.34124929 -10.89145896 13.66281156 -12 12 C-12.86745186 5.27724808 -12.86745186 5.27724808 -10.8671875 2.33203125 C-7.05505641 -1.23061482 -4.82009153 -1.21035078 0 0 Z " fill="#77D1FA" transform="translate(172,255)"/>
<path d="M0 0 C0.95777344 0.47373047 1.91554688 0.94746094 2.90234375 1.43554688 C3.87816406 1.93763672 4.85398437 2.43972656 5.859375 2.95703125 C11.57882274 5.83210934 17.26188219 8.68132766 23.19140625 11.1015625 C30.78025478 14.20384825 38.19970291 17.65491924 45.62084961 21.13525391 C47.24849137 21.89625055 48.87841632 22.65238141 50.51049805 23.40380859 C52.90140194 24.50473532 55.28522793 25.61981629 57.66796875 26.73828125 C58.39197372 27.0686438 59.1159787 27.39900635 59.86192322 27.73937988 C64.22742545 29.81337156 67.47173281 31.97451045 70.609375 35.76953125 C71.234375 39.33203125 71.234375 39.33203125 70.609375 42.76953125 C67.04829136 46.14443067 62.99716898 48.25549196 58.60546875 50.34375 C57.59729599 50.83214104 57.59729599 50.83214104 56.5687561 51.33039856 C54.3979904 52.37939847 52.22273438 53.41864331 50.046875 54.45703125 C48.55450128 55.17426106 47.06223278 55.89170985 45.57006836 56.609375 C37.30683937 60.57384656 29.02117294 64.48909085 20.671875 68.26953125 C19.86355225 68.63651123 19.05522949 69.00349121 18.22241211 69.3815918 C12.86394962 71.76953125 12.86394962 71.76953125 10.609375 71.76953125 C10.609375 72.42953125 10.609375 73.08953125 10.609375 73.76953125 C7.76830848 75.15248665 4.9099588 76.4953304 2.046875 77.83203125 C1.24701172 78.22197266 0.44714844 78.61191406 -0.37695312 79.01367188 C-1.16650391 79.37783203 -1.95605469 79.74199219 -2.76953125 80.1171875 C-3.4869751 80.45758057 -4.20441895 80.79797363 -4.94360352 81.14868164 C-10.73882366 82.61902433 -15.72996839 80.41114907 -20.87109375 77.84765625 C-21.4734787 77.55131287 -22.07586365 77.25496948 -22.69650269 76.949646 C-23.98921054 76.31259131 -25.27979369 75.6712099 -26.56838989 75.02587891 C-30.01258926 73.30124269 -33.4722518 71.60805502 -36.9296875 69.91015625 C-37.6342659 69.56303589 -38.3388443 69.21591553 -39.06477356 68.85827637 C-46.14153029 65.37975288 -53.28988081 62.06529618 -60.453125 58.76953125 C-76.05865947 51.55529391 -76.05865947 51.55529391 -82.015625 48.64453125 C-83.03914062 48.14695312 -84.06265625 47.649375 -85.1171875 47.13671875 C-87.390625 45.76953125 -87.390625 45.76953125 -89.390625 42.76953125 C-89.93472414 36.78444071 -89.93472414 36.78444071 -88.30493164 33.74438477 C-85.73436634 31.09251603 -82.81558947 29.95376472 -79.44921875 28.609375 C-77.99603962 28.00137982 -76.54410765 27.39039748 -75.09326172 26.77685547 C-73.94262238 26.29185577 -73.94262238 26.29185577 -72.76873779 25.79705811 C-68.6906089 24.0349941 -64.68487603 22.1237813 -60.67578125 20.2109375 C-59.84194916 19.81401703 -59.00811707 19.41709656 -58.14901733 19.00814819 C-55.58273247 17.78483268 -53.01786471 16.55858244 -50.453125 15.33203125 C-48.7429551 14.51603172 -47.03266895 13.70027576 -45.32226562 12.88476562 C-44.05943253 12.28225479 -44.05943253 12.28225479 -42.77108765 11.66757202 C-41.09240768 10.86784521 -39.41291121 10.06982989 -37.73257446 9.27359009 C-33.67876805 7.3507964 -29.64219832 5.40312406 -25.63232422 3.39013672 C-24.87390732 3.01606186 -24.11549042 2.641987 -23.33409119 2.25657654 C-21.92210159 1.55956803 -20.5158487 0.85074664 -19.11720276 0.12733459 C-12.53859055 -3.08717499 -6.71374948 -3.40742623 0 0 Z " fill="#FAFBFC" transform="translate(265.390625,210.23046875)"/>
<path d="M0 0 C8.82713718 4.17950628 17.65398807 8.35959669 26.47619629 12.54949951 C29.7451806 14.10192034 33.01466036 15.65329617 36.28417969 17.20458984 C37.94975528 17.99516107 39.61511455 18.78618818 41.28027344 19.57763672 C43.74356173 20.74829423 46.20764098 21.9172723 48.671875 23.0859375 C49.40734558 23.43594818 50.14281616 23.78595886 50.90057373 24.14657593 C60.98071664 29.44567484 60.98071664 29.44567484 72 30 C76.68336232 28.27371718 81.14510906 26.12703628 85.625 23.9375 C86.88799462 23.33403776 88.15158848 22.73182812 89.41577148 22.13085938 C96.71429449 18.64858189 103.9721832 15.08103837 111.1796875 11.4140625 C115.72371237 9.1357564 120.35885442 7.0709763 125 5 C127.06311778 4.06386031 129.12563093 3.12638681 131.1875 2.1875 C132.79166667 1.45833333 134.39583333 0.72916667 136 0 C133.12813795 5.85944014 129.89851021 11.53612411 126.75 17.25 C126.39407776 17.89626343 126.03815552 18.54252686 125.67144775 19.20837402 C120.30159404 28.94758818 114.79253097 38.59352669 109.15136719 48.17871094 C105.00623256 55.23460942 100.97866377 62.34904602 97 69.5 C90.7038332 80.81042093 84.23727952 92.01530967 77.65673828 103.16259766 C76.4554674 105.21994663 75.27407034 107.28894133 74.10498047 109.36474609 C73.48123535 110.46512207 72.85749023 111.56549805 72.21484375 112.69921875 C71.64757568 113.71201904 71.08030762 114.72481934 70.49584961 115.76831055 C70.00221924 116.50476807 69.50858887 117.24122559 69 118 C68.34 118 67.68 118 67 118 C57.63379004 101.80052904 48.31287856 85.57609289 39.03901672 69.32356262 C36.65897061 65.15293402 34.27558077 60.98422895 31.890625 56.81640625 C30.53112349 54.44017652 29.17175492 52.06387079 27.8125 49.6875 C27.31537003 48.81841003 27.31537003 48.81841003 26.80819702 47.9317627 C21.61549289 38.85140543 16.45495317 29.75329931 11.33520508 20.6315918 C8.3885972 15.39649916 5.3528643 10.23183814 2.20361328 5.11572266 C1 3 1 3 0 0 Z " fill="#30628E" transform="translate(188,281)"/>
<path d="M0 0 C4.33750066 1.44583355 5.29365098 4.71843499 7.3125 8.5625 C8.20973588 10.22401072 9.10961397 11.88409653 10.01171875 13.54296875 C10.49431152 14.43161621 10.9769043 15.32026367 11.47412109 16.23583984 C14.10388239 20.99970503 16.8678381 25.68409783 19.625 30.375 C25.4642651 40.33633474 31.21896592 50.34394886 36.93212891 60.37792969 C40.37871559 66.42834222 43.84412816 72.46672402 47.34765625 78.484375 C48.05153829 79.69546096 48.75539611 80.90656098 49.45922852 82.11767578 C50.79497281 84.41568701 52.13611342 86.71025921 53.48022461 89.00341797 C54.07456299 90.02580566 54.66890137 91.04819336 55.28125 92.1015625 C55.80783203 93.00213379 56.33441406 93.90270508 56.87695312 94.83056641 C58 97 58 97 58 99 C51.10020419 96.9284751 44.76842383 94.11262656 38.3125 90.9375 C36.28839938 89.95961382 34.26364153 88.98308705 32.23828125 88.0078125 C31.21041504 87.5118457 30.18254883 87.01587891 29.12353516 86.50488281 C24.09400089 84.08171186 19.05774635 81.67627397 14 79.3125 C13.09934814 78.8786499 12.19869629 78.4447998 11.27075195 77.99780273 C6.33211059 75.7093462 2.51698451 74.04411605 -3 75 C-7.27615506 76.68672722 -11.34182839 78.73092145 -15.4375 80.8125 C-17.23135128 81.70107529 -19.02522228 82.58961509 -20.82058716 83.47512817 C-22.0461574 84.07981742 -23.27098709 84.68600981 -24.49508667 85.29367065 C-30.77258553 88.40421793 -37.12622547 91.34232938 -43.5 94.25 C-44.51376709 94.71510986 -45.52753418 95.18021973 -46.57202148 95.65942383 C-53.5941399 98.8647133 -53.5941399 98.8647133 -57 100 C-55.68262139 96.50202538 -54.14158449 93.3529666 -52.234375 90.140625 C-51.68104492 89.20226807 -51.12771484 88.26391113 -50.55761719 87.29711914 C-49.96110352 86.29156982 -49.36458984 85.28602051 -48.75 84.25 C-43.64415996 75.57763909 -38.6426583 66.85687284 -33.75 58.0625 C-29.55586673 50.53284321 -25.31649182 43.04097601 -20.91503906 35.63061523 C-16.19775017 27.68057329 -11.60376525 19.65907565 -7.00024414 11.64282227 C-6.38141357 10.56701904 -5.76258301 9.49121582 -5.125 8.3828125 C-4.57070312 7.41746582 -4.01640625 6.45211914 -3.4453125 5.45751953 C-2.35469661 3.60310407 -1.19335335 1.79003003 0 0 Z " fill="#326895" transform="translate(255,113)"/>
<path d="M0 0 C0.71884369 0.34787064 1.43768738 0.69574127 2.17831421 1.05415344 C2.94042206 1.41584122 3.70252991 1.77752899 4.48773193 2.150177 C6.91664951 3.30517602 9.34039134 4.47061645 11.76425171 5.63618469 C13.36940467 6.4005201 14.97487087 7.16419804 16.58065796 7.92720032 C25.14806486 12.00696503 33.67428693 16.15981097 42.13925171 20.44868469 C40.6723126 23.38256291 38.619815 23.78722555 35.65487671 25.13618469 C33.924552 25.93065002 33.924552 25.93065002 32.15927124 26.74116516 C30.90274994 27.31067354 29.64607347 27.87983968 28.38925171 28.44868469 C25.82816874 29.61536471 23.2686639 30.78547419 20.70956421 31.95649719 C20.06772186 32.24952728 19.42587952 32.54255737 18.7645874 32.84446716 C14.74826725 34.68565992 10.77349201 36.59432334 6.81893921 38.56587219 C5.87373413 39.03380188 4.92852905 39.50173157 3.9546814 39.98384094 C2.20169479 40.85683464 0.45455972 41.74171027 -1.28555298 42.64009094 C-2.07091431 43.02809875 -2.85627563 43.41610657 -3.66543579 43.81587219 C-4.33558716 44.15731262 -5.00573853 44.49875305 -5.69619751 44.85054016 C-11.47284496 46.44683909 -16.81474712 43.30403512 -21.89981079 40.84321594 C-22.66191864 40.48152817 -23.42402649 40.11984039 -24.20922852 39.74719238 C-26.63814609 38.59219336 -29.06188792 37.42675293 -31.48574829 36.26118469 C-33.09090125 35.49684929 -34.69636745 34.73317134 -36.30215454 33.97016907 C-44.86956145 29.89040435 -53.39578351 25.73755841 -61.86074829 21.44868469 C-59.73898665 19.13011808 -57.79612601 17.74857157 -54.9593811 16.41157532 C-54.18137146 16.0410907 -53.40336182 15.67060608 -52.60177612 15.28889465 C-51.76426819 14.89818787 -50.92676025 14.50748108 -50.06387329 14.10493469 C-49.19687805 13.6945697 -48.32988281 13.28420471 -47.43661499 12.86140442 C-44.66412825 11.5511277 -41.88746474 10.24996986 -39.11074829 8.94868469 C-37.25631611 8.07294463 -35.40214635 7.19664866 -33.54824829 6.31977844 C-24.1747864 1.8964415 -24.1747864 1.8964415 -20.99514771 0.43769836 C-19.63189059 -0.19399218 -18.27760641 -0.84567897 -16.93630981 -1.52275085 C-10.49525773 -4.63769672 -6.08004905 -2.86277174 0 0 Z " fill="#65819E" transform="translate(265.8607482910156,228.5513153076172)"/>
<path d="M0 0 C4.04195688 1.54278861 7.91035531 3.44709626 11.8125 5.3125 C12.87404297 5.79912109 13.93558594 6.28574219 15.02929688 6.78710938 C16.03669922 7.26599609 17.04410156 7.74488281 18.08203125 8.23828125 C19.00218018 8.67180908 19.9223291 9.10533691 20.87036133 9.55200195 C23 11 23 11 23.80737305 13.17260742 C23.90272339 14.07716675 23.90272339 14.07716675 24 15 C21.12395296 13.73152707 18.24935866 12.45979364 15.375 11.1875 C14.56675781 10.83107422 13.75851562 10.47464844 12.92578125 10.10742188 C11.73662109 9.58051758 11.73662109 9.58051758 10.5234375 9.04296875 C9.7406543 8.6979834 8.95787109 8.35299805 8.15136719 7.99755859 C6 7 6 7 2.9140625 5.23828125 C-2.2045171 3.06322799 -5.81119317 3.15987794 -10.90429688 5.11474609 C-13.76722731 6.43347371 -16.59193948 7.80620543 -19.3984375 9.2409668 C-21.93340877 10.5368639 -24.48514398 11.79805113 -27.03625488 13.0617981 C-28.36225383 13.71909369 -29.68736159 14.37819 -31.01159668 15.03903198 C-37.94586995 18.49422464 -44.96466524 21.7567775 -52 25 C-53.1127832 25.51457764 -54.22556641 26.02915527 -55.37207031 26.55932617 C-58.58032301 28.04185483 -61.7900419 29.52116804 -65 31 C-67.43767186 32.12462796 -69.87507693 33.24983281 -72.3125 34.375 C-75.15625 35.6875 -75.15625 35.6875 -78 37 C-78.33 36.34 -78.66 35.68 -79 35 C-76.34022504 31.83694398 -73.17575895 30.48995758 -69.46484375 28.76953125 C-68.80593643 28.46170715 -68.14702911 28.15388306 -67.46815491 27.83673096 C-65.29401914 26.82262632 -63.11579273 25.81764022 -60.9375 24.8125 C-59.42481058 24.10867809 -57.91244506 23.40415966 -56.40039062 22.69897461 C-53.2315513 21.22175114 -50.06130656 19.74760404 -46.89013672 18.27539062 C-39.66814715 14.91918227 -32.46513349 11.52264818 -25.26126099 8.1277771 C-23.02218192 7.07294987 -20.78255029 6.01930528 -18.54272461 4.96606445 C-17.50105385 4.47610992 -17.50105385 4.47610992 -16.43833923 3.97625732 C-15.13962599 3.36540343 -13.84085227 2.75467807 -12.54200745 2.144104 C-5.43950008 -1.19829653 -5.43950008 -1.19829653 0 0 Z " fill="#6690B2" transform="translate(260,205)"/>
<path d="M0 0 C0.66 0.33 1.32 0.66 2 1 C1 4 1 4 -1.57836914 5.54296875 C-2.71910889 6.08566406 -3.85984863 6.62835938 -5.03515625 7.1875 C-5.96882523 7.63644875 -5.96882523 7.63644875 -6.9213562 8.09446716 C-8.96373906 9.07311486 -11.01282994 10.03672015 -13.0625 11 C-14.46656167 11.66865036 -15.87028711 12.33800719 -17.27368164 13.00805664 C-29.45295852 18.80665149 -41.70359102 24.45442306 -54 30 C-54.33 28.68 -54.66 27.36 -55 26 C-53.62001831 25.351521 -53.62001831 25.351521 -52.2121582 24.68994141 C-49.46546061 23.39910015 -46.71900457 22.10774627 -43.97265625 20.81616211 C-40.8599195 19.35227205 -37.74655136 17.88973569 -34.6328125 16.42797852 C-27.78430729 13.21051771 -20.94068917 9.98657285 -14.13671875 6.67578125 C-12.68108521 5.96977783 -12.68108521 5.96977783 -11.19604492 5.24951172 C-9.4338241 4.39193907 -7.67471236 3.52793998 -5.91918945 2.65673828 C-3.97379753 1.71192116 -1.9903907 0.84591605 0 0 Z " fill="#658FB1" transform="translate(331,256)"/>
<path d="M0 0 C0.66 0.33 1.32 0.66 2 1 C-1.6438956 5.63768531 -6.63094897 7.07369925 -12 9 C-11.83984375 7.17578125 -11.83984375 7.17578125 -11 5 C-8.56640625 3.48046875 -8.56640625 3.48046875 -5.5625 2.1875 C-4.57378906 1.74792969 -3.58507812 1.30835938 -2.56640625 0.85546875 C-1.71949219 0.57316406 -0.87257812 0.29085937 0 0 Z " fill="#5E8AAC" transform="translate(193,233)"/>
<path d="M0 0 C0.99 0.33 1.98 0.66 3 1 C2.0409375 1.804375 2.0409375 1.804375 1.0625 2.625 C-1.38529404 5.44367193 -1.66714612 7.33860732 -2 11 C-2.33 11 -2.66 11 -3 11 C-3.36923077 4.6 -3.36923077 4.6 -1.5 1.5625 C-1.005 1.046875 -0.51 0.53125 0 0 Z " fill="#B0C3D3" transform="translate(179,242)"/>
</svg>
