<?xml version="1.0" standalone="no"?>
<!DOCTYPE svg PUBLIC "-//W3C//DTD SVG 20010904//EN"
 "http://www.w3.org/TR/2001/REC-SVG-20010904/DTD/svg10.dtd">
<svg version="1.0" xmlns="http://www.w3.org/2000/svg"
 width="512.000000pt" height="512.000000pt" viewBox="0 0 512.000000 512.000000"
 preserveAspectRatio="xMidYMid meet">

<g transform="translate(0.000000,512.000000) scale(0.100000,-0.100000)"
fill="#000000" stroke="none">
<path d="M0 2560 l0 -2560 2560 0 2560 0 0 2560 0 2560 -2560 0 -2560 0 0
-2560z m1820 1206 c0 -111 21 -100 -200 -105 -85 -2 -156 -4 -157 -5 -1 0 -3
-71 -4 -156 -4 -220 7 -200 -105 -200 l-94 0 0 273 c0 151 3 277 7 280 3 4
129 7 280 7 l273 0 0 -94z m2038 -188 l2 -278 -95 0 c-52 0 -95 1 -95 3 0 1
-3 81 -6 177 -4 96 -7 176 -8 176 0 1 -80 4 -176 7 -96 3 -176 6 -177 7 -2 0
-3 43 -3 95 l0 95 278 -2 277 -3 3 -277z m-1416 -205 c1 -60 3 -117 4 -128 1
-11 2 -26 3 -32 1 -9 25 -13 86 -13 l85 0 0 -70 c0 -38 -3 -71 -7 -71 -5 -1
-42 -3 -83 -5 -41 -2 -79 -3 -83 -4 -5 0 -6 -136 -3 -302 l6 -303 150 -3 150
-3 0 116 0 115 75 0 75 0 0 -115 0 -115 215 0 215 0 0 110 0 110 -95 0 -95 0
0 70 c0 82 3 84 119 78 l71 -3 0 103 0 102 -130 0 -130 0 0 75 0 75 205 0 205
0 0 -760 0 -760 -400 0 -400 0 -1 213 c-1 116 -4 264 -8 326 l-6 115 -105 -3
c-58 -1 -106 -4 -108 -5 -1 -2 -3 -70 -5 -152 l-2 -149 -120 -5 -120 -5 -3
-92 -3 -93 120 0 121 0 0 -75 0 -75 -360 0 -360 0 0 75 0 75 168 2 167 3 3
168 2 167 120 0 120 0 -2 273 -3 272 -327 3 -328 2 0 400 0 400 400 0 400 0 2
-107z m438 27 l0 -80 -80 0 -80 0 0 80 0 80 80 0 80 0 0 -80z m600 0 l0 -80
-200 0 -200 0 0 80 0 80 200 0 200 0 0 -80z m-560 -520 l0 -80 -80 0 -80 0 0
80 0 80 80 0 80 0 0 -80z m-800 -520 l0 -80 -220 0 -220 0 0 80 0 80 220 0
220 0 0 -80z m-240 -320 l0 -80 -80 0 -80 0 0 80 0 80 80 0 80 0 0 -80z m-428
-242 c2 -13 5 -93 7 -178 1 -85 3 -156 4 -156 1 -1 81 -4 177 -7 96 -3 176 -6
178 -7 1 0 2 -43 2 -95 l0 -95 -280 0 -280 0 0 280 0 280 94 0 c89 0 94 -1 98
-22z m2406 -255 l-3 -278 -277 -3 -278 -2 0 94 0 94 27 5 c16 3 95 6 178 7 82
0 150 2 152 3 1 2 3 70 3 152 1 83 4 162 7 178 l5 27 94 0 94 0 -2 -277z"/>
<path d="M1790 3081 l0 -250 23 -3 c12 -2 127 -2 255 0 l232 3 0 249 0 250
-255 0 -255 0 0 -249z m330 -1 l0 -80 -80 0 -80 0 0 80 0 80 80 0 80 0 0 -80z"/>
<path d="M2820 2040 l0 -250 255 0 255 0 0 250 0 250 -255 0 -255 0 0 -250z
m340 0 l0 -80 -80 0 -80 0 0 80 0 80 80 0 80 0 0 -80z"/>
</g>
</svg>
