<svg width="44" height="26" viewBox="0 0 44 26" fill="none" xmlns="http://www.w3.org/2000/svg">
<path d="M9.44585 7.45843C5.80927 9.31401 2.91352 11.9508 0 14.6376C0.0795527 14.3652 0.138721 14.0848 0.241625 13.8216C3.22873 6.17877 8.66164 1.49234 16.862 0.314741C20.6356 -0.22717 24.3144 0.522375 27.8578 1.8286C30.5264 2.81237 33.1393 3.94679 35.7842 4.99586C37.4919 5.67316 39.2342 6.24818 41.1042 6.16131C41.8865 6.12497 42.663 5.96453 43.4666 5.85725C42.3794 6.87285 41.0698 7.40924 39.6194 7.63565C37.2056 8.01244 34.8432 7.61555 32.4934 7.11521C31.1485 6.82883 29.8126 6.49983 28.4033 6.17397C29.9555 10.3011 29.485 14.0894 26.4695 17.3706C24.5657 19.4422 22.1248 20.4913 19.3144 20.5168C15.9276 20.5475 13.1467 19.1957 11.0936 16.4959C9.05393 13.8138 8.61292 10.7831 9.44585 7.45843ZM19.2077 7.02979C17.1286 7.00433 15.436 8.64633 15.4098 10.7141C15.3833 12.8002 17.069 14.5115 19.1582 14.5197C21.1846 14.5277 22.8735 12.8547 22.8934 10.8196C22.9139 8.73117 21.284 7.05522 19.2077 7.02979ZM26.3482 9.46114C27.15 9.48972 27.8009 8.87379 27.8139 8.07426C27.8262 7.31238 27.1992 6.65893 26.4389 6.64134C25.6746 6.62365 25.0284 7.24363 25.0103 8.01201C24.9917 8.8007 25.5761 9.43362 26.3482 9.46114Z" fill="white"/>
<path d="M39.7655 10.6198C37.4703 16.9592 33.2895 21.3538 27.0241 23.5057C18.941 26.282 11.1936 25.2902 3.91546 20.8089C2.65687 20.0339 1.55306 19.0463 0.756044 17.7742C0.483009 17.3384 0.28766 16.8539 0.102783 16.3687C2.11212 18.9713 4.98612 20.1011 7.95621 21.0169C13.3042 22.6659 18.737 22.9837 24.2186 21.768C30.5075 20.3732 35.3636 16.8667 38.9939 11.5949C39.1864 11.3154 39.3802 11.0367 39.5762 10.7595C39.5967 10.7304 39.6357 10.7143 39.7655 10.6198Z" fill="white"/>
</svg>
