<svg width="32" height="32" viewBox="0 0 32 32" fill="none" xmlns="http://www.w3.org/2000/svg">
<path d="M25.0059 7.55622C25.0267 7.33315 25.104 7.0134 25.3538 6.72936C25.6765 6.36204 26.0973 6.27133 26.3545 6.25199H30.39C30.8687 6.25199 31.2585 5.86386 31.2585 5.38351V0.868481C31.2585 0.389644 30.8702 0 30.39 0H25.8757C25.3969 0 25.0073 0.38813 25.0073 0.868481V4.89568C24.9925 5.12028 24.9196 5.49649 24.6163 5.81921C24.3486 6.10325 24.026 6.2133 23.7821 6.25345H19.6231C19.1443 6.25345 18.7547 6.64163 18.7547 7.12198V11.1492C18.7399 11.3737 18.667 11.75 18.3637 12.0727C18.0961 12.3568 17.7734 12.4668 17.5295 12.507H13.7111C13.4672 12.4668 13.1445 12.3568 12.8769 12.0727C12.63 11.811 12.5364 11.515 12.5022 11.292V7.12345C12.5022 6.64461 12.1141 6.25497 11.6338 6.25497H7.46C7.21611 6.21482 6.89343 6.10477 6.62581 5.82073C6.37899 5.55896 6.2853 5.263 6.25111 5.03997V0.868481C6.25111 0.389644 5.86298 0 5.38272 0H0.868384C0.388082 0 0 0.38813 0 0.868481V5.38351C0 5.86234 0.388082 6.25199 0.868384 6.25199H4.88757C5.1448 6.27133 5.5656 6.3635 5.88828 6.72936C6.29126 7.18739 6.24515 7.73764 6.23621 7.82986L6.25257 7.81496V11.1462C6.23772 11.3708 6.16485 11.747 5.86151 12.0697C5.59389 12.3538 5.27121 12.4638 5.02732 12.504H0.868384C0.389596 12.504 0 12.8921 0 13.3725V30.3929C0 30.8716 0.388082 31.2614 0.868384 31.2614H5.38272C5.86151 31.2614 6.25111 30.8731 6.25111 30.3929V13.8082C6.27192 13.5851 6.34924 13.2654 6.59904 12.9813C6.92171 12.614 7.34252 12.5233 7.59975 12.504H11.1401C11.3974 12.5233 11.8182 12.6155 12.1409 12.9813C12.5438 13.4394 12.4977 13.9896 12.4888 14.0818L12.5051 14.0669V17.8874C12.5051 18.3663 12.8932 18.756 13.3735 18.756H17.8879C18.3667 18.756 18.7563 18.3678 18.7563 17.8874V13.8067C18.7771 13.5836 18.8544 13.2639 19.1042 12.9798C19.4269 12.6125 19.8477 12.5218 20.1049 12.5025H23.6453C23.9026 12.5218 24.3233 12.614 24.646 12.9798C25.049 13.4379 25.0029 13.9882 24.9939 14.0803L25.0103 14.0655V30.3914C25.0103 30.8702 25.3984 31.2599 25.8787 31.2599H30.393C30.8716 31.2599 31.2614 30.8716 31.2614 30.3914V13.3725C31.2614 12.8936 30.8731 12.504 30.393 12.504H26.2192C25.9753 12.4638 25.6527 12.3538 25.385 12.0697C25.1382 11.808 25.0445 11.5121 25.0103 11.289V7.55471L25.0059 7.55622Z" fill="white"/>
</svg>
