<?xml version="1.0" encoding="UTF-8"?>
<svg version="1.1" xmlns="http://www.w3.org/2000/svg" width="512" height="512">
<path d="M0 0 C168.96 0 337.92 0 512 0 C512 168.96 512 337.92 512 512 C343.04 512 174.08 512 0 512 C0 343.04 0 174.08 0 0 Z " fill="#1D1A19" transform="translate(0,0)"/>
<path d="M0 0 C3.82723862 4.37638277 3.07112906 9.03212501 3.0218811 14.65682983 C3.0306427 15.87833237 3.0394043 17.0998349 3.0484314 18.35835266 C3.06667018 21.705996 3.06239316 25.05209448 3.04653597 28.39965129 C3.03386931 31.90471508 3.04561944 35.40971325 3.0534668 38.91477966 C3.06256242 44.80189858 3.05057935 50.68870386 3.02676392 56.57577515 C2.99956496 63.37769289 3.00835741 70.178861 3.03589594 76.98076051 C3.05860393 82.82382359 3.06177861 88.66666128 3.0487026 94.50975424 C3.04091555 97.99815849 3.0398451 101.48621071 3.05638504 104.97459221 C3.07354286 108.86506024 3.04974633 112.75469254 3.0218811 116.64511108 C3.03200226 117.79904358 3.04212341 118.95297607 3.05255127 120.14187622 C2.94870838 127.95838992 2.94870838 127.95838992 -0.03669739 131.89840698 C-2.27226463 133.46795487 -4.14566266 134.66572142 -6.6993103 135.59457397 C-7.44414673 135.87381714 -8.18898315 136.1530603 -8.95639038 136.44076538 C-9.73393677 136.71710815 -10.51148315 136.99345093 -11.31259155 137.27816772 C-12.93509205 137.88075057 -14.55748883 138.48361277 -16.17977905 139.08676147 C-16.95289429 139.36890503 -17.72600952 139.65104858 -18.52255249 139.94174194 C-21.01488197 140.85914608 -23.47831241 141.83828827 -25.93759155 142.84066772 C-29.56633482 144.30457099 -33.21659478 145.70281061 -36.87509155 147.09066772 C-41.55174544 148.87880009 -46.15781627 150.78349235 -50.75009155 152.77816772 C-55.60317345 154.87708569 -60.46305614 156.82002386 -65.44540405 158.58676147 C-77.36689945 162.81933171 -89.3120699 167.08798764 -100.9102478 172.14926147 C-107.46432619 175.00909328 -113.97640709 177.58994882 -120.7852478 179.77426147 C-128.21484658 181.83270391 -128.21484658 181.83270391 -134.62509155 185.71566772 C-141.88769752 186.3109633 -141.88769752 186.3109633 -144.7240963 184.02114868 C-147.02282341 181.23330817 -147.13080891 179.97209284 -147.14648438 176.40219116 C-147.1677388 174.78709656 -147.1677388 174.78709656 -147.18942261 173.13937378 C-147.18446777 171.96314453 -147.17951294 170.78691528 -147.17440796 169.57504272 C-147.18462982 168.33242676 -147.19485168 167.08981079 -147.2053833 165.80953979 C-147.22842334 162.40433685 -147.23332281 159.00010739 -147.2282567 155.59489441 C-147.22611675 152.75181888 -147.23588507 149.90883312 -147.24546754 147.06577682 C-147.26765249 140.35916167 -147.2685353 133.65277056 -147.25643921 126.94613647 C-147.24435207 120.02712202 -147.26900019 113.1089202 -147.31157935 106.1900444 C-147.34679949 100.24849639 -147.3588163 94.3072072 -147.35230386 88.36555862 C-147.34867638 84.8172826 -147.35396618 81.26958654 -147.38173294 77.72140503 C-147.41152879 73.76604232 -147.39296164 69.8117169 -147.36972046 65.85629272 C-147.38500793 64.68006348 -147.40029541 63.50383423 -147.41604614 62.29196167 C-147.37722099 59.31204039 -147.29122666 56.6200774 -146.62509155 53.71566772 C-143.82440186 51.06217957 -143.82440186 51.06217957 -140.62509155 49.71566772 C-139.94519165 49.38979172 -139.26529175 49.06391571 -138.56478882 48.72816467 C-137.63750977 48.38299553 -137.63750977 48.38299553 -136.6914978 48.03085327 C-135.97215057 47.75861435 -135.25280334 47.48637543 -134.51165771 47.20588684 C-133.74471588 46.92423172 -132.97777405 46.6425766 -132.18759155 46.35238647 C-131.36820099 46.04410416 -130.54881042 45.73582184 -129.70458984 45.41819763 C-127.93817946 44.75426983 -126.17052511 44.09364406 -124.40176392 43.43600464 C-119.62374878 41.65872963 -114.85544624 39.8557041 -110.08602905 38.05551147 C-109.11370331 37.6891861 -108.14137756 37.32286072 -107.1395874 36.94543457 C-98.88956072 33.83140781 -90.68260336 30.61623304 -82.48934937 27.35623169 C-67.07400505 21.22547261 -51.63258195 15.15947576 -36.16726685 9.15597534 C-33.81889079 8.24252241 -31.47190479 7.32548715 -29.12637329 6.40475464 C-25.83792782 5.11465908 -22.54472785 3.83751126 -19.25009155 2.56332397 C-18.26431122 2.17348831 -17.27853088 1.78365265 -16.26287842 1.38200378 C-5.56228514 -2.72136121 -5.56228514 -2.72136121 0 0 Z " fill="#284964" transform="translate(413.6250915527344,206.28433227539063)"/>
<path d="M0 0 C3.01261997 1.51821757 6.14185369 2.70471691 9.28125 3.93359375 C12.15325855 5.06574784 15.00304555 6.24361278 17.8515625 7.43359375 C18.86476563 7.85640625 19.87796875 8.27921875 20.921875 8.71484375 C22.89775814 9.54360292 24.87184983 10.37665185 26.84375 11.21484375 C32.58992998 13.64412309 38.37358809 15.90376399 44.2265625 18.05859375 C49.00868725 19.82221818 53.63505252 21.67980134 58.140625 24.0703125 C61.10510883 25.56516924 64.19500674 26.72584066 67.28515625 27.93359375 C70.13794459 29.05980337 72.96295988 30.24208803 75.7890625 31.43359375 C80.01098803 33.20355484 84.25687079 34.87758764 88.5390625 36.49609375 C94.47116554 38.75797476 100.24032726 41.27843476 105.9765625 43.99609375 C107.1521875 44.55296875 108.3278125 45.10984375 109.5390625 45.68359375 C111.9765625 46.99609375 111.9765625 46.99609375 113.9765625 48.99609375 C114.4247567 52.95514255 114.50739219 55.18590029 112.29492188 58.56274414 C109.76988731 61.21301999 107.88547874 62.26087513 104.5078125 63.6171875 C102.84492187 64.29612061 102.84492187 64.29612061 101.1484375 64.98876953 C99.93671875 65.46556152 98.725 65.94235352 97.4765625 66.43359375 C96.17927078 66.9558345 94.88240598 67.47913684 93.5859375 68.00341797 C89.39222552 69.69179058 85.18613917 71.34773515 80.9765625 72.99609375 C80.28723633 73.2661322 79.59791016 73.53617065 78.88769531 73.81439209 C72.43577444 76.33918054 65.97831171 78.84956563 59.5144043 81.34350586 C50.74526379 84.73024508 42.00043361 88.17198338 33.27734375 91.67578125 C32.28137177 92.07568268 31.28539978 92.47558411 30.25924683 92.88760376 C25.38481176 94.84622882 20.51251882 96.81001367 15.64257812 98.77978516 C7.29562688 102.14620635 -1.06120729 105.4511121 -9.54296875 108.46484375 C-10.23001389 108.71004761 -10.91705902 108.95525146 -11.62492371 109.20788574 C-31.46116209 116.12621622 -48.66144392 107.39969896 -67.0234375 99.99609375 C-70.50130819 98.60178908 -73.98001619 97.20958745 -77.45877075 95.81748962 C-79.94440808 94.82256099 -82.4296774 93.82675605 -84.91452026 92.82984924 C-94.31349532 89.06213949 -103.73558493 85.35554357 -113.16617584 81.66776657 C-117.85346965 79.83337967 -122.53807337 77.99213182 -127.22270584 76.15096092 C-131.06511119 74.64144973 -134.90910947 73.13628174 -138.75683594 71.64038086 C-142.40118073 70.22331751 -146.04083046 68.79480546 -149.67733383 67.35774422 C-151.02537521 66.82744878 -152.37510092 66.30141284 -153.72656631 65.77990532 C-155.58267884 65.06301714 -157.43239468 64.32963241 -159.28173828 63.59545898 C-160.32323029 63.18802963 -161.36472229 62.78060028 -162.43777466 62.36082458 C-165.21806917 60.8933658 -166.4285226 59.67540162 -168.0234375 56.99609375 C-168.83687613 53.24401646 -168.65765423 50.03390294 -166.6484375 46.74609375 C-162.70539534 44.11739898 -158.44489007 42.65261593 -154.0234375 40.99609375 C-152.06151917 40.19228894 -150.10325574 39.37951479 -148.1484375 38.55859375 C-146.62863281 37.924375 -146.62863281 37.924375 -145.078125 37.27734375 C-143.10224186 36.44858458 -141.12815017 35.61553565 -139.15625 34.77734375 C-133.41007002 32.34806441 -127.62641191 30.08842351 -121.7734375 27.93359375 C-116.99131275 26.16996932 -112.36494748 24.31238616 -107.859375 21.921875 C-104.8912034 20.42515868 -101.79739393 19.26323935 -98.703125 18.0546875 C-95.91519101 16.95333165 -93.15804415 15.79149603 -90.3984375 14.62109375 C-85.56735374 12.59253791 -80.68937996 10.74209641 -75.7734375 8.93359375 C-70.98886861 7.16921426 -66.36327736 5.30523742 -61.8515625 2.921875 C-58.92174384 1.43818478 -55.89486583 0.24796079 -52.828125 -0.921875 C-50.83563392 -1.69056585 -48.86293365 -2.5114449 -46.90625 -3.3671875 C-30.68783803 -10.01561273 -15.35610779 -8.12041091 0 0 Z " fill="#5E5031" transform="translate(283.0234375,131.00390625)"/>
<path d="M0 0 C3.0457636 0.77645577 5.89059496 1.87938955 8.79296875 3.078125 C9.60761093 3.40017914 10.42225311 3.72223328 11.26158142 4.05404663 C13.90958259 5.10491766 16.5483195 6.17719189 19.1875 7.25 C21.05332396 7.99535548 22.91970504 8.73931776 24.78662109 9.48193359 C29.38600234 11.31507667 33.9785546 13.16464425 38.56915283 15.01965332 C41.85312455 16.34406022 45.14282329 17.65351204 48.43359375 18.9609375 C53.00392988 20.77762461 57.56782764 22.60942251 62.12890625 24.44921875 C68.46088125 27.00084651 74.8126731 29.50051416 81.1685791 31.99188232 C85.56593324 33.7162064 89.95946687 35.45017991 94.35225296 37.18610382 C97.51027205 38.43342418 100.67003636 39.67585897 103.83428955 40.9072876 C107.40609145 42.29991692 110.97110187 43.70877592 114.53515625 45.12109375 C115.61715805 45.53841263 116.69915985 45.95573151 117.81394958 46.38569641 C123.22247792 48.54787755 127.43829856 50.29280281 131 55 C131.6875 58.5 131.6875 58.5 131 62 C127.08594713 65.7326842 122.99965578 68.28904265 118.125 70.625 C117.45227051 70.95491943 116.77954102 71.28483887 116.08642578 71.62475586 C108.69837671 75.21363582 101.20970825 78.59055476 93.73388672 81.99145508 C86.06049038 85.48884926 78.50619317 89.15536447 71 93 C68.85566329 94.08629273 66.70986837 95.16971259 64.5625 96.25 C63.65628906 96.70890625 62.75007813 97.1678125 61.81640625 97.640625 C59.78634537 98.62046021 57.72711026 99.54064395 55.65234375 100.421875 C51.68405963 102.13651327 47.8498852 104.03818111 44 106 C42.6468651 106.68952851 41.29270491 107.37704887 39.9375 108.0625 C39.05384766 108.51302734 39.05384766 108.51302734 38.15234375 108.97265625 C35.74882385 110.11988989 33.30228065 111.15085433 30.85153198 112.19229126 C27.87031165 113.49281306 24.9576596 114.92875227 22.03515625 116.35546875 C20.72763248 116.98459538 19.41967619 117.61282376 18.11132812 118.24023438 C16.08228603 119.21337897 14.05596347 120.19071274 12.03637695 121.18334961 C10.06351462 122.15121858 8.08185921 123.09861061 6.09765625 124.04296875 C4.34207397 124.89411255 4.34207397 124.89411255 2.55102539 125.76245117 C-1.83093722 127.28958548 -4.39037884 127.6022576 -9 127 C-11.61910415 124.83568713 -12.83516054 123.05212789 -13.36551762 119.66699505 C-13.52295211 116.6589752 -13.54017872 113.67593855 -13.51757812 110.66381836 C-13.5245874 109.51859207 -13.53159668 108.37336578 -13.53881836 107.19343567 C-13.55642094 103.40865827 -13.54476747 99.62462873 -13.53125 95.83984375 C-13.53394405 93.21098181 -13.53782575 90.58212085 -13.54284668 87.95326233 C-13.55011747 82.44458918 -13.54054947 76.93613076 -13.52148438 71.42749023 C-13.49970561 65.06129737 -13.50677605 58.69561674 -13.52879 52.32943624 C-13.54913462 46.20031949 -13.54697487 40.07142964 -13.53526306 33.94229317 C-13.53259138 31.33593232 -13.53588094 28.72955844 -13.54518127 26.12321281 C-13.55531778 22.48404967 -13.53988505 18.84587636 -13.51757812 15.20678711 C-13.52567505 14.12563629 -13.53377197 13.04448547 -13.54211426 11.93057251 C-13.45976523 4.6943352 -13.45976523 4.6943352 -11.23017883 1.32722473 C-7.46506027 -0.91347382 -4.24866029 -0.58035949 0 0 Z " fill="#FB847A" transform="translate(109,206)"/>
<path d="M0 0 C3.01261997 1.51821757 6.14185369 2.70471691 9.28125 3.93359375 C12.15325855 5.06574784 15.00304555 6.24361278 17.8515625 7.43359375 C18.86476563 7.85640625 19.87796875 8.27921875 20.921875 8.71484375 C22.89775814 9.54360292 24.87184983 10.37665185 26.84375 11.21484375 C32.58992998 13.64412309 38.37358809 15.90376399 44.2265625 18.05859375 C49.00868725 19.82221818 53.63505252 21.67980134 58.140625 24.0703125 C61.10510883 25.56516924 64.19500674 26.72584066 67.28515625 27.93359375 C70.13794459 29.05980337 72.96295988 30.24208803 75.7890625 31.43359375 C80.01098803 33.20355484 84.25687079 34.87758764 88.5390625 36.49609375 C94.47116554 38.75797476 100.24032726 41.27843476 105.9765625 43.99609375 C107.1521875 44.55296875 108.3278125 45.10984375 109.5390625 45.68359375 C111.9765625 46.99609375 111.9765625 46.99609375 113.9765625 48.99609375 C114.4247567 52.95514255 114.50739219 55.18590029 112.29492188 58.56274414 C109.76988731 61.21301999 107.88547874 62.26087513 104.5078125 63.6171875 C102.84492187 64.29612061 102.84492187 64.29612061 101.1484375 64.98876953 C99.93671875 65.46556152 98.725 65.94235352 97.4765625 66.43359375 C96.17927078 66.9558345 94.88240598 67.47913684 93.5859375 68.00341797 C89.39222552 69.69179058 85.18613917 71.34773515 80.9765625 72.99609375 C80.28723633 73.2661322 79.59791016 73.53617065 78.88769531 73.81439209 C72.43577444 76.33918054 65.97831171 78.84956563 59.5144043 81.34350586 C50.74526379 84.73024508 42.00043361 88.17198338 33.27734375 91.67578125 C32.28137177 92.07568268 31.28539978 92.47558411 30.25924683 92.88760376 C25.38481176 94.84622882 20.51251882 96.81001367 15.64257812 98.77978516 C7.29562688 102.14620635 -1.06120729 105.4511121 -9.54296875 108.46484375 C-10.23001389 108.71004761 -10.91705902 108.95525146 -11.62492371 109.20788574 C-31.46116209 116.12621622 -48.66144392 107.39969896 -67.0234375 99.99609375 C-70.50130819 98.60178908 -73.98001619 97.20958745 -77.45877075 95.81748962 C-79.94440808 94.82256099 -82.4296774 93.82675605 -84.91452026 92.82984924 C-94.31349532 89.06213949 -103.73558493 85.35554357 -113.16617584 81.66776657 C-117.85346965 79.83337967 -122.53807337 77.99213182 -127.22270584 76.15096092 C-131.06511119 74.64144973 -134.90910947 73.13628174 -138.75683594 71.64038086 C-142.40118073 70.22331751 -146.04083046 68.79480546 -149.67733383 67.35774422 C-151.02537521 66.82744878 -152.37510092 66.30141284 -153.72656631 65.77990532 C-155.58267884 65.06301714 -157.43239468 64.32963241 -159.28173828 63.59545898 C-160.32323029 63.18802963 -161.36472229 62.78060028 -162.43777466 62.36082458 C-165.21806917 60.8933658 -166.4285226 59.67540162 -168.0234375 56.99609375 C-168.83687613 53.24401646 -168.65765423 50.03390294 -166.6484375 46.74609375 C-162.70539534 44.11739898 -158.44489007 42.65261593 -154.0234375 40.99609375 C-152.06151917 40.19228894 -150.10325574 39.37951479 -148.1484375 38.55859375 C-146.62863281 37.924375 -146.62863281 37.924375 -145.078125 37.27734375 C-143.10224186 36.44858458 -141.12815017 35.61553565 -139.15625 34.77734375 C-133.41007002 32.34806441 -127.62641191 30.08842351 -121.7734375 27.93359375 C-116.99131275 26.16996932 -112.36494748 24.31238616 -107.859375 21.921875 C-104.8912034 20.42515868 -101.79739393 19.26323935 -98.703125 18.0546875 C-95.91519101 16.95333165 -93.15804415 15.79149603 -90.3984375 14.62109375 C-85.56735374 12.59253791 -80.68937996 10.74209641 -75.7734375 8.93359375 C-70.98886861 7.16921426 -66.36327736 5.30523742 -61.8515625 2.921875 C-58.92174384 1.43818478 -55.89486583 0.24796079 -52.828125 -0.921875 C-50.83563392 -1.69056585 -48.86293365 -2.5114449 -46.90625 -3.3671875 C-30.68783803 -10.01561273 -15.35610779 -8.12041091 0 0 Z M-40.37109375 11.578125 C-41.06343109 11.84555008 -41.75576843 12.11297516 -42.46908569 12.38850403 C-49.65210455 15.18840639 -56.75535165 18.18062295 -63.84695435 21.20306396 C-67.92451892 22.94028003 -72.00716141 24.66547787 -76.08984375 26.390625 C-77.38652229 26.9387384 -77.38652229 26.9387384 -78.70939636 27.4979248 C-89.80983725 32.18268234 -100.94798465 36.77641622 -112.0859375 41.37109375 C-113.60540985 41.99822769 -113.60540985 41.99822769 -115.15557861 42.63803101 C-118.03969483 43.82823737 -120.92405628 45.01784622 -123.80859375 46.20703125 C-124.6683934 46.56153854 -125.52819305 46.91604584 -126.41404724 47.28129578 C-130.27643536 48.87195138 -134.14053982 50.45594172 -138.0234375 51.99609375 C-138.0234375 52.65609375 -138.0234375 53.31609375 -138.0234375 53.99609375 C-137.14042969 54.29902344 -136.25742188 54.60195312 -135.34765625 54.9140625 C-133.54748047 55.54248047 -133.54748047 55.54248047 -131.7109375 56.18359375 C-130.53917969 56.58964844 -129.36742187 56.99570313 -128.16015625 57.4140625 C-125.08303408 58.54187105 -122.1320505 59.84795584 -119.16259766 61.23364258 C-112.42046333 64.31477894 -105.55173172 67.05164415 -98.66015625 69.77734375 C-97.29687374 70.31855588 -95.93366004 70.85994138 -94.57051086 71.40148926 C-91.72974945 72.5293492 -88.88823585 73.65528572 -86.04614258 74.77978516 C-82.44464852 76.20489881 -78.84498973 77.63458159 -75.24588299 79.06571198 C-72.43492172 80.18289126 -69.62302747 81.29770685 -66.81086159 82.41184998 C-65.48522844 82.93733369 -64.15985826 83.46348139 -62.83478355 83.9903717 C-40.87428256 92.71735823 -27.07653643 98.12217644 -4.3984375 88.93359375 C-2.7413759 88.27817474 -1.08372268 87.62424987 0.57446289 86.97167969 C5.2992427 85.10461433 10.01256397 83.2100456 14.72357178 81.30853271 C18.2279847 79.89465593 21.73418995 78.48526815 25.24072266 77.07666016 C35.49262539 72.95700003 45.74245492 68.83231417 55.98095703 64.67944336 C57.18016281 64.19319992 58.37936859 63.70695648 59.61491394 63.20597839 C61.86899153 62.29145958 64.12268942 61.37600408 66.37593079 60.45942688 C71.88238598 58.22482326 77.40029199 56.05057519 82.9765625 53.99609375 C82.9765625 53.33609375 82.9765625 52.67609375 82.9765625 51.99609375 C81.45335433 51.36142368 79.93014594 50.72675417 78.40693665 50.09208679 C77.01890205 49.51373645 75.63087118 48.93537714 74.24284363 48.35700989 C70.27013591 46.70166759 66.29735749 45.04649529 62.32446289 43.39160156 C54.05476029 39.94668517 45.78593764 36.4996941 37.51953125 33.046875 C19.70711181 25.60894501 1.87704184 18.22020946 -16.0234375 10.99609375 C-16.90161133 10.63169189 -17.77978516 10.26729004 -18.68457031 9.8918457 C-25.95854057 7.1060214 -33.37241298 8.80145954 -40.37109375 11.578125 Z " fill="#F9E173" transform="translate(283.0234375,131.00390625)"/>
<path d="M0 0 C3.82723862 4.37638277 3.07112906 9.03212501 3.0218811 14.65682983 C3.0306427 15.87833237 3.0394043 17.0998349 3.0484314 18.35835266 C3.06667018 21.705996 3.06239316 25.05209448 3.04653597 28.39965129 C3.03386931 31.90471508 3.04561944 35.40971325 3.0534668 38.91477966 C3.06256242 44.80189858 3.05057935 50.68870386 3.02676392 56.57577515 C2.99956496 63.37769289 3.00835741 70.178861 3.03589594 76.98076051 C3.05860393 82.82382359 3.06177861 88.66666128 3.0487026 94.50975424 C3.04091555 97.99815849 3.0398451 101.48621071 3.05638504 104.97459221 C3.07354286 108.86506024 3.04974633 112.75469254 3.0218811 116.64511108 C3.03200226 117.79904358 3.04212341 118.95297607 3.05255127 120.14187622 C2.94870838 127.95838992 2.94870838 127.95838992 -0.03669739 131.89840698 C-2.27226463 133.46795487 -4.14566266 134.66572142 -6.6993103 135.59457397 C-7.44414673 135.87381714 -8.18898315 136.1530603 -8.95639038 136.44076538 C-9.73393677 136.71710815 -10.51148315 136.99345093 -11.31259155 137.27816772 C-12.93509205 137.88075057 -14.55748883 138.48361277 -16.17977905 139.08676147 C-16.95289429 139.36890503 -17.72600952 139.65104858 -18.52255249 139.94174194 C-21.01488197 140.85914608 -23.47831241 141.83828827 -25.93759155 142.84066772 C-29.56633482 144.30457099 -33.21659478 145.70281061 -36.87509155 147.09066772 C-41.55174544 148.87880009 -46.15781627 150.78349235 -50.75009155 152.77816772 C-55.60317345 154.87708569 -60.46305614 156.82002386 -65.44540405 158.58676147 C-77.36689945 162.81933171 -89.3120699 167.08798764 -100.9102478 172.14926147 C-107.46432619 175.00909328 -113.97640709 177.58994882 -120.7852478 179.77426147 C-128.21484658 181.83270391 -128.21484658 181.83270391 -134.62509155 185.71566772 C-141.88769752 186.3109633 -141.88769752 186.3109633 -144.7240963 184.02114868 C-147.02282341 181.23330817 -147.13080891 179.97209284 -147.14648438 176.40219116 C-147.1677388 174.78709656 -147.1677388 174.78709656 -147.18942261 173.13937378 C-147.18446777 171.96314453 -147.17951294 170.78691528 -147.17440796 169.57504272 C-147.18462982 168.33242676 -147.19485168 167.08981079 -147.2053833 165.80953979 C-147.22842334 162.40433685 -147.23332281 159.00010739 -147.2282567 155.59489441 C-147.22611675 152.75181888 -147.23588507 149.90883312 -147.24546754 147.06577682 C-147.26765249 140.35916167 -147.2685353 133.65277056 -147.25643921 126.94613647 C-147.24435207 120.02712202 -147.26900019 113.1089202 -147.31157935 106.1900444 C-147.34679949 100.24849639 -147.3588163 94.3072072 -147.35230386 88.36555862 C-147.34867638 84.8172826 -147.35396618 81.26958654 -147.38173294 77.72140503 C-147.41152879 73.76604232 -147.39296164 69.8117169 -147.36972046 65.85629272 C-147.38500793 64.68006348 -147.40029541 63.50383423 -147.41604614 62.29196167 C-147.37722099 59.31204039 -147.29122666 56.6200774 -146.62509155 53.71566772 C-143.82440186 51.06217957 -143.82440186 51.06217957 -140.62509155 49.71566772 C-139.94519165 49.38979172 -139.26529175 49.06391571 -138.56478882 48.72816467 C-137.63750977 48.38299553 -137.63750977 48.38299553 -136.6914978 48.03085327 C-135.97215057 47.75861435 -135.25280334 47.48637543 -134.51165771 47.20588684 C-133.74471588 46.92423172 -132.97777405 46.6425766 -132.18759155 46.35238647 C-131.36820099 46.04410416 -130.54881042 45.73582184 -129.70458984 45.41819763 C-127.93817946 44.75426983 -126.17052511 44.09364406 -124.40176392 43.43600464 C-119.62374878 41.65872963 -114.85544624 39.8557041 -110.08602905 38.05551147 C-109.11370331 37.6891861 -108.14137756 37.32286072 -107.1395874 36.94543457 C-98.88956072 33.83140781 -90.68260336 30.61623304 -82.48934937 27.35623169 C-67.07400505 21.22547261 -51.63258195 15.15947576 -36.16726685 9.15597534 C-33.81889079 8.24252241 -31.47190479 7.32548715 -29.12637329 6.40475464 C-25.83792782 5.11465908 -22.54472785 3.83751126 -19.25009155 2.56332397 C-18.26431122 2.17348831 -17.27853088 1.78365265 -16.26287842 1.38200378 C-5.56228514 -2.72136121 -5.56228514 -2.72136121 0 0 Z M-22.06259155 21.46566772 C-22.73741577 21.71832397 -23.41223999 21.97098022 -24.10751343 22.23129272 C-27.78378601 23.61465023 -31.44135792 25.03684494 -35.08432007 26.50570679 C-41.27429918 28.98591517 -47.49575305 31.38250159 -53.71884155 33.77816772 C-55.5945769 34.50132351 -57.47031196 35.22448002 -59.34603119 35.94767761 C-63.26318989 37.45773484 -67.18078196 38.96666739 -71.09829712 40.47579956 C-74.33642002 41.72326244 -77.57444457 42.97097921 -80.81222534 44.21932983 C-83.22728461 45.15041219 -85.6425557 46.08094536 -88.05807495 47.01083374 C-93.90710777 49.26590816 -99.74425116 51.54568798 -105.55917358 53.88742065 C-109.40655079 55.42987246 -113.2836015 56.89468698 -117.15634155 58.37191772 C-121.66023462 60.11666909 -126.14051933 61.92183884 -130.62509155 63.71566772 C-130.62509155 97.37566772 -130.62509155 131.03566772 -130.62509155 165.71566772 C-113.70032578 159.44723596 -96.8139583 153.14101111 -80.00009155 146.59066772 C-78.10953935 145.85610534 -76.21891404 145.12173109 -74.32821655 144.38754272 C-54.08501442 136.51963149 -33.85748603 128.6112363 -13.62509155 120.71566772 C-13.62509155 87.05566772 -13.62509155 53.39566772 -13.62509155 18.71566772 C-16.37801728 18.71566772 -19.47089074 20.48642382 -22.06259155 21.46566772 Z " fill="#74CCED" transform="translate(413.6250915527344,206.28433227539063)"/>
<path d="M0 0 C4.32687755 0.86537551 7.79489118 1.98707504 11.8671875 3.60546875 C12.89875977 4.01354767 12.89875977 4.01354767 13.95117188 4.42987061 C16.26079248 5.34491313 18.56788715 6.26615471 20.875 7.1875 C22.51176319 7.83761892 24.1486481 8.48743149 25.78564453 9.13696289 C31.52667267 11.41736315 37.2634287 13.70841591 43 16 C44.15677246 16.46188721 45.31354492 16.92377441 46.50537109 17.3996582 C63.67471425 24.2552899 80.83917706 31.12306623 98 38 C98 38.66 98 39.32 98 40 C82.71611814 47.70192477 67.38237251 55.26926531 51.92138672 62.60986328 C46.77416894 65.05915779 41.63775704 67.53093963 36.5 70 C34.42712653 70.99488168 32.35420992 71.98967348 30.28125 72.984375 C25.96747984 75.05465993 21.65530089 77.12822272 17.34375 79.203125 C15.22920233 80.21882424 13.11462029 81.23445195 11 82.25 C10.00806641 82.72824219 9.01613281 83.20648438 7.99414062 83.69921875 C6.63579102 84.35083984 6.63579102 84.35083984 5.25 85.015625 C4.45078125 85.40008789 3.6515625 85.78455078 2.828125 86.18066406 C1 87 1 87 0 87 C0 58.29 0 29.58 0 0 Z " fill="#82382E" transform="translate(112,226)"/>
</svg>
