<svg width="40" height="38" viewBox="0 0 40 38" fill="none" xmlns="http://www.w3.org/2000/svg">
<path d="M27.4866 5.89758L5.39844 11.3646L0 23.6754V31.728L5.73812 34.6287H10.8028L23.0178 36.4941L23.9116 28.0555L33.1472 20.2599L27.4866 5.89758ZM5.71437 25.1869L3.59906 26.1901L4.89812 24.1449L3.36094 22.0481L5.30344 23.3087L7.34125 21.7459L6.30437 23.984L7.75219 26.5889L5.71437 25.1869ZM18.2272 31.6187L16.1119 32.6219L17.4109 30.5767L15.8738 28.4799L17.8162 29.7405L19.8541 28.1777L18.8172 30.4158L20.265 33.0207L18.2272 31.6187ZM24.1856 18.1118L22.0703 19.115L23.3694 17.0698L21.8322 14.973L23.7747 16.2336L25.8125 14.6708L24.7756 16.9089L26.2234 19.5138L24.1856 18.1118ZM18.7575 18.7484L10.4694 18.8705L6.5425 13.3329L26.7894 8.28383L18.7575 18.7484ZM33.7434 22.9002L38.5103 29.898V34.1848L24.9662 37.1367L25.9119 29.3988L33.7434 22.9002ZM17.6619 2.35397L20.5584 0.136719L19.0837 3.32041L21.1378 7.01582L18.2413 5.02593L15.2394 6.44709L17.0828 3.54776L14.8959 0.564449L17.6619 2.35397ZM37.6772 21.6281L39.6128 20.1466L38.6275 22.2738L40 24.743L38.0644 23.4136L36.0584 24.3632L37.29 22.4259L35.8288 20.4323L37.6772 21.6281ZM32.9103 8.1209L34.8459 6.63936L33.8606 8.76654L35.2331 11.2358L33.2975 9.90637L31.2916 10.8559L32.5231 8.91868L31.0619 6.92508L32.9103 8.1209Z" fill="white"/>
</svg>
