<?xml version="1.0" standalone="no"?>
<!DOCTYPE svg PUBLIC "-//W3C//DTD SVG 20010904//EN"
 "http://www.w3.org/TR/2001/REC-SVG-20010904/DTD/svg10.dtd">
<svg version="1.0" xmlns="http://www.w3.org/2000/svg"
 width="512.000000pt" height="512.000000pt" viewBox="0 0 512.000000 512.000000"
 preserveAspectRatio="xMidYMid meet">

<g transform="translate(0.000000,512.000000) scale(0.100000,-0.100000)"
fill="#000000" stroke="none">
<path d="M0 2560 l0 -2560 2560 0 2560 0 0 2560 0 2560 -2560 0 -2560 0 0
-2560z m2785 1615 c306 -50 607 -195 822 -395 35 -34 43 -48 43 -77 0 -33 -16
-52 -245 -279 -281 -279 -268 -272 -357 -201 -90 72 -160 115 -229 141 -325
121 -691 36 -927 -216 -165 -175 -247 -384 -246 -628 2 -401 277 -752 669
-856 102 -27 330 -25 440 4 160 43 318 141 405 250 40 50 94 143 105 179 l6
22 -396 3 -397 3 -24 28 -24 28 0 334 0 334 24 28 24 28 782 0 782 0 23 -27
c34 -39 50 -166 49 -393 0 -200 -10 -286 -50 -450 -33 -133 -57 -200 -113
-321 -225 -475 -659 -777 -1214 -845 -142 -17 -434 -6 -559 20 -448 97 -825
355 -1074 737 -74 113 -125 220 -172 359 -60 177 -82 295 -89 481 -20 529 195
1006 607 1348 266 221 567 342 945 380 71 7 298 -4 390 -19z"/>
<path d="M2285 4025 c-332 -51 -634 -210 -867 -453 -77 -81 -164 -196 -200
-267 l-21 -40 28 -20 c15 -11 100 -77 188 -146 89 -70 164 -121 166 -115 15
43 145 218 209 283 347 351 889 409 1278 138 l62 -43 168 170 169 169 -25 20
c-59 48 -209 142 -279 176 -100 47 -224 89 -341 114 -125 27 -405 34 -535 14z"/>
<path d="M1105 3067 c-82 -204 -118 -452 -96 -664 6 -64 20 -156 31 -204 19
-82 66 -225 80 -242 8 -10 101 63 94 74 -3 5 1 6 9 3 9 -3 22 4 31 18 9 12 16
19 16 14 0 -5 17 7 38 25 20 19 59 50 86 69 26 19 63 49 82 65 l34 30 -16 95
c-19 112 -14 325 8 407 8 29 11 50 6 47 -4 -3 -8 -1 -8 4 0 8 -32 34 -223 180
-45 34 -93 71 -105 82 -13 11 -29 17 -34 13 -6 -3 -8 -1 -4 5 3 6 2 13 -3 16
-5 3 -17 -13 -26 -37z"/>
<path d="M2603 2743 c-10 -3 -13 -59 -13 -229 l0 -224 394 0 c227 0 405 -4
420 -10 14 -5 33 -21 42 -35 16 -25 16 -31 1 -103 -28 -128 -111 -283 -208
-386 -27 -29 -34 -42 -25 -50 51 -49 199 -155 208 -150 6 4 8 3 5 -3 -6 -10
40 -52 106 -99 l30 -20 42 45 c110 121 209 296 270 476 58 175 78 309 79 530
0 105 -3 207 -7 228 l-8 37 -662 -1 c-364 0 -668 -3 -674 -6z"/>
<path d="M1529 2047 c-20 -17 -69 -57 -109 -87 -40 -30 -100 -77 -133 -103
-34 -27 -68 -52 -76 -57 -12 -6 -9 -16 14 -56 69 -118 194 -267 305 -362 263
-225 571 -345 923 -359 316 -13 606 56 846 202 42 26 89 57 104 69 l29 23
-154 120 c-84 65 -169 131 -189 146 l-36 27 -52 -26 c-253 -121 -584 -138
-847 -41 -114 42 -257 134 -356 229 -65 63 -162 192 -197 261 -13 26 -27 47
-30 47 -3 0 -22 -15 -42 -33z"/>
</g>
</svg>
