<svg width="36" height="37" viewBox="0 0 36 37" fill="none" xmlns="http://www.w3.org/2000/svg">
<path d="M13.4584 11.0933C16.6947 11.1474 20.0647 11.4924 23.1983 12.9509C24.0986 13.3699 24.9577 13.9627 25.6862 14.6337C26.9396 15.7883 26.8887 17.3259 25.6983 18.5507C24.5507 19.7314 23.0859 20.3717 21.5488 20.8603C18.2045 21.9234 14.7669 22.1987 11.2753 21.9802C8.85136 21.8285 6.47782 21.4338 4.2032 20.5663C3.00892 20.1107 1.88181 19.5389 0.968886 18.621C-0.291816 17.3534 -0.330415 15.9032 0.901206 14.6055C1.93868 13.5124 3.27924 12.9028 4.68036 12.4145C7.46139 11.4453 10.3485 11.1373 13.4584 11.0933Z" fill="white"/>
<path d="M25.2373 11.0932C24.993 11.0294 24.7005 10.9893 24.4382 10.8789C21.8303 9.78197 19.0958 9.23459 16.2814 9.06542C15.0318 8.99031 13.7764 9.0147 12.5245 8.96872C12.2619 8.95907 11.9665 8.89537 11.7506 8.75779C11.2885 8.46341 10.8309 8.14277 10.4381 7.76507C9.00535 6.38733 9.04991 4.78053 10.5319 3.43609C11.7873 2.29715 13.3107 1.64144 14.9204 1.21013C20.5233 -0.291079 26.1043 -0.267337 31.6302 1.59642C32.7876 1.98681 33.8648 2.54716 34.7848 3.36663C36.3844 4.79164 36.4075 6.42487 34.8386 7.8913C33.8951 8.77316 32.754 9.33293 31.5438 9.74002C30.5692 10.0679 29.5759 10.3606 28.5702 10.5735C27.4915 10.8019 26.3888 10.9187 25.2373 11.0932Z" fill="white"/>
<path d="M0.0131367 28.396C1.17733 28.9757 2.26036 29.5963 3.4067 30.0685C5.61973 30.9802 7.96728 31.3872 10.3456 31.5896C14.0124 31.9016 17.6457 31.6875 21.2115 30.7407C23.0378 30.2558 24.7816 29.5754 26.3125 28.4465C26.3808 28.3961 26.4626 28.3633 26.5596 28.3106C26.5596 29.3032 26.6973 30.28 26.5116 31.1932C26.3859 31.8112 25.8864 32.4187 25.4109 32.8919C24.4334 33.8647 23.1695 34.4237 21.8588 34.8226C16.0095 36.6027 10.164 36.5962 4.34798 34.669C3.18917 34.285 2.11533 33.7167 1.19845 32.8964C0.408198 32.1895 -0.059919 31.3548 0.00618611 30.2648C0.0444388 29.634 0.0131367 28.9991 0.0131367 28.396Z" fill="white"/>
<path d="M0.0264071 22.0529C0.893717 22.5379 1.665 23.032 2.48827 23.4177C4.98263 24.5862 7.6541 25.0986 10.3802 25.3339C13.8883 25.6368 17.3688 25.4363 20.7934 24.5801C22.751 24.0906 24.6169 23.383 26.2631 22.1902C26.3334 22.1392 26.4132 22.1011 26.5009 22.0497C26.7172 24.8376 26.8522 25.8028 24.3769 27.3955C22.5233 28.5883 20.4107 29.1231 18.2551 29.4656C14.0211 30.1382 9.81712 30.0151 5.67126 28.8623C4.28331 28.4763 2.95439 27.9434 1.77609 27.0981C0.621971 26.2703 -0.127555 25.242 0.0180327 23.7365C0.0702459 23.1966 0.0264071 22.6476 0.0264071 22.0529Z" fill="white"/>
<path d="M35.9883 9.52802C35.9883 10.5963 36.02 11.5116 35.9787 12.4226C35.9429 13.211 35.5745 13.8535 35.0899 14.4002C33.5989 16.0822 31.6832 16.7602 29.7738 17.3541C29.5967 16.5217 29.5102 15.7211 29.2494 15.0016C28.9944 14.2983 28.5617 13.6778 28.1738 12.9595C30.9095 12.3785 33.6092 11.5898 35.9883 9.52802Z" fill="white"/>
<path d="M35.9611 17.3541C35.9611 18.3614 36.0682 19.3027 35.9265 20.1905C35.817 20.8755 35.4925 21.5921 35.0933 22.1218C34.0879 23.4557 32.6968 24.1019 31.2826 24.654C30.7982 24.8431 30.3016 24.9903 29.7412 25.1802C29.7412 23.6212 29.73 22.1642 29.7588 20.7082C29.7617 20.5658 29.9916 20.3696 30.1493 20.3006C31.5472 19.6891 32.9651 19.1366 34.3496 18.4877C34.8962 18.2314 35.3734 17.7756 35.9611 17.3541Z" fill="white"/>
</svg>
