<svg width="37" height="41" viewBox="0 0 37 41" fill="none" xmlns="http://www.w3.org/2000/svg">
<path d="M1.45215 26.4174C0.47291 24.0313 0.662171 21.9387 1.10511 19.8623C2.74437 12.1779 8.10234 7.06376 15.9078 5.72471C17.4457 5.46088 19.001 5.30771 20.7077 5.08247V0C24.3608 3.13658 27.7692 6.06291 31.3322 9.12205C27.8305 12.1323 24.402 15.0797 20.7592 18.2113V13.1004C16.4172 13.0897 12.4287 13.9328 8.76044 16.0947C5.00079 18.3106 2.83788 21.8588 1.45215 26.4174Z" fill="white"/>
<path d="M6.30542 31.6574C9.85967 28.7623 13.2472 26.003 16.8548 23.0644V27.9051C21.2453 27.8757 25.2453 27.0932 28.913 25.0258C32.6562 22.9158 34.8228 19.5602 36.1602 15.2943C37.1932 17.544 36.9638 19.5418 36.5125 21.5202C34.8482 28.8156 29.5154 33.6154 21.6807 34.8849C20.1478 35.1333 18.5978 35.2789 16.953 35.4848V40.3213C13.2913 37.3418 9.86558 34.5543 6.30542 31.6574Z" fill="white"/>
</svg>
