<?xml version="1.0" standalone="no"?>
<!DOCTYPE svg PUBLIC "-//W3C//DTD SVG 20010904//EN"
 "http://www.w3.org/TR/2001/REC-SVG-20010904/DTD/svg10.dtd">
<svg version="1.0" xmlns="http://www.w3.org/2000/svg"
 width="512.000000pt" height="512.000000pt" viewBox="0 0 512.000000 512.000000"
 preserveAspectRatio="xMidYMid meet">

<g transform="translate(0.000000,512.000000) scale(0.100000,-0.100000)"
fill="#000000" stroke="none">
<path d="M0 2560 l0 -2560 2560 0 2560 0 0 2560 0 2560 -2560 0 -2560 0 0
-2560z m3508 1664 c251 -52 443 -217 530 -456 l27 -73 3 -895 c2 -794 1 -903
-13 -968 -46 -204 -208 -394 -412 -480 -94 -40 -169 -52 -329 -52 -83 0 -219
-3 -302 -7 l-151 -6 -122 -189 c-123 -190 -146 -218 -185 -218 -38 0 -67 34
-188 222 l-119 185 -150 7 c-83 3 -216 6 -296 6 -215 0 -324 30 -469 128 -130
89 -244 261 -277 417 -23 108 -22 1732 1 1843 29 146 117 290 235 389 70 58
216 128 304 147 109 23 1802 23 1913 0z"/>
<path d="M1625 4065 c-202 -44 -364 -201 -410 -397 -22 -95 -22 -1702 0 -1797
45 -191 198 -345 392 -395 49 -13 121 -16 371 -16 178 0 322 -4 336 -10 23 -8
85 -96 231 -325 8 -13 30 15 109 139 54 85 107 163 118 173 18 16 51 18 372
23 l351 6 71 27 c141 56 259 173 315 314 l24 58 3 870 c2 634 0 885 -8 925
-31 145 -147 293 -280 358 -127 62 -118 62 -1070 61 -674 0 -878 -3 -925 -14z
m825 -385 c0 -71 3 -73 125 -68 l80 3 3 63 3 62 124 0 125 0 0 -110 0 -109
113 -3 112 -3 3 -117 3 -118 -77 0 -76 0 6 -97 c4 -54 8 -99 10 -100 2 -2 33
-6 70 -10 l66 -6 0 -113 0 -114 -103 0 c-125 0 -126 -1 -129 -135 l-3 -90
-122 -3 -123 -3 0 61 c0 35 -4 60 -11 60 -5 0 -8 -3 -5 -8 6 -10 -134 -8 -158
3 -14 6 -17 5 -12 -3 5 -8 2 -10 -8 -6 -13 5 -16 -3 -16 -50 l0 -56 -120 0
-120 0 0 98 c-1 131 -1 131 -131 134 l-104 3 -3 111 -3 111 72 6 c42 4 76 11
80 19 5 7 9 52 9 101 l0 87 -75 0 c-59 0 -77 3 -81 15 -4 9 -3 63 1 120 l7
105 114 0 114 0 0 110 0 110 120 0 120 0 0 -60z m-788 -1136 c15 -8 52 -44 82
-82 183 -228 419 -356 719 -393 109 -13 247 0 376 37 183 51 397 186 499 314
107 134 152 162 230 141 97 -27 122 -116 60 -217 -40 -67 -143 -184 -218 -249
-167 -143 -376 -241 -597 -280 -114 -20 -392 -20 -509 0 -299 51 -571 211
-757 445 -66 82 -96 140 -97 183 -1 98 113 152 212 101z"/>
</g>
</svg>
