<svg width="17" height="39" viewBox="0 0 17 39" fill="none" xmlns="http://www.w3.org/2000/svg">
<path d="M15.2904 34.9196C15.3572 36.6096 14.552 37.3603 13.1995 37.6897C11.7231 38.0492 10.286 38.6735 8.79466 38.861C4.24654 39.4327 1.55255 36.4398 2.45386 31.7703C2.98606 29.013 3.85228 26.3276 4.50662 23.5938C4.82172 22.2774 5.1053 20.9324 5.20215 19.5846C5.31427 18.0244 4.5996 17.287 3.09384 17.3243C2.0767 17.3495 1.06482 17.6057 0.00178352 17.766C-0.0293099 16.4666 0.338338 15.5292 1.72067 15.203C3.32726 14.8238 4.89023 14.0522 6.50443 13.9348C11.4807 13.5728 13.7483 16.4017 12.6448 21.4804C12.0675 24.1376 11.2647 26.7409 10.5936 29.3769C10.3366 30.3862 10.1038 31.4099 9.96337 32.4424C9.66279 34.652 10.7024 35.7298 12.8449 35.4465C13.6529 35.3396 14.4454 35.1056 15.2904 34.9196Z" fill="white"/>
<path d="M11.8342 2.17486e-06C14.4638 0.00231764 16.6988 1.93245 16.6843 4.18862C16.6699 6.43983 14.4053 8.35944 11.7844 8.34221C9.13654 8.3248 6.93481 6.413 6.95176 4.14597C6.96872 1.87764 9.18265 -0.00233394 11.8342 2.17486e-06Z" fill="white"/>
</svg>
