<?xml version="1.0" standalone="no"?>
<!DOCTYPE svg PUBLIC "-//W3C//DTD SVG 20010904//EN"
 "http://www.w3.org/TR/2001/REC-SVG-20010904/DTD/svg10.dtd">
<svg version="1.0" xmlns="http://www.w3.org/2000/svg"
 width="512.000000pt" height="512.000000pt" viewBox="0 0 512.000000 512.000000"
 preserveAspectRatio="xMidYMid meet">

<g transform="translate(0.000000,512.000000) scale(0.100000,-0.100000)"
fill="#000000" stroke="none">
<path d="M0 2560 l0 -2560 2560 0 2560 0 0 2560 0 2560 -2560 0 -2560 0 0
-2560z m2752 1665 c372 -49 674 -200 948 -475 280 -279 434 -591 485 -977 37
-281 4 -502 -99 -655 -117 -175 -283 -270 -468 -269 -149 0 -260 44 -360 139
-107 102 -172 245 -186 409 l-7 87 -147 -236 c-162 -258 -220 -328 -315 -374
-114 -56 -251 -31 -331 60 -72 83 -93 158 -101 370 l-6 168 -237 -380 c-131
-209 -238 -384 -238 -390 0 -5 22 -31 49 -57 218 -211 588 -337 900 -306 267
27 462 109 680 284 53 42 112 82 131 87 168 47 320 -101 280 -272 -11 -46 -23
-63 -89 -128 -172 -169 -436 -312 -701 -380 -421 -107 -893 -35 -1260 193
-812 505 -1045 1581 -515 2372 357 533 964 812 1587 730z"/>
<path d="M2410 4074 c-264 -31 -490 -113 -695 -249 -497 -331 -752 -932 -650
-1527 109 -626 589 -1114 1215 -1234 130 -25 388 -24 520 1 266 50 548 188
723 352 54 51 64 76 43 108 -34 51 -62 44 -166 -46 -156 -133 -363 -231 -593
-281 -135 -29 -379 -31 -512 -4 -279 55 -518 181 -712 374 -70 70 -83 88 -83
115 0 25 76 155 335 572 185 297 349 552 365 568 57 52 117 25 130 -59 5 -27
8 -170 8 -319 -1 -173 3 -284 10 -310 40 -140 143 -171 244 -72 24 23 88 114
143 202 359 580 354 572 385 585 27 11 37 11 65 -3 20 -10 36 -26 39 -39 3
-13 7 -120 9 -238 4 -181 8 -225 24 -277 28 -84 62 -141 118 -192 75 -69 123
-86 240 -86 90 1 106 4 157 29 113 57 197 160 238 294 51 165 29 464 -52 706
-202 603 -752 1015 -1378 1031 -74 2 -151 1 -170 -1z m298 -134 c517 -65 962
-432 1131 -933 54 -159 66 -235 66 -432 l0 -180 -33 -69 c-37 -79 -88 -133
-156 -166 -38 -18 -59 -21 -114 -18 -86 5 -136 30 -177 87 -62 84 -67 117 -72
411 -5 292 -12 338 -64 390 -36 36 -85 46 -136 30 -73 -24 -144 -116 -343
-440 -102 -166 -197 -315 -212 -331 -31 -34 -74 -38 -109 -10 l-24 19 -5 394
c-4 335 -8 398 -22 429 -34 76 -109 92 -171 37 -23 -21 -180 -264 -413 -638
-206 -333 -385 -615 -396 -627 -71 -77 -133 -19 -208 192 -53 150 -70 246 -77
416 -6 166 3 263 39 404 139 554 621 978 1178 1038 76 8 240 6 318 -3z"/>
<path d="M2440 3784 c-14 -2 -59 -9 -100 -15 -233 -34 -475 -161 -656 -344
-240 -243 -371 -593 -351 -931 9 -133 50 -328 77 -357 4 -5 160 236 346 534
207 331 357 561 386 591 115 119 270 126 379 18 81 -81 92 -124 98 -405 l6
-240 112 180 c62 99 137 211 168 248 129 156 284 206 423 136 67 -33 101 -67
136 -138 45 -88 49 -116 55 -408 6 -265 7 -283 27 -310 50 -67 127 -48 174 43
23 45 25 58 24 189 0 156 -17 256 -66 395 -143 408 -496 716 -912 795 -82 16
-280 27 -326 19z"/>
</g>
</svg>
