<svg width="43" height="43" viewBox="0 0 43 43" fill="none" xmlns="http://www.w3.org/2000/svg">
<path d="M15.2293 8.95832L13.4374 4.47916C11.4964 5.22568 7.34584 9.67499 8.06251 16.125" stroke="white" stroke-width="2" stroke-linecap="round" stroke-linejoin="round"/>
<path d="M27.7708 8.95832L29.5626 4.47916C31.5036 5.22568 35.6542 9.67499 34.9375 16.125" stroke="white" stroke-width="2" stroke-linecap="round" stroke-linejoin="round"/>
<path d="M37.625 25.5313C37.625 34.1895 30.4056 38.5208 21.5 38.5208C12.5944 38.5208 5.375 34.1895 5.375 25.5313C5.375 16.873 12.5944 8.0625 21.5 8.0625C30.4056 8.0625 37.625 16.873 37.625 25.5313Z" stroke="white" stroke-width="2"/>
<path d="M17.9167 17.0208C18.9062 17.0208 19.7083 16.2187 19.7083 15.2292C19.7083 14.2397 18.9062 13.4375 17.9167 13.4375C16.9272 13.4375 16.125 14.2397 16.125 15.2292C16.125 16.2187 16.9272 17.0208 17.9167 17.0208Z" fill="white"/>
<path d="M25.0833 17.0208C26.0728 17.0208 26.875 16.2187 26.875 15.2292C26.875 14.2397 26.0728 13.4375 25.0833 13.4375C24.0938 13.4375 23.2917 14.2397 23.2917 15.2292C23.2917 16.2187 24.0938 17.0208 25.0833 17.0208Z" fill="white"/>
<path d="M21.5 23.2917C21.5 24.776 21.9479 28.2187 18.8125 28.2187C17.3282 28.2187 16.125 27.0155 16.125 25.5312" stroke="white" stroke-width="2" stroke-linecap="round" stroke-linejoin="round"/>
<path d="M21.5223 23.2917C21.5223 24.776 21.0744 28.2187 24.2098 28.2187C25.6941 28.2187 26.8973 27.0155 26.8973 25.5312" stroke="white" stroke-width="2" stroke-linecap="round" stroke-linejoin="round"/>
<path d="M23.2917 23.0677C23.2917 23.6862 21.5 24.6354 21.5 24.6354C21.5 24.6354 19.7083 23.6862 19.7083 23.0677C19.7083 22.4492 20.1563 21.9479 21.5 21.9479C22.8438 21.9479 23.2917 22.4492 23.2917 23.0677Z" stroke="white" stroke-width="2" stroke-linejoin="round"/>
</svg>
