<?xml version="1.0" standalone="no"?>
<!DOCTYPE svg PUBLIC "-//W3C//DTD SVG 20010904//EN"
 "http://www.w3.org/TR/2001/REC-SVG-20010904/DTD/svg10.dtd">
<svg version="1.0" xmlns="http://www.w3.org/2000/svg"
 width="516.000000pt" height="512.000000pt" viewBox="0 0 516.000000 512.000000"
 preserveAspectRatio="xMidYMid meet">

<g transform="translate(0.000000,512.000000) scale(0.100000,-0.100000)"
fill="#000000" stroke="none">
<path d="M40 2560 l0 -2560 2560 0 2560 0 0 2560 0 2560 -2560 0 -2560 0 0
-2560z m2710 1669 c100 -15 252 -71 342 -125 94 -57 236 -190 295 -279 82
-122 133 -250 158 -392 13 -73 15 -78 62 -116 166 -139 281 -316 334 -517 32
-118 32 -307 1 -433 -62 -249 -216 -463 -432 -595 -136 -84 -262 -123 -458
-141 -102 -9 -139 -28 -166 -85 -13 -28 -16 -71 -16 -249 0 -295 -12 -345 -91
-392 -29 -17 -52 -20 -169 -20 -117 0 -140 3 -169 20 -82 48 -95 117 -88 454
5 263 10 294 76 426 75 152 223 280 383 330 49 16 123 29 192 35 163 13 243
47 328 138 188 200 145 514 -91 667 -139 90 -186 164 -202 321 -18 168 -72
278 -174 355 -92 70 -136 84 -260 84 -104 0 -114 -2 -175 -32 -86 -43 -135
-85 -181 -156 -49 -75 -67 -131 -78 -245 -16 -153 -77 -254 -196 -322 -91 -52
-157 -138 -196 -252 -17 -51 -20 -79 -16 -148 6 -115 34 -184 104 -261 65 -69
113 -100 210 -133 133 -45 186 -84 204 -149 25 -94 -58 -329 -131 -369 -45
-25 -141 -18 -249 18 -249 84 -446 255 -561 489 -77 156 -93 229 -93 420 -1
146 2 168 27 250 62 203 181 379 339 501 34 26 39 35 47 94 30 206 123 394
270 540 137 137 315 231 503 265 89 16 231 18 317 4z"/>
<path d="M2495 4070 c-347 -49 -618 -318 -670 -666 -17 -116 -35 -147 -124
-219 -163 -132 -265 -316 -292 -527 -37 -283 107 -585 355 -747 81 -53 196
-100 266 -108 l46 -5 16 53 c9 30 20 70 23 90 l7 35 -98 34 c-255 88 -407 277
-430 533 -17 197 104 437 276 545 30 19 67 46 83 60 32 30 57 105 57 172 0 65
24 153 67 240 66 135 215 261 361 304 300 88 623 -82 728 -383 13 -39 28 -113
33 -164 5 -52 16 -108 24 -123 19 -37 62 -77 107 -99 57 -29 171 -153 212
-230 51 -98 70 -173 71 -274 1 -161 -51 -295 -156 -408 -120 -128 -222 -175
-433 -197 -150 -16 -219 -39 -302 -100 -66 -49 -108 -99 -146 -173 -50 -99
-56 -147 -56 -414 l0 -247 23 -6 c28 -7 105 -7 134 0 21 6 21 10 25 252 3 242
4 248 29 302 37 78 81 125 152 160 51 25 82 32 178 40 64 5 147 19 185 31 274
85 481 311 541 592 23 112 14 290 -21 392 -46 135 -95 207 -236 345 -112 109
-129 131 -135 165 -29 189 -62 284 -139 400 -141 211 -360 335 -617 349 -46 3
-111 1 -144 -4z"/>
</g>
</svg>
