<?xml version="1.0" standalone="no"?>
<!DOCTYPE svg PUBLIC "-//W3C//DTD SVG 20010904//EN"
 "http://www.w3.org/TR/2001/REC-SVG-20010904/DTD/svg10.dtd">
<svg version="1.0" xmlns="http://www.w3.org/2000/svg"
 width="512.000000pt" height="512.000000pt" viewBox="0 0 512.000000 512.000000"
 preserveAspectRatio="xMidYMid meet">

<g transform="translate(0.000000,512.000000) scale(0.100000,-0.100000)"
fill="#000000" stroke="none">
<path d="M0 2560 l0 -2560 2560 0 2560 0 0 2560 0 2560 -2560 0 -2560 0 0
-2560z m3176 1661 c48 -22 77 -59 93 -117 10 -39 1 -111 -34 -261 -4 -16 1
-23 17 -28 48 -15 199 -95 274 -146 161 -108 214 -180 200 -273 -6 -36 -19
-59 -58 -103 -163 -183 -214 -223 -287 -223 -55 0 -81 12 -157 70 -153 117
-336 180 -523 180 -196 0 -301 -55 -301 -158 0 -82 78 -131 391 -247 396 -146
580 -266 691 -450 174 -289 94 -728 -175 -958 -143 -122 -342 -208 -557 -241
l-75 -12 -19 -79 c-10 -44 -22 -97 -28 -118 -11 -47 -66 -103 -115 -116 -51
-15 -382 -14 -440 0 -56 15 -108 64 -124 119 -10 34 -9 58 5 138 10 53 20 104
22 113 3 12 -9 21 -43 34 -205 76 -461 254 -504 350 -44 96 -18 153 139 308
95 93 127 118 162 127 78 21 121 4 230 -92 68 -60 202 -130 306 -160 65 -18
104 -22 224 -22 129 0 152 2 205 23 72 29 119 73 135 128 34 111 -20 151 -395
293 -316 120 -440 192 -572 334 -140 150 -200 346 -174 566 24 194 96 337 233
465 143 134 331 214 579 249 l46 7 18 87 c28 142 50 181 120 213 35 16 67 19
245 19 179 0 210 -3 246 -19z"/>
<path d="M2745 4068 c-2 -7 -16 -71 -30 -143 -36 -179 -29 -165 -80 -165 -59
0 -187 -18 -260 -36 -273 -69 -458 -235 -510 -456 -20 -85 -19 -250 1 -319 46
-154 141 -261 327 -366 71 -40 120 -61 342 -145 369 -139 452 -207 463 -373 5
-89 -21 -164 -83 -232 -87 -97 -218 -143 -410 -143 -144 0 -217 11 -339 50
-110 36 -228 101 -316 175 -35 30 -69 55 -75 55 -6 0 -55 -45 -110 -101 l-100
-101 55 -49 c112 -102 270 -189 432 -240 57 -18 106 -35 111 -39 6 -5 -23
-164 -58 -316 -4 -20 -1 -21 172 -28 121 -5 180 -3 187 4 6 6 25 77 41 158
l31 146 114 13 c473 52 760 313 760 689 0 153 -37 256 -129 356 -107 117 -236
185 -626 329 -247 91 -339 150 -389 251 -35 71 -36 171 -2 243 25 55 84 113
143 143 145 74 393 79 596 11 98 -32 236 -103 311 -161 l69 -52 93 100 c75 80
90 102 81 113 -54 66 -310 213 -447 256 -30 10 -58 19 -61 21 -4 2 8 76 27
165 19 88 34 169 34 180 0 18 -10 19 -180 19 -136 0 -182 -3 -185 -12z"/>
</g>
</svg>
